<svg xmlns="http://www.w3.org/2000/svg" viewBox="0 0 9 9"><defs><linearGradient id="bcb49876-90a0-4424-9101-ad379b794fdd" x1=".117" y1="7.526" x2="7.513" y2="2.42" gradientUnits="userSpaceOnUse"><stop offset="0" stop-color="#94a6c3"/><stop offset=".945" stop-color="#fff"/></linearGradient><linearGradient id="ab1d238d-40cf-4c4d-9321-db6e86a80aa5" x1="19.654" y1="838.255" x2="25.42" y2="831.344" gradientTransform="scale(1 -1) rotate(89.192 439.172 406.34)" gradientUnits="userSpaceOnUse"><stop offset="0" stop-color="#1b314f"/><stop offset="1" stop-color="#d82122"/></linearGradient></defs><circle cx="4.5" cy="4.5" r="4.493" fill="url(#bcb49876-90a0-4424-9101-ad379b794fdd)"/><path d="M8.65 4.559A4.15 4.15 0 114.559.35 4.155 4.155 0 018.65 4.559m.35.005A4.5 4.5 0 104.436 9 4.5 4.5 0 009 4.564z" fill="url(#ab1d238d-40cf-4c4d-9321-db6e86a80aa5)"/><path d="M2.656 4.721l.171-1.288L1.34 2.401l1.359.46.321-.492 1.172-.727 2.582 1.423.134 2.17-1.15 1.6-.91.14.47-.862v-.829l-.342-.647-.348-.23-.534.551v.583l-.417.39-.53.065-.235.133-.385-.123-.16-.578.29-.406z" fill="#fff"/><path d="M5.03 2.39a2.704 2.704 0 00-.593-.043.867.867 0 01-.733.594A1.134 1.134 0 005.03 2.39zm.257 4.268a2.062 2.062 0 00.717-1.054c.005-.015.053-.043.085-.064.053-.032.107-.058.118-.101a2.255 2.255 0 00.032-.38c0-.048-.049-.097-.097-.144-.037-.032-.075-.07-.075-.097a2.033 2.033 0 00-.636-1.272l-.038.038a1.996 1.996 0 01.621 1.24.272.272 0 00.09.128c.038.032.081.08.081.102a2.175 2.175 0 01-.032.368c-.005.022-.053.044-.09.065-.053.026-.102.053-.112.096a1.976 1.976 0 01-.813 1.107c.07-.149.288-.636.406-.882l-.021-.792-.68-.657-.385.053-.422.685a.41.41 0 01-.081.545 1.267 1.267 0 01-.487.353L3.27 5.89a2.084 2.084 0 01.268-.263c.155-.128.31-.139.31-.277.006-.29-.305-.21-.305-.21l-.112.107-.048.396-.235.294-.026-.005-.385-.086s.235-.122.273-.262a2.153 2.153 0 00-.081-.604.582.582 0 01.16.246 1.942 1.942 0 01.23-.482c.032-.02.465-.25.465-.25l-.144.38.107-.06.257-.63a1.259 1.259 0 01.439-.123.815.815 0 00.61-1.155A2.576 2.576 0 016.42 4.579a2.031 2.031 0 01-1.134 2.079z" fill="#94a6c3"/><path d="M4.014 2.507a.457.457 0 00.076-.358l-.358.53a.415.415 0 00.282-.172zM2.81 5.4l.044-.213s-.177.31-.193.353c-.016.049.011.134.08.129a.213.213 0 00.155-.182.076.076 0 00-.085-.086z" fill="#1b314f"/><path d="M5.987 2s.268.011.546.043a2.715 2.715 0 00-1.7-.636 2.324 2.324 0 00-1.14.289l.208-.332a1.11 1.11 0 00-1.128.802 4.417 4.417 0 01-.144-.46.967.967 0 00-.23 1.011 54.635 54.635 0 00-1.236-.438c-.038-.005-.049.011-.049.011s-.01.016.021.043c.06.047 1.183.877 1.43 1.037-.053.193-.053.283 0 .374a.373.373 0 01.07.278c-.011.09-.108.877-.129.974s-.245.438-.235.54.15.534.273.583a1.717 1.717 0 00.465.101.19.19 0 00.123-.032c.09-.08.117-.096.181-.096h.016c.026 0 .058.006.096.006a.407.407 0 00.278-.091c.117-.118.32-.278.385-.353a.497.497 0 00.102-.38.508.508 0 01.134-.353c.102-.134.289-.375.289-.375a1.46 1.46 0 01.6 1.17 1.569 1.569 0 01-1.627 1.508 1.726 1.726 0 01-.406-.047 3.156 3.156 0 001.043.192 1.738 1.738 0 00.926-.219 2.66 2.66 0 01-.295.31h.006a2.19 2.19 0 001.487-.963s-.038.268-.085.45a2.446 2.446 0 001.1-2.294c.01.015.145.176.213.262A2.77 2.77 0 005.987 2zM3.94 5.52c-.02.026-.112.107-.176.166s-.134.117-.187.171a.187.187 0 01-.128.032h-.16a2.85 2.85 0 01.396-.406c.096-.064.145-.128.085-.24s-.213-.085-.213-.085a.531.531 0 01.171-.038.33.33 0 00-.289.06c-.064.058-.053.267-.08.4-.026.14-.117.209-.257.337a.264.264 0 01-.171.09 1.83 1.83 0 01-.273-.07 1.53 1.53 0 01-.155-.395 2.171 2.171 0 01.112-.23 1.006 1.006 0 00.112-.257c.022-.09.091-.653.118-.887.07.09.166.24.144.337a.452.452 0 00-.011-.519.588.588 0 01-.059-.438c.053-.182.246-.685.246-.685s.064.113.155.09a10.648 10.648 0 00.823-1.123.868.868 0 01-.011.749.881.881 0 01-.423.374.8.8 0 00.567-.145c.112.263.219.535.224.572-.016.038-.23.551-.25.583a.535.535 0 01-.14.043.756.756 0 00-.166.06 5.976 5.976 0 00-.289.732.444.444 0 00-.262.187.756.756 0 01.241-.053.48.48 0 01.364.347v.011a.33.33 0 01-.058.23zm-.502.064a.496.496 0 00.048-.225c.006-.037.016-.107.06-.117s.144.006.144.08c0 .07-.075.085-.128.134a3.206 3.206 0 00-.124.127zM5.57 4.561a2.566 2.566 0 00.043-.7 1.965 1.965 0 01.374.963.272.272 0 00.091.128c.037.032.08.075.08.102a2.193 2.193 0 01-.032.37c-.005.015-.053.043-.09.064-.053.027-.102.053-.112.096a1.993 1.993 0 01-.706 1.033A1.784 1.784 0 005.57 4.56zm-.336 2.102A2.058 2.058 0 005.966 5.6c.006-.016.054-.043.086-.064.053-.027.107-.059.117-.102a2.255 2.255 0 00.032-.38c0-.048-.048-.096-.096-.144-.027-.032-.07-.07-.07-.096a2.097 2.097 0 00-.439-1.065 1.104 1.104 0 00-.545-.845.98.98 0 01.096.888.716.716 0 01-.749.406 1.738 1.738 0 00-.417.61.577.577 0 00-.268-.016c.097-.268.242-.647.268-.68a.819.819 0 01.145-.047c.102-.027.15-.043.166-.064.01-.017.064-.14.117-.268a1.208 1.208 0 00.182-.016 1.991 1.991 0 00.113-.305c0-.026-.21-.545-.29-.743a1.244 1.244 0 00.113-.155 2.188 2.188 0 01.706 4.15z" fill="#1b314f"/><path d="M3.811 3.775a.233.233 0 00-.14-.374c.05-.111.118-.336.118-.336s-.546.855-.593.872-.096-.172-.096-.172c-.102.39.172.444.204.321a1.37 1.37 0 00.507-.31z" fill="#1b314f"/><path d="M3.345 3.983l.278-.475s.16.08.08.209a1.039 1.039 0 01-.358.266z" fill="#ffd923"/><path d="M6.784 6.188a3.13 3.13 0 01-.278.326 2.873 2.873 0 00.006-2.588c.049.048.096.101.14.15a1.693 1.693 0 01.132 2.112zm.642-1.707a3.214 3.214 0 00-1.337-1.695 2.72 2.72 0 00-1.551-.438h-.011a.368.368 0 01.08-.021 3.405 3.405 0 01.594-.123 1.76 1.76 0 011.53.523l.011.012a2.513 2.513 0 01.684 1.742zM5.918 1.834a3.044 3.044 0 00-1.68.064 1.591 1.591 0 00-.08-.198c-.111.134-.23.294-.304.396a1.084 1.084 0 00-.289.273 1.114 1.114 0 01.878-.775 2.178 2.178 0 01.385-.032 2.517 2.517 0 011.09.272zM2.971 2.86c-.625-.021-.417-.749-.406-.791a1.11 1.11 0 00.406.791zm.615-1.31a1.046 1.046 0 00-.385.978c-.46-.699.348-.961.385-.978z" fill="#d82122"/><path d="M2.795 3.053a.108.108 0 01.027.145c-.021.037-.053.032-.102.01a12.6 12.6 0 01-.797-.486c.396.14.797.289.861.32z" fill="#fff"/></svg>