<svg xmlns="http://www.w3.org/2000/svg" viewBox="0 0 9 9"><defs><linearGradient id="a39b3680-3d66-4633-ae1a-253d00d4a9b3" x1="-542.574" y1="2770.01" x2="-560.274" y2="2791.873" gradientTransform="matrix(.38 0 0 -.38 214.484 1061.806)" gradientUnits="userSpaceOnUse"><stop offset="0" stop-color="#5c77ba"/><stop offset=".52" stop-color="#e4115c"/><stop offset="1" stop-color="#ea4f41"/></linearGradient></defs><circle cx="4.5" cy="4.5" r="4.275" fill="#fff"/><path d="M3.418 5.468l.924-1.6-.26-.448-1.595 2.761h.518l.007-.01a2.88 2.88 0 011.502-.399 3.007 3.007 0 011.008.176l-.346-.598a3.458 3.458 0 00-1.758.118zm-1.397.055l2.055-3.564.004.007.003-.007 2.436 4.222h-.515L5.39 5.114a2.983 2.983 0 00-.889-.138 3.27 3.27 0 00-.467.032l.298-.511c.057-.003.112-.003.17-.003a3.55 3.55 0 01.553.044l-.979-1.694-1.8 3.123zm2.302-3.71l2.4 4.164.26-.448L4.84 1.812zm.188 5.992A3.314 3.314 0 101.196 4.49 3.314 3.314 0 004.51 7.805zm-.01.46A3.765 3.765 0 10.732 4.5a3.767 3.767 0 003.77 3.765zm.02.313A4.078 4.078 0 10.44 4.5a4.082 4.082 0 004.08 4.078zM4.5 9A4.5 4.5 0 100 4.5 4.497 4.497 0 004.502 9z" fill-rule="evenodd" fill="url(#a39b3680-3d66-4633-ae1a-253d00d4a9b3)"/></svg>