<svg xmlns="http://www.w3.org/2000/svg" viewBox="0 0 9 9"><path fill="none" d="M0 0h9v9H0z"/><path d="M4.5 9A4.5 4.5 0 100 4.5 4.5 4.5 0 004.5 9z" fill="#1d0d4a"/><path d="M5.293 2.041a1.47 1.47 0 01-.041 1.612.206.206 0 00-.032.128.21.21 0 00.053.12.258.258 0 00.156.092.26.26 0 00.049.005.272.272 0 00.135-.036 1.479 1.479 0 00.43-1.018v-.005l.008-.064a1.338 1.338 0 00-.063-.4 1.983 1.983 0 00-.165-.36 1.166 1.166 0 00-.25-.306 1.85 1.85 0 00-.619-.397.126.126 0 00-.126 0l-.007.008a.104.104 0 00-.011.076.105.105 0 00.042.062 3.473 3.473 0 01.44.483zM3.832 6.8a1.47 1.47 0 01.038-1.61.18.18 0 00.002-.252.257.257 0 00-.156-.092.271.271 0 00-.184.032 1.502 1.502 0 00-.43 1.02 2.002 2.002 0 01-.008.066 1.333 1.333 0 00.063.4 1.952 1.952 0 00.165.36 1.167 1.167 0 00.25.306 1.866 1.866 0 00.618.398.055.055 0 00.034.01.122.122 0 00.076-.032.063.063 0 00.02-.047.107.107 0 00-.041-.077 3.421 3.421 0 01-.447-.484z" fill="#fff"/><path d="M5.618 4.76l-.001-.001a3.566 3.566 0 00-.866-.605 4.724 4.724 0 01-.774-.505 1.205 1.205 0 01-.382-.645 1.223 1.223 0 01.098-.756 2.06 2.06 0 01.57-.687.1.1 0 00.034-.056.097.097 0 00-.008-.065.105.105 0 00-.03-.032.1.1 0 00-.043-.016.117.117 0 00-.045.003.097.097 0 00-.037.02 1.822 1.822 0 00-.805.643 1.512 1.512 0 00-.293 1.028 1.574 1.574 0 00.146.533 1.873 1.873 0 00.332.456 3.554 3.554 0 00.886.585 4.384 4.384 0 01.774.485 1.081 1.081 0 01.382.665 1.212 1.212 0 01-.1.793 1.912 1.912 0 01-.586.667.088.088 0 00-.028.024.075.075 0 00-.015.033.085.085 0 000 .036.08.08 0 00.014.03.101.101 0 00.073.048h.016a.1.1 0 00.065-.021 2.52 2.52 0 00.786-.664 1.545 1.545 0 00.272-1.008 1.681 1.681 0 00-.435-.988z" fill="#fff"/></svg>