<svg xmlns="http://www.w3.org/2000/svg" viewBox="0 0 9 9"><circle cx="4.5" cy="4.5" r="4.5" fill="#d9327c"/><path d="M4.339 2.503a.318.318 0 00-.102.162c-.027.088-.175.52-.364 1.06h1.263a61.7 61.7 0 01-.365-1.06.317.317 0 00-.101-.162.25.25 0 00-.169-.048.23.23 0 00-.162.048zM2.474 3.725h.858c.21-.615.392-1.128.419-1.222a.813.813 0 01.277-.406.767.767 0 01.466-.148.725.725 0 01.466.148.813.813 0 01.277.406c.034.094.21.6.419 1.222h.871a.257.257 0 010 .513H2.474a.25.25 0 01-.25-.256.255.255 0 01.25-.257zm0 1.013a.25.25 0 00-.25.257.255.255 0 00.25.257h.338l-.135.391-.135.392-.054.149a.254.254 0 10.48.169l.054-.149.135-.392c.054-.162.121-.351.196-.56h2.31c.067.202.135.398.195.56l.135.392.054.149a.254.254 0 10.48-.17l-.054-.148-.135-.392-.135-.391h.338a.257.257 0 000-.514H2.474zm3.803 1.52l.236-.08zm0 0l-.236.081zm-3.546 0l.237.081zm0 0l-.236-.081z" fill="#fff" fill-rule="evenodd"/></svg>