<svg xmlns="http://www.w3.org/2000/svg" viewBox="0 0 9 9"><circle cx="4.5" cy="4.5" r="4.275" fill="#f9fafb"/><path d="M4.5.35A4.15 4.15 0 11.35 4.5 4.155 4.155 0 014.5.35m0-.35A4.5 4.5 0 109 4.5 4.5 4.5 0 004.5 0z" fill="#006ae3"/><path d="M4.853 1.863l1.781.91a.775.775 0 01.422.694v.421h-.653v-.421a.139.139 0 00-.068-.109l-1.78-.91a.149.149 0 00-.11 0l-1.78.91a.108.108 0 00-.068.109v.421h-.653v-.421a.791.791 0 01.422-.693l1.78-.911a.807.807 0 01.707 0zm.204 2.61a.56.56 0 00-.557-.557.551.551 0 00-.557.557.557.557 0 101.114 0zm1.264 1.169a.108.108 0 00.069-.109v-.421h.652v.421a.791.791 0 01-.421.693l-1.781.911a.807.807 0 01-.707 0l-1.767-.91a.775.775 0 01-.422-.694v-.421h.653v.421a.139.139 0 00.068.109l1.509.761v-.761a1.211 1.211 0 01-.884-1.17 1.223 1.223 0 111.563 1.17v.761z" fill="#245ae5" fill-opacity=".9" fill-rule="evenodd"/></svg>