<svg xmlns="http://www.w3.org/2000/svg" xmlns:xlink="http://www.w3.org/1999/xlink" viewBox="0 0 9 9"><defs><linearGradient id="a43c48da-c25a-4836-96e0-7eae61f796f4" x1="4.5" y1="729.351" x2="4.5" y2="734.48" gradientTransform="translate(0 -726)" gradientUnits="userSpaceOnUse"><stop offset="0" stop-color="#01e8f8"/><stop offset="1" stop-color="#01e8f8" stop-opacity="0"/></linearGradient><linearGradient id="f0ff8aaf-6068-4476-8592-3a538d31834f" x1="6.903" y1="729.566" x2="7.074" y2="731.617" gradientTransform="translate(0 -726)" gradientUnits="userSpaceOnUse"><stop offset="0" stop-color="#01e8f7"/><stop offset="1" stop-color="#00c2ff"/></linearGradient><linearGradient id="eadcbbd5-5aa6-431a-a931-d447f901abfa" x1="3.527" y1="728.465" x2="5.518" y2="731.625" gradientTransform="translate(0 -726)" gradientUnits="userSpaceOnUse"><stop offset="0" stop-color="#01e8f7"/><stop offset="1" stop-color="#00b3ec"/></linearGradient><linearGradient id="f0e92d33-821e-460e-aa0f-e2f77d327e95" x1="4.335" y1="729.937" x2="4.513" y2="735.038" xlink:href="#f0ff8aaf-6068-4476-8592-3a538d31834f"/></defs><circle cx="4.5" cy="4.5" r="4.275" fill="#fff"/><path d="M1.565 7.434a4.15 4.15 0 115.87 0 4.155 4.155 0 01-5.87 0m-.247.248a4.5 4.5 0 100-6.364 4.5 4.5 0 000 6.364z" fill="#29afdf"/><path d="M1.575 7.502l-.01-.01a.142.142 0 00.02.06.075.075 0 00-.01-.05zm-.29-.6v-.03a.01.01 0 00-.01-.01c.01.01.01.02.01.04zm-.23.09v-.01c-.01 0-.02 0-.02-.01zm.22-.13c.01.01.01.02.01.04v-.03a.01.01 0 00-.01-.01zm-.24.11l.02.02v-.01c-.01 0-.02 0-.02-.01zm.54.53l-.01-.01a.142.142 0 00.02.06.075.075 0 00-.01-.05zm.95-2.31h.04v-.01a.06.06 0 01-.04.01zm.86-.24v.01c.01 0 .01 0 .01.01v-.02zm.52.35c-.01.01-.01 0-.02.01a.09.09 0 01.05-.01zm-1.38-.11h.04v-.01a.06.06 0 01-.04.01zm.86-.24v.01c.01 0 .01 0 .01.01v-.02zm.52.35c-.01.01-.01 0-.02.01a.09.09 0 01.05-.01z" fill="#bb2938"/><circle cx="4.5" cy="4.512" r="3.866" fill-opacity=".05" fill="url(#a43c48da-c25a-4836-96e0-7eae61f796f4)"/><path d="M7.52 4.256a1.325 1.325 0 00-.802-1.18l-.285 1.678a.413.413 0 01.33.099.287.287 0 01.022.387.955.955 0 00.735-.984z" fill="url(#f0ff8aaf-6068-4476-8592-3a538d31834f)"/><path d="M3.775 2.305l-.338-.342a5.365 5.365 0 013.172.837.683.683 0 010 .221l.11.056a1.278 1.278 0 01.143.98 1.08 1.08 0 01-.395.697.6.6 0 00-.57.55c-.097.45-.283.548-.363.54l-1.933.023-1.276-.75-.183-1.555.362-.484.648-.529.461-.188zm2.285.637a.73.73 0 01-.189.143 1.12 1.12 0 01-.676-.362 2.324 2.324 0 011.208.297 2.226 2.226 0 00-.343-.078z" fill-rule="evenodd" fill="url(#eadcbbd5-5aa6-431a-a931-d447f901abfa)"/><path d="M5.88 5.305a2.678 2.678 0 01-1.18.264A2.006 2.006 0 012.495 3.86a1.754 1.754 0 011.311-1.563 2.77 2.77 0 00-2.65 2.721A3.228 3.228 0 004.5 8.09a3.61 3.61 0 003.134-1.872c-.828.186-1.805-.168-1.754-.913z" fill-rule="evenodd" fill="url(#f0e92d33-821e-460e-aa0f-e2f77d327e95)"/></svg>