<svg xmlns="http://www.w3.org/2000/svg" width="1080" height="1080"><path d="M540.83 61.405a477.553 477.553 0 01477.765 477.765 477.553 477.553 0 01-477.765 477.765A477.553 477.553 0 0163.065 539.17 477.553 477.553 0 01540.83 61.405z" vector-effect="non-scaling-stroke" fill="#0046c8"/><path d="M825.047 407.732a138.021 138.021 0 01-6.052 20.915 120.397 120.397 0 00-8.175 27.073 134.305 134.305 0 00-2.017 13.484 93.217 93.217 0 01-3.397 16.881 96.933 96.933 0 01-12.74 25.056c-6.159 8.069-16.988 22.296-30.472 23.676h-4.777a641.48 641.48 0 00-85.149-38.54c-13.59-4.14-12.21-33.868-10.192-59.455.85-10.83 1.062-21.659.743-32.488a102.773 102.773 0 00-36.522-87.165 113.814 113.814 0 00-60.836-13.59c4.035-2.017 8.07-4.672 12.74-7.432a106.489 106.489 0 0158.182-18.898c28.454-5.734 57.863-4.566 85.892 3.397a100.861 100.861 0 0145.971 32.382c7.75 12.21 17.518 23.039 28.985 31.85 5.839 5.522 11.89 10.724 18.26 15.502 5.415 4.777 6.796 5.414 8.813 8.812 4.353 12.422 4.565 25.905.743 38.54zM680.974 543.629a3.716 3.716 0 012.124 5.309c-4.14 6.157-8.812 14.863-14.227 25.056-2.76 4.777-5.415 10.192-7.432 13.59a71.134 71.134 0 00-8.812 33.125c-.637 9.449-.637 13.483-6.795 16.88-4.671 3.398-9.449 4.035-41.83 8.813a40.026 40.026 0 00-10.193 2.654c-.637 0-.637 0-1.38.637a2.973 2.973 0 01-4.035-3.291c0-4.778.743-10.193.743-16.988v-16.88c-.743-8.07-.743-11.467 2.018-15.501a30.683 30.683 0 018.069-8.175 80.052 80.052 0 0021.658-20.916 47.14 47.14 0 007.432-14.227c0-1.274.637-2.017 4.672-4.671a43.317 43.317 0 0133.868-10.193c2.654.638 8.706 2.76 14.12 4.778zM553.252 693.01a3.504 3.504 0 01-2.654 1.38 8.494 8.494 0 01-7.432-2.76 24.207 24.207 0 01-2.124-16.88l13.59-3.398a43.742 43.742 0 01-1.38 21.658zm.637-49.369c0 2.124-.637 4.035-.637 6.795v10.086a39.601 39.601 0 01-12.74 1.38v-11.466a27.71 27.71 0 01.637-8.175c1.274 0 2.654-.637 4.034-.637a46.396 46.396 0 018.706-1.38c.743.743 0 2.123 0 3.397zm-24.95 45.229c-.637 6.795-2.76 15.607-9.555 16.987-2.655.637-4.672 0-5.309-1.38-4.777-4.035-5.415-16.881-4.777-25.693a100.543 100.543 0 0011.466-1.38 34.187 34.187 0 018.175-1.275zm-3.397-24.95l-14.864 4.777c.637-6.157 2.123-14.226 2.123-19.641-.106-1.911.319-3.716 1.274-5.309h.637l9.555-.743a114.75 114.75 0 011.275 20.916zm-23.676-4.778c-.637 2.123-2.018 8.812-2.655 12.953l-19.004-.743q2.123-9.131 4.14-16.244a16.35 16.35 0 014.672-8.706 8.494 8.494 0 018.812.637 10.936 10.936 0 014.035 12.103zm-7.432 56.801a10.192 10.192 0 01-4.672 3.397 5.733 5.733 0 01-4.777-1.38c-6.052-5.308-5.415-22.932-5.415-31.745a96.19 96.19 0 0120.278-3.397 58.394 58.394 0 01-5.308 33.125zm-24.313-45.228a70.603 70.603 0 01-2.76 6.688 47.883 47.883 0 01-15.501-1.274l4.777-29.09a30.47 30.47 0 0118.898-.637c2.655 3.291-2.76 18.155-5.414 24.313zm-8.175 50.006a19.004 19.004 0 01-16.881 6.795c-5.309 0-7.432-2.124-8.07-3.398-4.034-6.795 0-22.296 4.035-32.488l25.056 1.38c0 2.018.637 4.035.637 6.052a31.108 31.108 0 01-4.777 21.659z" vector-effect="non-scaling-stroke" fill="#fff"/><path d="M670.251 507.744c-23.039-6.689-21.021-39.814-19.004-71.665.955-10.299 1.062-20.703.743-31.108a93.748 93.748 0 00-31.108-77.716 157.45 157.45 0 00-94.703-8.812 104.259 104.259 0 01-25.694 4.777 86.635 86.635 0 01-37.796-12.846 47.458 47.458 0 00-22.296-8.175h-1.486a52.023 52.023 0 00-37.903 14.226c-5.945 9.874-10.617 20.597-13.483 31.851a110.417 110.417 0 00-5.946 25.587 84.405 84.405 0 01-4.778 21.659c-2.017 6.158-4.034 12.21-5.308 16.987a103.728 103.728 0 01-17.624 38.434 29.303 29.303 0 00-4.035 6.795 88.227 88.227 0 01-8.812 12.846 50.112 50.112 0 00-8.175 20.916c.743 5.414 2.336 10.723 4.778 15.607a33.974 33.974 0 015.414 17.518v1.38c.637 11.466-.637 17.624-23.039 37.16a254.277 254.277 0 00-31.001 33.868c-.743.637 0 2.017 1.274 2.017h4.777a21.765 21.765 0 0114.227 6.689c.637.743 1.274.743 2.654.743a21.659 21.659 0 0111.467-.743 24.42 24.42 0 0112.21 4.777c1.061 1.062 2.547 1.487 4.034 1.38a19.641 19.641 0 0117.624 4.672c1.699 1.911 4.672 2.123 6.689.637.743-.637 2.123-.637 2.76-1.274a33.444 33.444 0 0121.659 3.397 21.234 21.234 0 017.432 9.45 4.884 4.884 0 007.432 2.017 7.432 7.432 0 018.069-1.38c.637.637 2.123 1.38 2.76 2.123a8.6 8.6 0 007.432 3.185 31.426 31.426 0 0122.296 2.76 19.11 19.11 0 016.688 6.158v-1.486c0-.743.637-1.274 1.38-1.274l1.38-.743c3.292-1.274 22.296-6.689 29.728 1.38a.956.956 0 001.274 0c.744-1.38 2.124-1.38 2.124-2.124a16.456 16.456 0 0118.155 1.487c1.38.637 2.76.637 3.397-.743l2.124-2.018a8.175 8.175 0 016.795-2.017l10.086-.637a91.306 91.306 0 0013.59-1.38h.637c1.38 0 2.017-.637 3.397-.637a24.42 24.42 0 0115.5 0c4.778 2.017 4.035 7.432 3.398 11.466 0 2.018-.637 4.035-.637 5.309v2.76a45.228 45.228 0 01-.743 10.193l.637 2.017a3.185 3.185 0 004.778 2.017 28.56 28.56 0 008.069-6.795v-.637a180.595 180.595 0 002.123-31.108v-16.987a35.036 35.036 0 013.291-22.296 27.286 27.286 0 0112.21-11.36 57.332 57.332 0 0023.676-27.71c.637-4.14 2.017-6.795 8.812-12.21a53.085 53.085 0 0142.574-12.21c10.192 2.336 20.172 5.415 29.728 9.556.637 0 .637 0 1.38.637h.637c8.812 3.291 17.412 7.113 25.693 11.466a4.247 4.247 0 005.415-1.38 43.53 43.53 0 016.051-5.308c.744-.743 1.38-.743 2.124-1.487a4.14 4.14 0 00-.743-6.688 566.098 566.098 0 00-68.268-25.056zm-216.374 6.795c-13.271 32.912-41.831 57.119-76.443 64.87H373.4a35.992 35.992 0 01-13.484-8.07 28.241 28.241 0 01-6.051-9.555 2.442 2.442 0 00-.744-2.017 29.94 29.94 0 012.124-22.296l1.91-4.034c0-.637.744-.637.744-1.38.637-1.274.637-2.018 1.38-3.292a9.555 9.555 0 001.274-4.034c0-.743.744-.743.744-1.38a16.244 16.244 0 001.274-6.795c0-1.593.212-3.185.743-4.672 1.38-6.158 2.017-10.829 2.654-14.863a50.643 50.643 0 016.158-21.022 5.309 5.309 0 012.654-2.654l.637-.637.743-.744c1.38-.637 2.018-1.38 3.398-2.017.637 0 .637-.637 1.274-.637.743 0 2.123-.743 2.76-.743a44.38 44.38 0 0113.484-.637 93.217 93.217 0 0126.224 6.37.637.637 0 01.212.425c.425 0 .956.318 1.274.637a2.442 2.442 0 002.124.637c.637.743 1.91.743 2.654 1.38h.637c3.397 1.38 6.158 3.397 8.812 4.778 1.38.637 2.123 2.017 3.397 2.654a.637.637 0 01.637.743l.744.531c8.6 6.689 12.634 17.837 10.086 28.454zm22.295-116.257l-.637 5.309a37.16 37.16 0 01-25.056 34.505c-10.935 3.398-22.295 5.309-33.762 5.415h-.637a31.214 31.214 0 01-29.727-19.535c-2.124-9.556 2.017-15.607 8.706-27.074 1.38-2.123 2.123-4.034 3.397-6.051 6.37-10.617 11.254-21.978 14.864-33.869a44.485 44.485 0 0110.83-20.915 28.666 28.666 0 014.777-4.035l3.291-2.123a40.026 40.026 0 0141.194 3.397c5.52 5.203 8.6 12.21 8.918 19.642 0 6.052-2.123 18.261-6.158 45.334zm129.103 35.78a64.233 64.233 0 01-14.864 20.915 50.962 50.962 0 01-33.125 10.83 96.615 96.615 0 01-17.518-2.018c-10.829-2.123-30.47-5.308-37.16-20.915a15.925 15.925 0 01-1.38-7.432 101.605 101.605 0 00-1.38-16.244v-.637a42.999 42.999 0 010-16.244v-.637a129.644 129.644 0 015.415-23.676 7.857 7.857 0 0110.192-3.398c3.61 1.912 5.097 6.37 3.292 10.087-1.7 6.476-3.08 13.059-4.035 19.641v.637a33.231 33.231 0 000 11.573v.637c.85 6.051 1.38 12.103 1.38 18.26v2.018a13.165 13.165 0 006.052 6.052 3.397 3.397 0 004.778-4.035 76.018 76.018 0 013.397-46.714c2.017-3.929 6.052-10.724 9.45-16.775.636-.743.636-1.38 1.38-2.124 0-.424.212-.955.637-1.274 1.38-2.76 3.397-5.414 4.034-6.795a.637.637 0 01.637-.637.637.637 0 01.743-.743c0-.637.637-.637.637-1.274v-1.38l.743-.637c.637-1.38 2.018-2.76 2.655-4.14 2.123-2.655 0-6.052-3.398-4.672-5.308 2.654-8.706 5.308-9.449 5.308a7.75 7.75 0 11-9.449-12.103 52.554 52.554 0 0179.734 12.846 61.79 61.79 0 0111.572 34.506 73.257 73.257 0 01-14.864 41.194z" vector-effect="non-scaling-stroke" fill="#fff"/><path d="M444.428 341.481c-1.38 3.398-2.76 6.69-4.778 10.83-4.034 9.449-8.069 20.172-10.086 24.313a75.7 75.7 0 01-8.812 14.227 46.396 46.396 0 00-7.432 37.159c-4.778-.637-12.21-4.034-13.484-8.175-.743-3.291 1.274-6.052 6.689-15.5 1.38-2.124 2.123-4.035 3.397-6.053 6.901-11.678 12.422-24.206 16.244-37.16 3.398-9.554 4.778-13.589 9.556-16.986 3.291-.637 6.051-2.018 8.706-2.655zm-9.45 340.7a180.808 180.808 0 01-15.606 25.693 112.328 112.328 0 01-7.432-46.715v-1.274a26.861 26.861 0 014.777-13.483c1.38-2.655 6.052-4.035 11.467-4.035a22.296 22.296 0 0111.466 2.654 8.6 8.6 0 014.778 8.813 81.963 81.963 0 01-9.556 28.347z" vector-effect="non-scaling-stroke" fill="#fff"/><path d="M722.912 561.89c.743 0 .743.637.743 1.274a33.55 33.55 0 01-5.415 8.176c-3.185 3.822-6.158 7.856-8.812 12.103a74.425 74.425 0 00-6.052 33.868 366.495 366.495 0 00.637 43.211c.85 7.432.531 14.864-.637 22.296a111.266 111.266 0 01-19.641 42.574 90.988 90.988 0 01-43.211 42.68 15.076 15.076 0 01-6.795.638c-4.778 0-12.21 0-26.33.637a339.744 339.744 0 00-50.113 3.397 88.758 88.758 0 00-23.676 7.432 107.232 107.232 0 01-20.172 6.052 185.798 185.798 0 01-43.317 2.76c-24.42.53-48.838-.319-73.045-2.76a195.565 195.565 0 01-60.836-11.467c-26.33-14.227-37.16-39.283-55.42-80.477 0-.637.637-1.274.637-.637.743.637 2.123.637 2.76 1.38.637 0 1.38.638 2.654.638h6.795c.85 3.185 3.08 5.945 6.052 7.431 3.185 1.38 6.689 2.018 10.192 2.124a57.969 57.969 0 0010.83-.743 4.565 4.565 0 014.671 2.654c3.398 8.175 7.432 13.59 13.59 14.227h1.274a7.644 7.644 0 005.415-2.124 7.432 7.432 0 019.555 2.124 18.049 18.049 0 004.034 3.397 55.74 55.74 0 0033.762 9.45 40.238 40.238 0 0016.988-2.761c5.308-2.654 5.308-6.689 4.671-8.069-.743-2.654-.743-5.309-1.38-8.069 0 0 .637-.743.637 0 .743 1.38 1.38 4.034 4.14 4.034h.638c3.397 0 8.812 1.38 10.086 4.778.637 1.593 1.274 3.185 2.123 4.672 3.185 4.99 8.918 7.75 14.864 7.432h.637a26.755 26.755 0 0022.296-9.45c0-.637.637-.637.637-1.38a7.22 7.22 0 019.555-.637 12.74 12.74 0 009.449 3.398h2.017a14.545 14.545 0 0010.83-6.795 23.676 23.676 0 004.034-9.556c0-1.274 2.017-1.274 2.654-.637a12.21 12.21 0 009.556 3.398 6.052 6.052 0 003.29-.637 20.278 20.278 0 0014.865-16.987s.743-.637.743 0c3.185 3.822 7.963 5.839 12.74 5.52h1.38a11.573 11.573 0 008.813-4.777 22.827 22.827 0 004.034-13.484 4.247 4.247 0 013.397-4.034 45.228 45.228 0 0018.262-14.227 4.46 4.46 0 013.397-2.76 34.08 34.08 0 0010.086-3.292 35.78 35.78 0 017.432-2.123c33.125-4.672 39.283-6.052 46.715-10.723a27.604 27.604 0 0011.466-26.437 53.297 53.297 0 017.432-27.604c2.124-4.14 4.778-8.918 7.432-14.333 4.778-8.706 11.467-20.915 16.244-27.604a4.46 4.46 0 014.672-1.38c8.069 3.291 15.713 7.432 23.039 12.103z" vector-effect="non-scaling-stroke" fill="#fff"/><path d="M403.234 659.885a211.172 211.172 0 000 46.715l2.017 17.518a37.478 37.478 0 01-14.227 2.017 46.821 46.821 0 01-27.073-6.795l-.637-.637a9.343 9.343 0 01-4.778-8.175 8.918 8.918 0 012.124-4.671 13.802 13.802 0 012.654-4.035 66.038 66.038 0 006.688-10.192c7.432-12.74 10.193-16.244 13.59-21.659 0-.637.637-.637.637-1.274a91.519 91.519 0 008.175-12.21c2.655-4.034 5.309-7.431 6.69-10.085 3.396-4.14 5.414-6.795 6.794-8.175a34.824 34.824 0 01-1.38 7.432c0 3.397-.637 8.175-1.38 14.226zm-5.415-177.091a39.07 39.07 0 00-5.415 9.449 60.41 60.41 0 00-6.158 25.693 33.231 33.231 0 01-.637 8.069 24.313 24.313 0 01-2.76 6.158 57.756 57.756 0 00-6.052 31.108c-2.654-1.38-6.795-4.141-7.432-6.158a2.548 2.548 0 00-.637-2.018 17.943 17.943 0 011.38-12.846 119.441 119.441 0 009.45-27.073c1.274-6.052 2.017-12.104 2.654-16.138a25.48 25.48 0 014.034-14.227c.744-1.38 3.398-2.123 6.795-2.123zm-9.555 160.21a56.907 56.907 0 00-2.655-11.466l-.637-1.38c0-.637-.743-.637-.743-1.38a.637.637 0 00-.637-.638l-.743-.637h-.637a.637.637 0 01-.637-.743h-.743a25.587 25.587 0 00-6.689-2.123h-2.123c-.637 0-1.274 0-1.274.743l-1.38 1.38-.638.637a.637.637 0 01-.743.743c-.637 1.275-2.017 2.655-2.654 4.035-2.123 3.397-4.778 6.795-6.795 10.086-2.017 2.76-4.034 6.158-6.052 8.812-1.38 1.38-2.123 3.398-3.397 4.778l-.637.637c1.274 0 2.654.637 4.034.637a180.489 180.489 0 0029.091 2.654h.637c1.38-1.91 3.397-4.671 5.415-7.963a62.853 62.853 0 003.397-5.414c-2.017-1.38-2.654-2.124-2.654-3.398zm-22.296 26.33a89.607 89.607 0 01-14.864 29.728c-7.432 10.192-11.466 12.847-12.103 12.847-3.398-.637-6.795-8.813-9.555-17.625a73.682 73.682 0 01-4.778-29.727 85.573 85.573 0 0038.009 5.414 4.99 4.99 0 013.291-.637zm-12.847-40.557c-3.397 4.778-6.051 9.556-9.449 14.227-1.38 2.017-3.397 4.672-4.671 6.689-.743 1.38-2.124 2.76-2.76 4.14-2.655-.743-5.31-1.38-7.432-2.123l-6.052-2.017c-.743 0-.743 0-1.38-.637 0-.637-.637-1.38-1.38-2.123a32.913 32.913 0 002.123-4.672l4.034-8.069a39.39 39.39 0 0111.467-13.483 9.343 9.343 0 016.051-2.124h2.76c.638 0 1.275 0 1.275.743h.743c.637 0 .637.637 1.274.637a25.48 25.48 0 013.397 8.812zm-24.312-12.846a71.24 71.24 0 00-13.484 17.624c-2.123 3.291-3.398 7.432-5.415 10.723 0 .743-.743.743-.743 1.38-2.017-.637-3.291-.637-5.308-1.38-2.124-.637-3.398-1.274-5.415-2.017-.743-.637-1.38-.637-2.124-1.274a66.144 66.144 0 005.415-9.555c2.76-4.247 5.627-8.282 8.812-12.104 1.38-1.38 2.76-3.397 4.035-4.034 2.123-1.38 4.14-.743 6.158-.743a18.898 18.898 0 016.051.743 5.202 5.202 0 002.124.637zm-8.813 76.336l-.637.743h-12.846c-1.38 0-2.76 0-3.398-1.38a16.35 16.35 0 01-1.38-6.052 87.696 87.696 0 01-.637-29.727c4.99 2.123 10.192 3.397 15.607 4.034a71.134 71.134 0 002.017 25.693c0 2.336.425 4.566 1.274 6.795zM303.86 613.17a101.923 101.923 0 00-12.21 17.625 39.814 39.814 0 00-4.034 7.432c-2.124-.637-3.398-1.38-5.415-2.018-1.38-.637-2.76-2.123-4.035-2.654 0 0-1.38-.743-1.38-1.38h-.743c.637-1.062 1.062-2.123 1.38-3.398a27.18 27.18 0 013.398-6.051l6.795-10.83a8.069 8.069 0 013.29-3.397c1.381-.637 3.398 0 4.141 0 3.398.425 6.477 2.123 8.813 4.778zm-34.506 23.676c2.018 1.38 3.398 2.76 5.309 4.035l2.123 2.123v.637a90.032 90.032 0 00-3.397 22.933c0 .637-.637.637-.637 0a83.343 83.343 0 01-3.398-29.728zm21.659 16.988a203.21 203.21 0 00-1.38 20.278 59.03 59.03 0 001.38 10.83h-4.14a2.442 2.442 0 01-2.018-.744l-2.654-2.654a18.261 18.261 0 01-2.124-10.192 112.222 112.222 0 011.38-20.916c1.38.637 2.124.637 3.398 1.38 2.124.425 4.247 1.062 6.158 2.018z" vector-effect="non-scaling-stroke" fill="#fff"/></svg>