<svg xmlns="http://www.w3.org/2000/svg" viewBox="0 0 9 9"><circle cx="4.5" cy="4.5" r="4.5"/><path d="M6.141 3.497h-.533a.216.216 0 01-.163-.074L5.23 3.18a.17.17 0 00-.254 0l-.186.21a.319.319 0 01-.239.108H1.63a3.03 3.03 0 00-.159.747h2.756a.176.176 0 00.128-.055l.257-.268a.169.169 0 01.056-.039.171.171 0 01.067-.013h.01a.173.173 0 01.128.057l.216.244a.214.214 0 00.162.074H7.5a2.982 2.982 0 00-.159-.747h-1.2zM3.14 5.814a.178.178 0 00.128-.055l.256-.268a.174.174 0 01.123-.052h.01a.173.173 0 01.128.057L4 5.74a.22.22 0 00.163.074H7.21a2.992 2.992 0 00.25-.753H4.533a.217.217 0 01-.162-.072l-.216-.245a.17.17 0 00-.058-.042.172.172 0 00-.07-.016.167.167 0 00-.126.058l-.186.21a.32.32 0 01-.24.107H1.513a2.987 2.987 0 00.248.755zM5.302 2.68a.178.178 0 00.128-.054l.256-.268a.171.171 0 01.056-.039.169.169 0 01.067-.013h.011a.166.166 0 01.07.015.168.168 0 01.057.042l.216.245a.22.22 0 00.163.072h.58a3.025 3.025 0 00-4.839 0zM4.137 6.562h-.793a.215.215 0 01-.161-.074l-.216-.244a.171.171 0 00-.255 0l-.186.213a.318.318 0 01-.24.11h-.011a3.024 3.024 0 004.424 0z" fill="#fff"/></svg>