<svg xmlns="http://www.w3.org/2000/svg" viewBox="0 0 9 9"><path d="M4.5 9a4.5 4.5 0 01-3.182-7.682 4.5 4.5 0 016.364 6.364A4.47 4.47 0 014.5 9z" fill="#222326"/><circle cx="4.5" cy="4.5" r="3.793" fill="#f9fafb"/><path d="M5.234 6.252a.847.847 0 01-.06-.16Q5.149 6 5.13 5.899a1.284 1.284 0 01-.187.164 1.36 1.36 0 01-.237.136 1.386 1.386 0 01-.283.087 1.534 1.534 0 01-.337.035 1.682 1.682 0 01-.541-.083 1.29 1.29 0 01-.421-.234 1.071 1.071 0 01-.276-.356 1.047 1.047 0 01-.1-.453 1.068 1.068 0 01.45-.921 2.293 2.293 0 011.348-.328h.549v-.224a.54.54 0 00-.18-.429.758.758 0 00-.52-.16.628.628 0 00-.439.13.435.435 0 00-.138.338h-.984a1.025 1.025 0 01.106-.457 1.153 1.153 0 01.315-.38 1.587 1.587 0 01.506-.258 2.219 2.219 0 01.686-.098 2.369 2.369 0 01.644.084 1.557 1.557 0 01.52.247 1.138 1.138 0 01.344.415 1.27 1.27 0 01.124.576v1.618a2.69 2.69 0 00.039.502 1.27 1.27 0 00.113.342v.06z" fill="#222326"/><path d="M4.398 5.442a.932.932 0 00.247-.031.961.961 0 00.205-.081.757.757 0 00.158-.112.632.632 0 00.104-.13v-.58h-.449a1.32 1.32 0 00-.35.04.638.638 0 00-.237.109.421.421 0 00-.136.168.502.502 0 00-.044.211.38.38 0 00.123.29.546.546 0 00.38.116z" fill="#f9fafb"/></svg>