<svg xmlns="http://www.w3.org/2000/svg" viewBox="0 0 9 9"><circle cx="4.5" cy="4.5" r="4.5" fill="#e54041"/><path d="M2.735 6.1h-.592a.359.359 0 01-.12-.02.21.21 0 01-.145-.265.477.477 0 01.053-.127l1.046-1.842 1.278-2.25a.414.414 0 01.105-.129.204.204 0 01.272.006.404.404 0 01.094.118c.19.347.388.688.582 1.032a.723.723 0 01.09.4.705.705 0 01-.074.287c-.032.062-.069.121-.104.182L3.924 5.737a.718.718 0 01-.476.347.662.662 0 01-.155.016h-.558z" fill="#fdfdfd"/><path d="M6.035 6.1h-.822a.353.353 0 01-.122-.022.214.214 0 01-.143-.262.428.428 0 01.049-.123l.812-1.4a.413.413 0 01.093-.114.21.21 0 01.282.001.425.425 0 01.094.117l.794 1.394a.382.382 0 01.056.16.209.209 0 01-.153.229.46.46 0 01-.148.02h-.792z" fill="#fefefe"/></svg>