<svg xmlns="http://www.w3.org/2000/svg" viewBox="0 0 9 9"><circle cx="4.5" cy="4.5" r="4.5" fill="#0055d5"/><path d="M6.977 5.113c-.009.198-.016.377-.029.557a1.472 1.472 0 01-.063.36.405.405 0 01-.058.117.197.197 0 01-.171.083.753.753 0 01-.255-.063 2.112 2.112 0 01-.38-.208c-.274-.176-.535-.37-.796-.566l-.362-.269a.257.257 0 01-.049-.047.075.075 0 01-.005-.1.394.394 0 01.037-.047 1.276 1.276 0 01.127-.13.19.19 0 01.092-.045.069.069 0 01.067.024.354.354 0 00.051.047c.239.197.482.389.731.572a.724.724 0 00.218.113.254.254 0 00.096.012.163.163 0 00.13-.089.47.47 0 00.053-.164 5.601 5.601 0 00.067-.578 3.377 3.377 0 00-.042-.732 1.93 1.93 0 00-.044-.247.382.382 0 00-.052-.113.215.215 0 00-.239-.085.762.762 0 00-.25.11 3.262 3.262 0 00-.437.342c-.15.134-.295.273-.442.41-.158.148-.328.282-.495.418q-.491.4-.991.79c-.198.153-.394.309-.602.447a1.595 1.595 0 01-.35.183.377.377 0 01-.119.024.208.208 0 01-.184-.1.725.725 0 01-.086-.203 2.829 2.829 0 01-.103-.536 6.787 6.787 0 01-.033-.831c.005-.378.032-.755.071-1.131a2.075 2.075 0 01.064-.382.619.619 0 01.086-.189.214.214 0 01.196-.103.291.291 0 01.153.06c.057.042.118.08.178.119.4.26.8.52 1.197.784.063.042.127.082.186.129a.367.367 0 01.08.084.136.136 0 01.008.147.436.436 0 01-.074.098 1.013 1.013 0 01-.136.131.158.158 0 01-.057.029.048.048 0 01-.06-.027.384.384 0 00-.04-.056 1.75 1.75 0 00-.146-.166.207.207 0 00-.068-.046.07.07 0 00-.077.013c-.205.17-.409.343-.619.508a.842.842 0 01-.105.072.208.208 0 01-.053.023.048.048 0 01-.062-.024.354.354 0 01-.011-.324.208.208 0 01.06-.071c.176-.139.35-.28.535-.408.055-.038.054-.063-.003-.096-.068-.04-.14-.068-.21-.104l-.16-.085a.283.283 0 00-.076-.03.163.163 0 00-.17.066.522.522 0 00-.09.196 1.93 1.93 0 00-.056.421 4.47 4.47 0 00.054.91 1.084 1.084 0 00.079.27.346.346 0 00.049.08.154.154 0 00.164.055.552.552 0 00.17-.079c.12-.076.233-.163.351-.242.29-.194.566-.408.841-.624a67.695 67.695 0 001.934-1.59.89.89 0 01.286-.173.255.255 0 01.313.097.557.557 0 01.053.09 1.144 1.144 0 01.098.353c.025.183.037.367.044.551.016.429.005.841-.009 1.208z" fill="#fefefe"/></svg>