<svg xmlns="http://www.w3.org/2000/svg" viewBox="0 0 9 9"><path id="a9a6d8e7-4b0b-4136-b125-fca52b64d963" d="M4.5 0A4.5 4.5 0 110 4.5 4.5 4.5 0 014.5 0z" fill="#d9b432"/><path d="M3.156 2.48a1.28 1.28 0 00-1.273 1.272 1.264 1.264 0 001.273 1.253 1.281 1.281 0 001.293-1.253A1.285 1.285 0 003.156 2.48zm-.02 2.02a.763.763 0 01-.768-.748.75.75 0 01.768-.747.739.739 0 01.768.747.75.75 0 01-.768.748zm2.707-.505a1.263 1.263 0 100 2.526 1.25 1.25 0 001.273-1.253 1.268 1.268 0 00-1.272-1.273zm0 2a.763.763 0 01-.767-.747.75.75 0 01.768-.748.777.777 0 01.767.748.75.75 0 01-.768.747z" fill="#221f20"/><path d="M6.955 3.57a1.18 1.18 0 01-.121.526 2.11 2.11 0 00-.465-.263.622.622 0 00.06-.263.578.578 0 00-.565-.565.572.572 0 00-.506.828 1.524 1.524 0 00-.464.263.96.96 0 01-.122-.525 1.057 1.057 0 011.071-1.092A1.104 1.104 0 016.955 3.57zM3.156 6.52a1.104 1.104 0 01-1.111-1.09h.525a.566.566 0 101.132 0h.525a1.045 1.045 0 01-1.071 1.09z" fill="#221f20"/></svg>