<svg xmlns="http://www.w3.org/2000/svg" viewBox="0 0 9 9"><defs><linearGradient id="abaa28f1-1009-4338-b461-c0faabc90537" x1="-119.312" y1="-107.672" x2="-111.734" y2="-112.529" gradientTransform="rotate(180 -55.706 -52.676)" gradientUnits="userSpaceOnUse"><stop offset="0" stop-color="#d1884f"/><stop offset=".122" stop-color="#bd7841"/><stop offset=".386" stop-color="#965925"/><stop offset=".629" stop-color="#7a4211"/><stop offset=".841" stop-color="#693505"/><stop offset="1" stop-color="#633001"/></linearGradient></defs><circle cx="4.5" cy="4.5" r="4.275" fill="#f9fafb"/><path d="M4.5.35A4.15 4.15 0 11.35 4.5 4.155 4.155 0 014.5.35m0-.35A4.5 4.5 0 109 4.5 4.5 4.5 0 004.5 0z" fill="url(#abaa28f1-1009-4338-b461-c0faabc90537)"/><path d="M6.709 5.387c0 .758-.99 1.377-2.209 1.377s-2.209-.619-2.209-1.377v-.356h4.433v.356z" fill="#fedc90"/><path d="M3.144 2.766a.44.44 0 11.869-.092v1.011a4.592 4.592 0 01.472-.03c.152 0 .304.015.457.03V2.674a.443.443 0 01.441-.444.46.46 0 01.442.536L5.627 3.87c.64.245 1.082.674 1.082 1.164 0 .751-.99 1.364-2.209 1.364s-2.209-.613-2.209-1.364c0-.49.427-.92 1.067-1.164z" fill="#d1884f" fill-rule="evenodd"/><path d="M3.885 4.94c0 .197-.106.364-.243.364S3.4 5.138 3.4 4.94s.106-.364.243-.364.242.167.242.364zm1.685 0c0 .197-.106.364-.243.364s-.243-.167-.243-.364.107-.364.243-.364.243.167.243.364z" fill="#633001"/><path d="M2.96 2.83a.636.636 0 111.26-.121v.789c.09 0 .181-.015.272-.015a1.471 1.471 0 01.258.015v-.79a.641.641 0 01.638-.637.656.656 0 01.638.76l-.167.925a1.513 1.513 0 011.047 1.275v.349a1.338 1.338 0 01-.744 1.123 3.168 3.168 0 01-1.67.425 3.168 3.168 0 01-1.67-.425 1.353 1.353 0 01-.728-1.123v-.349a1.495 1.495 0 011.032-1.275zm2.67 1.048l.198-1.093a.449.449 0 00-.44-.532.44.44 0 00-.44.44v1.002a.864.864 0 00-.198-.015c-.09 0-.167-.015-.258-.015a1.647 1.647 0 00-.273.015c-.06 0-.136.015-.197.015V2.71a.438.438 0 10-.865.091l.197 1.093c-.638.243-1.063.668-1.063 1.154v.349c0 .743.987 1.35 2.201 1.35s2.201-.607 2.201-1.35v-.35c.016-.5-.41-.926-1.062-1.168z" fill="#633001" fill-rule="evenodd"/></svg>