<svg xmlns="http://www.w3.org/2000/svg" viewBox="0 0 9 9"><defs><linearGradient id="fdbcaae7-89e6-4ce9-9faa-47dc21aecfa0" x1="3.282" y1="-127.662" x2="10.86" y2="-132.519" gradientTransform="rotate(180 5.591 -62.67)" gradientUnits="userSpaceOnUse"><stop offset="0" stop-color="#35d07f"/><stop offset=".229" stop-color="#6ecf75"/><stop offset=".495" stop-color="#aace6a"/><stop offset=".721" stop-color="#d6cd63"/><stop offset=".897" stop-color="#f1cc5e"/><stop offset="1" stop-color="#fbcc5c"/></linearGradient></defs><circle cx="4.5" cy="4.5" r="4.275" fill="#f9fafb"/><path d="M4.5.35A4.15 4.15 0 11.35 4.5 4.155 4.155 0 014.5.35m0-.35A4.5 4.5 0 109 4.5 4.5 4.5 0 004.5 0z" fill="url(#fdbcaae7-89e6-4ce9-9faa-47dc21aecfa0)"/><path d="M4.998 5.372a1.37 1.37 0 10-1.37-1.37 1.37 1.37 0 001.37 1.37zm0 .498a1.867 1.867 0 111.867-1.868A1.868 1.868 0 014.998 5.87z" fill="#35d07f"/><path d="M4.002 6.367a1.37 1.37 0 10-1.37-1.369 1.37 1.37 0 001.37 1.37zm0 .498A1.867 1.867 0 115.87 4.998a1.868 1.868 0 01-1.868 1.867z" fill="#fbcc5c"/></svg>