<svg xmlns="http://www.w3.org/2000/svg" viewBox="0 0 9 9"><defs><linearGradient id="af7d35d6-b534-4716-8440-a8ac36c4707d" x1="350.757" y1="483.405" x2="359.757" y2="483.405" gradientTransform="rotate(-135 80.694 316.597)" gradientUnits="userSpaceOnUse"><stop offset="0"/><stop offset="1" stop-color="#666"/></linearGradient></defs><circle cx="4.5" cy="4.5" r="4.275" fill="#fff"/><path d="M1.565 7.434a4.15 4.15 0 115.87 0 4.155 4.155 0 01-5.87 0m-.247.248a4.5 4.5 0 100-6.364 4.5 4.5 0 000 6.364z" fill="url(#af7d35d6-b534-4716-8440-a8ac36c4707d)"/><path d="M5.69 5.033L4.499 6.22l-.663-.66 1.191-1.187-.53-.528-1.726 1.72 1.722 1.716 1.726-1.72-.529-.528z"/><path d="M6.753 3.961l-2.25-2.242-2.256 2.248.007 1.051 2.24-2.231 2.255 2.247.004-1.073z"/></svg>