<svg xmlns="http://www.w3.org/2000/svg" viewBox="0 0 9 9"><defs><linearGradient id="e6077c9c-dd68-47e0-8623-a366ffd2d610" x1="343.983" y1="540.541" x2="352.983" y2="540.541" gradientTransform="rotate(-135 65.474 343.762)" gradientUnits="userSpaceOnUse"><stop offset="0"/><stop offset="1" stop-color="#3cc68a"/></linearGradient></defs><g id="b467c980-43c8-4d4e-8c63-dc9e844b556c"><circle cx="4.5" cy="4.5" r="4.275" fill="#fff"/><path d="M1.565 7.434a4.15 4.15 0 115.87 0 4.155 4.155 0 01-5.87 0m-.247.248a4.5 4.5 0 100-6.364 4.5 4.5 0 000 6.364z" fill="url(#e6077c9c-dd68-47e0-8623-a366ffd2d610)"/></g><path fill="#424242" d="M2.151 2.529v2.366h.788V2.529h-.788zm3.91 1.576v2.366h.788V4.105h-.788zM4.483 2.529v1.543l.788.788V3.317l-.788-.788zM3.729 4.14v1.543l.788.788V4.928l-.788-.788z"/><path d="M4.483 2.529h.788l1.578 1.576h-.788L4.483 2.529zM2.151 4.895h.788l1.578 1.576h-.788L2.151 4.895z"/><path fill="#3cc68a" d="M5.271 3.317V4.85L2.939 2.529v2.366l.79.788V4.15l2.332 2.321V4.105l-.79-.788z"/></svg>