<svg xmlns="http://www.w3.org/2000/svg" viewBox="0 0 9 9"><path d="M4.5 9A4.5 4.5 0 100 4.5 4.5 4.5 0 004.5 9z" fill="#070a0e"/><path d="M2.641 5.976a.443.443 0 01-.212-.378v-.86a.185.185 0 01.278-.16l1.94 1.132a.369.369 0 01.184.319v.891a.221.221 0 01-.22.222.224.224 0 01-.117-.033zm2.893-1.633a.37.37 0 01.183.32V6.47a.147.147 0 01-.075.129l-.425.238-.017.008V5.84a.37.37 0 00-.18-.317l-1.704-1.02V3.371a.185.185 0 01.278-.16zm.85-1.335a.37.37 0 01.183.32v2.64a.15.15 0 01-.078.13l-.402.218V4.477a.37.37 0 00-.18-.317L4.165 3.115V2.041a.19.19 0 01.025-.093.185.185 0 01.253-.067z" fill="#00d395" fill-rule="evenodd"/></svg>