<svg xmlns="http://www.w3.org/2000/svg" xmlns:xlink="http://www.w3.org/1999/xlink" viewBox="0 0 9 9"><defs><linearGradient id="af62d500-a1bf-4cec-9789-6ee0023fa00e" x1="3.807" y1="-1948.074" x2="3.222" y2="-1951.389" gradientTransform="translate(0 1954)" gradientUnits="userSpaceOnUse"><stop offset=".1" stop-color="#2355be"/><stop offset=".5" stop-color="#248fcb"/><stop offset=".8" stop-color="#2bbfdf"/></linearGradient><linearGradient id="b7c0e2bb-1402-45ec-9dfd-23a74b5d6b39" x1="6155.252" y1="3690.032" x2="6156.025" y2="3685.646" gradientTransform="rotate(180 3080.635 1846.176)" xlink:href="#af62d500-a1bf-4cec-9789-6ee0023fa00e"/></defs><path id="ffbff7fe-d5fe-4afd-80d4-21373d835bf5" d="M4.5 0A4.5 4.5 0 110 4.5 4.5 4.5 0 014.5 0z" fill="#003264"/><path d="M1.961 3.913c-.09 0-.13.04-.13.12V6.1c0 .09.04.12.13.12.993.01 2.207-.873 3.21-1.565V2.267c-.993.682-2.237 1.656-3.21 1.646z" fill="url(#af62d500-a1bf-4cec-9789-6ee0023fa00e)"/><path d="M7.188 4.846c.09 0 .13-.04.13-.12V2.659c0-.09-.04-.12-.13-.12-1.003-.01-2.207.872-3.21 1.564v2.378c.993-.682 2.237-1.655 3.21-1.635z" fill="url(#b7c0e2bb-1402-45ec-9dfd-23a74b5d6b39)"/></svg>