<svg xmlns="http://www.w3.org/2000/svg" viewBox="0 0 9 9"><defs><linearGradient id="f1cd9d1c-80c6-4730-af5a-22d6ed11be0f" x1="96.219" y1="665.873" x2="105.219" y2="665.873" gradientTransform="rotate(-135 -84.365 355.114)" gradientUnits="userSpaceOnUse"><stop offset="0"/><stop offset="1" stop-color="#666"/></linearGradient></defs><circle cx="4.5" cy="4.5" r="4.275" fill="#fff"/><path d="M1.565 7.434a4.15 4.15 0 115.87 0 4.155 4.155 0 01-5.87 0m-.247.248a4.5 4.5 0 100-6.364 4.5 4.5 0 000 6.364z" fill="url(#f1cd9d1c-80c6-4730-af5a-22d6ed11be0f)"/><path d="M7.485 5.423L6.756 3.48a.121.121 0 00-.113-.079H5.476l-.698-1.863a.121.121 0 00-.204-.04L2.838 3.402H1.629a.121.121 0 00-.114.164l.729 1.943a.121.121 0 00.113.078h1.15l.703 1.876a.122.122 0 00.09.077l.024.002a.122.122 0 00.09-.04l1.032-1.129a.118.118 0 00.02-.035l.696-.751h1.21a.121.121 0 00.113-.164zM4.62 1.809l.629 1.677-.704.766-.29-.772a.121.121 0 00-.113-.079h-.975zM1.804 3.644h2.254l.303.809-.819.89h-1.1zm3.463 2.552l.007.007-.008.006-.898.982-.636-1.695.724-.789.3.8a.121.121 0 00.114.08h.96zm-.313-.852l-.313-.837.792-.863H6.56l.637 1.7z"/></svg>