<svg xmlns="http://www.w3.org/2000/svg" viewBox="0 0 9 9"><defs><linearGradient id="a96729f9-7662-4b14-8942-cd10c63b7e68" x1="1.208" y1="7.302" x2="8.061" y2="1.469" gradientUnits="userSpaceOnUse"><stop offset="0" stop-color="#f4bb3b"/><stop offset=".022" stop-color="#edbc40"/><stop offset=".366" stop-color="#88d087"/><stop offset=".519" stop-color="#60d8a4"/><stop offset=".632" stop-color="#53c9b4"/><stop offset=".851" stop-color="#30a1de"/><stop offset="1" stop-color="#1682fe"/></linearGradient></defs><circle cx="4.5" cy="4.5" r="4.275" fill="#f9fafb"/><path d="M4.5.35A4.15 4.15 0 11.35 4.5 4.155 4.155 0 014.5.35m0-.35A4.5 4.5 0 109 4.5 4.5 4.5 0 004.5 0z" fill="url(#a96729f9-7662-4b14-8942-cd10c63b7e68)"/><path fill="#1682fe" d="M4.826 3.027h.336v.507h-.336zm-.964-.94h.336v.507h-.336z"/><path fill="#60d8a4" d="M2.898 2.57h.336v.507h-.336z"/><path fill="#f4bb3b" d="M2.414 4.498h.339v1.448h-.339z"/><path fill="#60d8a4" d="M2.414 3.051h.339v1.448h-.339z"/><path fill="#1682fe" d="M5.306 3.511h.336v.507h-.336z"/><path fill="#ff5a5a" d="M5.306 4.979h.336v.507h-.336zm-.48.483h.336v.507h-.336zm-.964.941h.336v.507h-.336z"/><path fill="#f4bb3b" d="M2.898 5.919h.336v.507h-.336z"/><path d="M6.586 4.015V3.05h-.484v-.48h-.964v-.483h-.964v.483H3.21v.484h-.483v2.892h.483v.484h.964v.484h.964V6.43h.964v-.484h.484v-.967h-.964v.483h-.484v.484h-.964v-.484h-.48V3.534h.484v-.483h.964v.483h.484v.484h.96z" fill="#3a3a3a"/></svg>