<svg xmlns="http://www.w3.org/2000/svg" viewBox="0 0 90 90"><circle cx="45" cy="45" r="45" fill="#0a82c8"/><path d="M70.357 45.773c-1.738 10.074-6.14 17.129-12.717 20.402-3.182 1.565-6.21 2.41-13.063 2.41H25l1.555-9.323 17.281.01h.041c10.613 0 13.581-5.022 14.974-9.393a45.396 45.396 0 001.748-9.616c.041-2.99-.66-5.185-2.165-6.71-1.86-1.88-4.991-2.795-9.566-2.795l-17.678-.02 1.556-9.322h19.731c7.279 0 12.28 1.738 15.279 5.296 3.294 3.904 4.137 10.145 2.602 19.06z" fill="#fff"/><path d="M44.262 40.324c-.101.539-.345 1.718-.782 3.7l-.02.071c-.478 2.216-1.21 5.55-6.07 5.55H17.599c.102-.539.346-1.718.783-3.69l.02-.081c.477-2.216 1.21-5.55 6.069-5.55z" fill="#fff"/></svg>