<svg xmlns="http://www.w3.org/2000/svg" viewBox="0 0 9 9"><path d="M4.5 0A4.5 4.5 0 110 4.5 4.5 4.5 0 014.5 0" fill="#ff4a4a" fill-rule="evenodd"/><path d="M7.054 5.948a.431.431 0 01-.582.154L5.127 5.34v-.484l.427-.242 1.344.762a.415.415 0 01.156.572zm-2.127 1.03a.427.427 0 01-.854 0V5.453l.427-.241.427.241zm-2.399-.876a.431.431 0 01-.582-.154.415.415 0 01.148-.568l.008-.004 1.344-.762.426.242v.484zm-.426-2.478a.415.415 0 01-.16-.565l.004-.007a.431.431 0 01.583-.154l1.344.762v.484l-.427.242zm1.971-1.602a.427.427 0 01.854 0v1.524l-.427.242-.427-.241zm1.054 2.35l.227.129-.227.128zm-.426-.47l.226-.128v.256zm-.628.129v-.257l.226.128zm-.2.597L3.645 4.5l.226-.128zm.426.47l-.226.128V4.97zm.628-.128v.256L4.7 5.098zm-.427.014l-.427-.242v-.484l.427-.242.427.242v.484zm1.972-2.086a.431.431 0 01.582.154.415.415 0 01-.156.572l-1.344.762-.427-.242V3.66zm.527 2.307L5.755 4.5 7 3.795a.61.61 0 00.236-.83l-.007-.012a.634.634 0 00-.857-.225l-1.243.705v-1.41a.628.628 0 00-1.255 0v1.41L2.63 2.728a.633.633 0 00-.857.225.61.61 0 00.218.835l.012.007 1.243.705-1.243.705a.61.61 0 00-.237.83l.007.012a.634.634 0 00.857.225l1.244-.705v1.41a.628.628 0 001.254 0v-1.41l1.244.705a.634.634 0 00.857-.225.61.61 0 00-.218-.835L7 5.205" fill="#fff" fill-rule="evenodd"/></svg>