<svg xmlns="http://www.w3.org/2000/svg" viewBox="0 0 8.986 8.986"><defs><linearGradient id="b5888fd7-5661-45e9-a7f6-fb60f52324b5" x1="-47.221" y1="134.281" x2="-41.291" y2="127.53" gradientTransform="rotate(-40.498 -191.472 1.527)" gradientUnits="userSpaceOnUse"><stop offset="0" stop-color="#3a0a8c"/><stop offset=".774" stop-color="#80298c"/><stop offset="1" stop-color="#96328c"/></linearGradient></defs><circle cx="4.493" cy="4.493" r="4.493" fill="url(#b5888fd7-5661-45e9-a7f6-fb60f52324b5)"/><path d="M7.051 4.496a4.036 4.036 0 00-.093-.854 2.202 2.202 0 00-.932-1.445l-.003-.002-.015-.012a3.933 3.933 0 00-2.161-.623l-.009.003-.045-.003c-.006 0-.008.004-.013.005-.022 0-.044-.004-.066-.005a.204.204 0 00-.113.045l-.006.003-.012.005c-.227.15-.454.304-.685.445a.203.203 0 00-.105.195v.135c.004.737.004 1.474.004 2.21v2.256a.11.11 0 00.085.13l.895.388c.006.003.012.002.018.004l.037.016a.252.252 0 00.12.024l.045-.007a.157.157 0 00.034.007l.01-.002.008.002a4.263 4.263 0 001.834-.596l.002-.002.016-.008a2.217 2.217 0 001.044-1.332 3.349 3.349 0 00.106-.85c0-.016-.005-.031-.005-.047 0-.028.005-.057.005-.085zM3.055 6.654V4.69c0-.76.004-1.518 0-2.273a.145.145 0 01.073-.142c.166-.104.328-.213.491-.321v4.012c-.003.072.022.1.074.114a.117.117 0 00.09.031c.024.001.047-.003.071-.002l.007.002h.019a2.809 2.809 0 001.357-.213c.055-.025.107-.064.161-.095a2.09 2.09 0 01-.581.47 4.221 4.221 0 01-1.731.446.06.06 0 01-.023-.008.174.174 0 01-.007-.058zm2.83-4.193a1.965 1.965 0 01.697.943 1.783 1.783 0 00-.244-.248 2.398 2.398 0 00-.787-.41 4.24 4.24 0 00-.951-.179c-.008 0-.006.005-.013.006l-.041-.006c-.012 0-.01.007-.02.008l-.059-.008c-.051-.004-.073.01-.082.033a.129.129 0 00-.025.09v.136c0 .97-.004 1.937 0 2.903a.145.145 0 01-.022.103.141.141 0 01-.085.027c-.107.002-.212.005-.321 0a.095.095 0 01-.044-.015.083.083 0 01-.014-.049l.003-.45v-.14q0-1.655-.004-3.301a.11.11 0 01.019-.072.157.157 0 01.035-.008 4.452 4.452 0 011.01.168 3.308 3.308 0 01.949.47zm-1.267 1.05a.084.084 0 01.009-.046 2.115 2.115 0 01.798.397 1.191 1.191 0 01.398.735 1.009 1.009 0 01-.24.687 1.382 1.382 0 01-.402.315 2.389 2.389 0 01-.47.179l-.084.019a.093.093 0 01-.01-.042zm-1.092 3.44a4.91 4.91 0 001.025-.236 3.602 3.602 0 00.59-.27 1.8 1.8 0 00.504-.42 1.833 1.833 0 00.45-1.269c0-.008-.004-.017-.005-.025 0-.035.007-.07.005-.106a1.771 1.771 0 00-.093-.477 1.043 1.043 0 00-.277-.425 1.752 1.752 0 00-.401-.29 2.687 2.687 0 00-.652-.243.105.105 0 01-.043-.024.093.093 0 01-.012-.059V2.88a.09.09 0 01.007-.04 4.401 4.401 0 01.633.109 2.655 2.655 0 01.625.253 1.743 1.743 0 01.878 1.54A2.177 2.177 0 015.51 6.69a4.187 4.187 0 01-1.527.458l-.457-.196z" fill="#fff"/></svg>