<svg xmlns="http://www.w3.org/2000/svg" viewBox="0 0 9 9"><circle cx="4.5" cy="4.5" r="4.275" fill="#f9fafb"/><path d="M4.5.35A4.15 4.15 0 11.35 4.5 4.155 4.155 0 014.5.35m0-.35A4.5 4.5 0 109 4.5 4.5 4.5 0 004.5 0z" fill="#e6007a"/><ellipse cx="4.5" cy="2.37" rx=".972" ry=".565" fill="#e6007a"/><ellipse cx="4.5" cy="6.63" rx=".972" ry=".565" fill="#e6007a"/><ellipse cx="2.656" cy="3.435" rx=".972" ry=".566" transform="rotate(-59.999 2.656 3.435)" fill="#e6007a"/><ellipse cx="6.344" cy="5.565" rx=".972" ry=".565" transform="rotate(-59.999 6.344 5.565)" fill="#e6007a"/><ellipse cx="2.656" cy="5.565" rx=".566" ry=".972" transform="rotate(-30.001 2.656 5.565)" fill="#e6007a"/><ellipse cx="6.344" cy="3.436" rx=".565" ry=".972" transform="rotate(-30.001 6.344 3.436)" fill="#e6007a"/></svg>