<svg xmlns="http://www.w3.org/2000/svg" viewBox="0 0 9 9"><circle cx="4.5" cy="4.5" r="4.5"/><path d="M1.804 5.863c-.038-.095-.038-.094.055-.143l1.082-.567a.323.323 0 01.11-.072c.2-.1.395-.21.595-.31.129-.067.257-.134.384-.204a1.01 1.01 0 00.094-.046c.013-.006.032-.01.031-.027s-.02-.02-.033-.026c-.125-.066-.25-.133-.376-.198l-1.12-.584c-.232-.12-.462-.245-.695-.363-.05-.026-.097-.056-.147-.081-.014-.01-.025-.023-.017-.042.125-.235.253-.47.376-.706.022-.042.038-.049.083-.031q1.08.43 2.163.859a.29.29 0 00.224-.002l2.004-.795c.053-.02.108-.038.159-.064.04-.02.057-.007.075.028.117.224.236.446.354.668.008.015.017.028.026.042.013.02 0 .03-.013.041a.436.436 0 01-.042.023 2.879 2.879 0 00-.11.056c-.338.181-.679.356-1.017.535-.177.093-.356.185-.533.279-.219.114-.439.225-.655.343a.056.056 0 00-.025.02c.04.032.09.046.13.076.077.043.16.075.234.122.084.046.172.084.254.133.172.089.344.177.514.269a.093.093 0 01.047.036l.478.252.658.346c.082.043.083.042.047.123a.453.453 0 01-.06.135 17.14 17.14 0 00-.2.38 1.06 1.06 0 00-.065.121c-.034.066-.048.072-.117.045l-1.14-.451c-.332-.132-.665-.262-.996-.396a.305.305 0 00-.24 0l-1.56.618c-.2.079-.397.159-.597.236a.059.059 0 01-.087-.033c-.037-.068-.071-.137-.109-.205l-.208-.388a.086.086 0 01-.015-.052z" fill="#24f7dd"/></svg>