<svg xmlns="http://www.w3.org/2000/svg" xmlns:xlink="http://www.w3.org/1999/xlink" viewBox="0 0 9 9"><defs><linearGradient id="f160335c-e820-4769-a5da-fe72032eb84c" x1="-26.655" y1="-274.576" x2="-19.078" y2="-279.433" gradientTransform="rotate(180 -9.377 -136.128)" gradientUnits="userSpaceOnUse"><stop offset="0" stop-color="#52d4ff"/><stop offset=".008" stop-color="#52d3ff"/><stop offset=".35" stop-color="#5297ff"/><stop offset=".641" stop-color="#516bff"/><stop offset=".867" stop-color="#5150ff"/><stop offset="1" stop-color="#5146ff"/></linearGradient><linearGradient id="a2416857-0f03-41df-8182-19b8124d722c" x1="10.48" y1="754.602" x2="8.38" y2="752.326" gradientTransform="matrix(1 0 0 -1 -6 756.28)" gradientUnits="userSpaceOnUse"><stop offset=".58" stop-color="#a0a8d4"/><stop offset=".73" stop-color="#8791c7"/><stop offset=".91" stop-color="#6470b4"/></linearGradient><linearGradient id="a4965981-3c57-46ae-ae35-7d4ae0086f97" x1="10.524" y1="748.952" x2="12.623" y2="751.226" xlink:href="#a2416857-0f03-41df-8182-19b8124d722c"/><linearGradient id="fe6321c9-deb2-442f-8a61-3ec072cd48ae" x1="10.5" y1="754.699" x2="10.5" y2="748.867" gradientTransform="matrix(1 0 0 -1 -6 756.28)" gradientUnits="userSpaceOnUse"><stop offset="0" stop-color="#513eff"/><stop offset=".18" stop-color="#5157ff"/><stop offset=".57" stop-color="#5298ff"/><stop offset="1" stop-color="#52e5ff"/></linearGradient></defs><circle cx="4.5" cy="4.5" r="4.275" fill="#f9fafb"/><path d="M4.5.35A4.15 4.15 0 11.35 4.5 4.155 4.155 0 014.5.35m0-.35A4.5 4.5 0 109 4.5 4.5 4.5 0 004.5 0z" fill="url(#f160335c-e820-4769-a5da-fe72032eb84c)"/><path d="M2.57 3.953c.057.122.2.365.2.365l1.636-2.709-1.593 1.115a.768.768 0 00-.23.25 1.171 1.171 0 00-.013.98z" fill="url(#a2416857-0f03-41df-8182-19b8124d722c)"/><path d="M1.927 4.84a1.825 1.825 0 00.714 1.322L4.406 7.39S3.3 5.797 2.37 4.21a1.58 1.58 0 01-.186-.543.777.777 0 010-.258c-.021.043-.071.136-.071.136a2.278 2.278 0 00-.193.615 3.07 3.07 0 00.007.678z" fill="#a0a8d4"/><path d="M6.428 5.054c-.057-.122-.2-.365-.2-.365L4.592 7.391l1.6-1.108a.767.767 0 00.23-.25 1.171 1.171 0 00.006-.98z" fill="url(#a4965981-3c57-46ae-ae35-7d4ae0086f97)"/><path d="M7.079 4.16a1.825 1.825 0 00-.715-1.322L4.6 1.61s1.108 1.594 2.037 3.18a1.58 1.58 0 01.186.544.782.782 0 010 .257c.021-.043.071-.136.071-.136a2.316 2.316 0 00.193-.607 4.404 4.404 0 00-.007-.686z" fill="#a0a8d4"/><path d="M2.584 2.974a.698.698 0 01.229-.25L4.406 1.61 2.77 4.311s-.143-.243-.2-.365a1.156 1.156 0 01.014-.972zM1.927 4.84a1.825 1.825 0 00.714 1.323L4.406 7.39S3.3 5.797 2.37 4.21a1.58 1.58 0 01-.186-.543.777.777 0 010-.258c-.021.043-.071.136-.071.136a2.278 2.278 0 00-.193.615 3.07 3.07 0 00.007.678zm4.502.215c-.058-.122-.2-.365-.2-.365L4.591 7.391l1.6-1.108a.767.767 0 00.23-.25 1.171 1.171 0 00.007-.98zm.643-.886a1.825 1.825 0 00-.715-1.322L4.6 1.609s1.108 1.594 2.037 3.18a1.58 1.58 0 01.186.544.782.782 0 010 .257c.021-.043.071-.136.071-.136a2.316 2.316 0 00.193-.607 3.583 3.583 0 00-.014-.68z" fill="url(#fe6321c9-deb2-442f-8a61-3ec072cd48ae)"/></svg>