<svg xmlns="http://www.w3.org/2000/svg" viewBox="0 0 9 9"><defs><linearGradient id="3846d9ae-d0cd-4faa-b49d-35b784245ebc" x1="-310.258" y1="8.368" x2="-301.258" y2="8.368" gradientTransform="scale(1 -1) rotate(45 -135.097 376.453)" gradientUnits="userSpaceOnUse"><stop offset="0" stop-color="#23324b"/><stop offset="1" stop-color="#415069"/></linearGradient></defs><circle cx="4.5" cy="4.5" r="4.275" fill="#f9fafb"/><path d="M1.565 1.565a4.15 4.15 0 110 5.87 4.15 4.15 0 010-5.87m-.247-.247a4.5 4.5 0 106.364 0 4.5 4.5 0 00-6.364 0z" fill="url(#3846d9ae-d0cd-4faa-b49d-35b784245ebc)"/><path d="M6.896 6.313l-.788-3.028a.16.16 0 00-.027-.056L4.626 1.313a.159.159 0 00-.252-.001L2.902 3.229a.156.156 0 00-.027.057l-.771 3.028a.157.157 0 00.076.176l2.243 1.24a.159.159 0 00.154 0L6.82 6.49a.157.157 0 00.076-.177zm-.561-.901l-.601-.95.2-.589zM4.658 1.877l1.12 1.476-.261.766-.858-1.356zM4.5 3.104l.886 1.4-.576 1.69h-.625l-.578-1.678zm-.158-1.231v.89l-.868 1.37-.269-.78zM3.05 3.875l.207.6-.602.952zm.339.983l.46 1.337H2.544zM2.868 6.51h1.091l.258.746zm1.631.595l-.205-.595h.408zm.283.152l.254-.747h1.096zm.361-1.062l.46-1.348.853 1.348z" fill="#23324b"/></svg>