<svg xmlns="http://www.w3.org/2000/svg" viewBox="0 0 9 9"><circle cx="4.5" cy="4.5" r="4.275" fill="#f9fafb"/><path d="M4.5.35A4.15 4.15 0 11.35 4.5 4.155 4.155 0 014.5.35m0-.35A4.5 4.5 0 109 4.5 4.5 4.5 0 004.5 0z" fill="#202944"/><path d="M2.085 2.046v4.908h4.83V2.046zm1.688.57h.452v.47h-.451zm-1.138 0h.471v.47h-.471zm.451 1.138v.471h-.47v-.471zM2.97 6.346h-.197v-.177h.177v.177zm.137-.943h-.471v-.451h.471zm1.001.943h-.176v-.177h.176zm0-1.1h-.176V5.07h.176zm.138-1.001h-.472v-.472h.472zm1.001 2.1H5.07V6.17h.177zm0-1.099H5.07V5.07h.177zm0-1.158H5.07V3.91h.177zm.157-1.002h-.471v-.47h.471zm1.002 3.26h-.177v-.177h.177zm0-1.1h-.177V5.07h.177zm0-1.158h-.177V3.91h.177zm0-1.14h-.177v-.176h.177z" fill="#202944"/></svg>