<svg xmlns="http://www.w3.org/2000/svg" viewBox="0 0 9 9"><path id="b67a064d-9c0d-4613-80a7-b3b536c80b77" d="M4.53 0A4.5 4.5 0 110 4.5 4.5 4.5 0 014.53 0z" fill="#2b61d1"/><path id="ee1506e9-99ab-4f9b-a4a8-d21640f6547e" d="M5.067 7.113l-.516.298-1.109-.64.504-.29.012-.007.02.011z" fill="#fff"/><path id="b45b5d32-18a0-4651-9e10-796a0b2d5f3f" d="M7.048 3.087v.6l-1.091-.63-.296-.171-.296.17-1.387.802-.296.17v.355l-.534-.308-.296-.171-.296.17-.502.29V3.088l2.497-1.442z" fill="#fff"/><path id="b5711feb-1749-4b95-8cd4-157497e6948e" d="M7.048 4.37v1.602l-1.387.8h-.002l-1.385-.8V4.369l1.387-.801z" fill="#fff"/><path id="b9942a54-70bc-496e-8938-0d7e37371d18" d="M3.65 5.047v.92l-.798.461-.797-.46v-.921l.797-.46z" fill="#fff"/></svg>