<svg xmlns="http://www.w3.org/2000/svg" viewBox="0 0 9 9"><circle id="a3505c01-55f9-4cce-b490-821636bdcdaa" cx="4.5" cy="4.5" r="4.5"/><path id="f8b30eb4-9dc7-472b-b507-deb102547bcc" d="M2.699 2.184l-.273.272.345.345.345.345-.028.084a.956.956 0 00-.052.326 1.052 1.052 0 00.58.942 3.309 3.309 0 00.689.246 4.43 4.43 0 01.748.219.401.401 0 01.254.263.587.587 0 01-.001.218.571.571 0 01-.286.336 1.203 1.203 0 01-.763.063.874.874 0 01-.287-.14.923.923 0 01-.283-.519l-.015-.065a27.8 27.8 0 00-.777.076.236.236 0 00.005.07 1.903 1.903 0 00.155.525l.04.084-.335.335-.334.335.274.273.273.272.345-.345.345-.345.06.025a2.497 2.497 0 001.243.107 2.102 2.102 0 00.353-.084l.05-.018.33.33.33.33.272-.272.273-.274-.306-.306-.306-.306L6 5.853a1.086 1.086 0 00.12-.484 1.1 1.1 0 00-.292-.849 2.14 2.14 0 00-1.166-.517c-.493-.124-.705-.209-.79-.316a.307.307 0 01-.018-.36.538.538 0 01.26-.167 1.36 1.36 0 01.5-.046.574.574 0 01.576.492l.018.072c0 .002.547-.018.71-.026l.094-.004-.005-.066a1.29 1.29 0 00-.085-.376l-.027-.07.34-.34.34-.34-.273-.273-.274-.272-.343.343-.344.344-.084-.032a2.03 2.03 0 00-.697-.119 2.071 2.071 0 00-.816.12l-.08.033-.346-.345-.346-.344z" fill="#fff"/></svg>