<svg xmlns="http://www.w3.org/2000/svg" viewBox="0 0 9 9"><defs><linearGradient id="bfd68210-0047-4237-a3f9-bf5cbba46831" x1="-89.866" y1="-126.127" x2="-82.288" y2="-130.984" gradientTransform="rotate(180 -40.983 -61.903)" gradientUnits="userSpaceOnUse"><stop offset="0" stop-color="#324664"/><stop offset="1"/></linearGradient></defs><circle cx="4.5" cy="4.5" r="4.275" fill="#f9fafb"/><path d="M4.5.35A4.15 4.15 0 11.35 4.5 4.155 4.155 0 014.5.35m0-.35A4.5 4.5 0 109 4.5 4.5 4.5 0 004.5 0z" fill="url(#bfd68210-0047-4237-a3f9-bf5cbba46831)"/><path d="M7.026 3.137v2.717c-.737.515-1.685.902-2.38 1.472v-.458c.642-.419 1.32-.808 1.988-1.23V3.806c-.552.348-1.124.625-1.649.976V5.4l-.339.167V4.51zm-2.661 1.37v2.78L1.974 5.842V3.126l.385.229v2.272L4.01 6.639v-1.9l-.55-.317v-.435zm2.508-1.565l-.383.23-.394-.218-1.587-.859-1.603.861 1.603.916.12-.07.123-.067.273-.156.4.204-.174.1-.632.367-.119.07-2.37-1.375a62.181 62.181 0 012.364-1.271c.687.316 1.319.698 1.98 1.06.136.071.266.14.399.208z" fill="#010101"/></svg>