<svg xmlns="http://www.w3.org/2000/svg" viewBox="0 0 9 9"><defs><linearGradient id="b343c2c4-174f-424e-85a7-247d2b201097" x1="-151.827" y1="-174.651" x2="-144.249" y2="-179.508" gradientTransform="rotate(180 -71.963 -86.165)" gradientUnits="userSpaceOnUse"><stop offset="0" stop-color="#53cbc8"/><stop offset=".182" stop-color="#74a1b6"/><stop offset=".464" stop-color="#a2659d"/><stop offset=".704" stop-color="#c4398b"/><stop offset=".89" stop-color="#d91e7f"/><stop offset="1" stop-color="#e1147b"/></linearGradient></defs><circle cx="4.5" cy="4.5" r="4.275" fill="#f9fafb"/><path d="M4.5.35A4.15 4.15 0 11.35 4.5 4.155 4.155 0 014.5.35m0-.35A4.5 4.5 0 109 4.5 4.5 4.5 0 004.5 0z" fill="url(#b343c2c4-174f-424e-85a7-247d2b201097)"/><path d="M6.436 4.01H2.642a1.897 1.897 0 113.794 0z" fill="#53cbc8"/><rect x="2.322" y="4.313" width="4.628" height=".248" rx=".116" fill="#e1147b"/><rect x="1.659" y="4.827" width="3.435" height=".248" rx=".116" fill="#e1147b"/><rect x="2.428" y="5.364" width="3.985" height=".248" rx=".116" fill="#e1147b"/><rect x="4.223" y="5.897" width="2.727" height=".248" rx=".116" fill="#e1147b"/><circle cx="2.047" cy="4.436" r=".122" fill="#e1147b"/><rect x="3.255" y="6.429" width="2.884" height=".248" rx=".116" fill="#e1147b"/><circle cx="2.924" cy="6.553" r=".122" fill="#e1147b"/><circle cx="3.939" cy="6.021" r=".122" fill="#e1147b"/></svg>