<svg xmlns="http://www.w3.org/2000/svg" viewBox="0 0 9 9"><circle cx="4.5" cy="4.5" r="4.5" fill="#d8b45c"/><path d="M4.5.945A3.555 3.555 0 11.945 4.5 3.559 3.559 0 014.5.945m0-.3A3.855 3.855 0 108.355 4.5 3.855 3.855 0 004.5.645z" fill="#221f20"/><rect x="2.711" y="3.165" width=".3" height="2.668" rx=".13" fill="#221f20"/><rect x="5.978" y="4.302" width=".3" height="1.531" rx=".13" fill="#221f20"/><path d="M4.131 2.257v.91h-.296v-.91a.148.148 0 11.296 0zm1.026 0v.91h-.301v-.91a.155.155 0 01.152-.153.151.151 0 01.149.153zM4.86 6.743v-.91h.296v.91a.148.148 0 11-.296 0zm-1.025 0v-.91h.3v.91a.155.155 0 01-.152.152.151.151 0 01-.148-.152z" fill="#221f20"/><rect x="4.35" y="1.526" width=".3" height="3.578" rx=".13" transform="rotate(-90 4.5 3.315)" fill="#221f20"/><rect x="4.345" y="3.899" width=".3" height="3.568" rx=".13" transform="rotate(-90 4.495 5.683)" fill="#221f20"/><rect x="4.903" y="3.228" width=".3" height="2.449" rx=".13" transform="rotate(-90 5.053 4.452)" fill="#221f20"/></svg>