<svg xmlns="http://www.w3.org/2000/svg" viewBox="0 0 9 9"><circle cx="4.5" cy="4.5" r="4.275" fill="#f9fafb"/><path d="M4.5.35A4.15 4.15 0 11.35 4.5 4.155 4.155 0 014.5.35m0-.35A4.5 4.5 0 109 4.5 4.5 4.5 0 004.5 0z" fill="#00a6c4"/><path id="a4a1dd86-dd18-4497-99c9-a53058ea539b" d="M6.68 3.08l-.198.191a.912.912 0 01.1.829.987.987 0 01-1.249.571.92.92 0 01-.198-.096L4.5 5.19l-.554-.54a1.04 1.04 0 01-.896.11.958.958 0 01-.605-1.235l.001-.005a.888.888 0 01.113-.214l-.239-.231-.045.074a2.48 2.48 0 00.865 3.472 2.671 2.671 0 001.356.37H4.5A2.566 2.566 0 007.108 4.47a2.465 2.465 0 00-.378-1.311z" fill="#00a6c4"/><path id="e995f89e-3e5b-4c62-900e-4b48ceaadf14" d="M2.852 3.59a.512.512 0 00-.108.314.533.533 0 00.855.406z" fill="#00a6c4"/><path id="fd55a17c-a36c-4abb-8c7b-ac27445fcaf0" d="M5.46 4.266a.536.536 0 00.829-.428.498.498 0 00-.09-.288z" fill="#00a6c4"/><path id="bc1c2f85-9e62-4369-8770-9d828fc0963b" d="M4.51 4.806L2.355 2.713l.086-.087a2.823 2.823 0 012.036-.85h.004a2.837 2.837 0 012.072.894l.081.087zM2.707 2.713l1.801 1.749 1.78-1.714a2.598 2.598 0 00-1.802-.728h-.005a2.566 2.566 0 00-1.775.693z" fill="#00a6c4"/></svg>