<svg xmlns="http://www.w3.org/2000/svg" viewBox="0 0 9 9"><circle cx="4.5" cy="4.5" r="4.275" fill="#fff"/><path d="M1.565 1.565a4.15 4.15 0 110 5.87 4.155 4.155 0 010-5.87m-.247-.247a4.5 4.5 0 106.364 0 4.5 4.5 0 00-6.364 0z" fill="#e31337"/><path d="M5.663 4.802a.025.025 0 01.022.026l-.002.009-1.15 1.99a.024.024 0 01-.02.011h-.704a.023.023 0 01-.023-.023.024.024 0 01.003-.012l1.15-1.99a.023.023 0 01.02-.012zm-.684-.57a.024.024 0 01-.02-.012l-1.17-2.023a.023.023 0 01.008-.032.023.023 0 01.012-.003h.703a.025.025 0 01.02.012l1.17 2.023a.023.023 0 01-.02.035z" fill="#e31337"/><path d="M5.118 2.197a.023.023 0 01.008-.032.022.022 0 01.013-.003h.705a.023.023 0 01.02.012l1.34 2.315a.023.023 0 010 .023l-1.34 2.314a.023.023 0 01-.02.012h-.705a.023.023 0 01-.02-.035L6.452 4.5zm-.573 2.291a.025.025 0 010 .025L3.198 6.826a.025.025 0 01-.034.007l-.006-.007-1.362-2.314a.025.025 0 010-.025l1.347-2.313a.025.025 0 01.034-.007l.006.007z" fill="#e31337"/></svg>