<svg xmlns="http://www.w3.org/2000/svg" viewBox="0 0 9 9"><path d="M4.5 0A4.5 4.5 0 110 4.5 4.5 4.5 0 014.5 0" fill="#5546ff" fill-rule="evenodd"/><path d="M2.37 5.726c.045 0 .093.002.138 0a1.438 1.438 0 00.256-.047 1.286 1.286 0 00.456-.235c.039-.031.077-.065.114-.1A1.199 1.199 0 003.64 4.8l.004-.022h-.338a.945.945 0 01-.208-.024.059.059 0 00-.02-.005l-.008-.006c.02-.045.037-.087.054-.131l.131-.313a.15.15 0 01.02-.042.048.048 0 01.034-.013c.105-.003.209 0 .314 0h.028c-.004-.018-.004-.032-.008-.047a1.155 1.155 0 00-.198-.413 1.548 1.548 0 00-.149-.168 1.11 1.11 0 00-.222-.167 1.48 1.48 0 00-.262-.12 1.362 1.362 0 00-.233-.053c-.062-.007-.123-.009-.185-.013a.313.313 0 01-.045-.005.02.02 0 01-.013-.013l-.065-.151-.075-.177c-.02-.05-.04-.096-.062-.147l.045-.013a1.558 1.558 0 01.288-.013 2.01 2.01 0 01.457.068 2.119 2.119 0 01.28.1 1.878 1.878 0 01.36.207 3.516 3.516 0 01.21.175 1.886 1.886 0 01.283.36 1.573 1.573 0 01.176.42c.013.05.022.1.032.15a.019.019 0 00.018.013h.437a2.02 2.02 0 00.021-.107 1.75 1.75 0 01.103-.3 1.303 1.303 0 01.127-.228 2.38 2.38 0 01.145-.189 1.378 1.378 0 01.122-.13 1.969 1.969 0 01.292-.226 1.788 1.788 0 01.338-.17c.082-.028.164-.055.245-.077a1.761 1.761 0 01.188-.035 1.86 1.86 0 01.159-.018c.034-.002.067-.004.101-.004.052 0 .101-.003.15 0a1.17 1.17 0 01.15.022l.006.006-.037.089a26.48 26.48 0 01-.161.384c-.01.022-.03.013-.046.018a.102.102 0 01-.036 0 1.506 1.506 0 00-.399.06 1.466 1.466 0 00-.236.093 1.456 1.456 0 00-.358.264 1.218 1.218 0 00-.198.27 1.347 1.347 0 00-.103.26l-.004.023h.023c.112 0 .226-.003.338 0a.608.608 0 01.198.033l.007.004-.063.147c-.043.104-.088.208-.13.315-.014.03-.022.038-.057.038h-.314c.009.03.015.057.024.084a1.098 1.098 0 00.127.264 1.607 1.607 0 00.103.137.76.76 0 00.069.076 1.271 1.271 0 00.267.204 1.396 1.396 0 00.26.12 1.103 1.103 0 00.27.06l.17.013c.02.003.042.003.064.005a.021.021 0 01.01.009l.112.266.093.217a.618.618 0 01-.088.016 3.654 3.654 0 01-.222.009 1.473 1.473 0 01-.198-.016 3.77 3.77 0 01-.267-.049 1.988 1.988 0 01-.31-.106 1.86 1.86 0 01-.34-.195 4.53 4.53 0 01-.164-.131 1.025 1.025 0 01-.099-.096 1.785 1.785 0 01-.331-.488 1.512 1.512 0 01-.108-.335.208.208 0 01-.008-.036c0-.022-.01-.027-.03-.027H4.26a1.676 1.676 0 01-.103.35 1.408 1.408 0 01-.145.271 2.424 2.424 0 01-.144.189 1.122 1.122 0 01-.12.128c-.067.06-.138.116-.21.171a1.7 1.7 0 01-.27.162 1.892 1.892 0 01-.353.131 2.293 2.293 0 01-.407.067.987.987 0 01-.114 0c-.056 0-.112-.003-.166-.005a.53.53 0 01-.058-.008c-.01-.002-.015-.007-.009-.02l.132-.306c.025-.063.049-.12.077-.184z" fill="#fff"/></svg>