<svg xmlns="http://www.w3.org/2000/svg" viewBox="0 0 9 9"><defs><linearGradient id="ff3aeaab-8ec9-46f1-b2e6-b1e032d74b49" x1="293.931" y1="245.837" x2="293.962" y2="245.863" gradientTransform="matrix(60.08 0 0 47.2 -17654.16 -11599.855)" gradientUnits="userSpaceOnUse"><stop offset=".21" stop-color="#f15a24"/><stop offset=".68" stop-color="#fbb03b"/></linearGradient><linearGradient id="f4315267-dab4-479d-83df-0e288ee06c2a" x1="294.906" y1="245.68" x2="294.875" y2="245.654" gradientTransform="matrix(60.09 0 0 47.23 -17717.154 -11598.131)" gradientUnits="userSpaceOnUse"><stop offset=".21" stop-color="#ed1e79"/><stop offset=".89" stop-color="#522785"/></linearGradient></defs><circle cx="4.5" cy="4.5" r="4.5" fill="#060810"/><path id="a70bae4f-77c1-43a3-b89e-b339a3c41bf3" d="M6.74 4.5a.826.826 0 00-.81-.841 1.044 1.044 0 00-.646.359 4.423 4.423 0 00-.423.467c.174.197.362.404.448.482a2.43 2.43 0 00.541.362.345.345 0 00.08.011.83.83 0 00.81-.84z" fill="none"/><path id="a4c844e1-cda4-4985-9545-1f1a16eb8571" d="M5.298 4.979a1.318 1.318 0 00.552.351.339.339 0 00.079.01.842.842 0 000-1.682 1.043 1.043 0 00-.646.359 4.383 4.383 0 00-.423.468 4.712 4.712 0 00.438.494z" fill="none"/><path id="a60b6eac-fa13-4207-9efe-93debbd400f3" d="M5.929 3.104a1.56 1.56 0 00-1.007.503 4.27 4.27 0 00-.424.462s.174.202.367.417a4.13 4.13 0 01.42-.469 1.042 1.042 0 01.646-.359.842.842 0 010 1.683.34.34 0 01-.079-.011.989.989 0 00.404.103.919.919 0 00.99-.61 1.421 1.421 0 00.037-.326 1.38 1.38 0 00-1.354-1.393z" fill="url(#ff3aeaab-8ec9-46f1-b2e6-b1e032d74b49)"/><path id="bc25375a-cc41-453c-8aa5-4a5044ed6f61" d="M2.26 4.5a.827.827 0 00.81.842 1.045 1.045 0 00.645-.36 4.396 4.396 0 00.424-.469 8.788 8.788 0 00-.448-.482 2.417 2.417 0 00-.543-.362.328.328 0 00-.078-.01.833.833 0 00-.81.841z" fill="none"/><path id="a6bedb22-2975-466d-9abb-6215edd33653" d="M3.698 4.022a1.317 1.317 0 00-.552-.35.338.338 0 00-.079-.01.815.815 0 00-.809.821.82.82 0 00.772.861h.037a1.046 1.046 0 00.646-.359 4.468 4.468 0 00.423-.47l.008-.01a4.64 4.64 0 00-.446-.482z" fill="none"/><path id="ecc3d291-2262-4a8f-8e57-8fdd71869216" d="M3.07 5.9a1.557 1.557 0 001.007-.503 4.244 4.244 0 00.426-.464s-.174-.202-.366-.417a4.191 4.191 0 01-.424.47 1.044 1.044 0 01-.645.358.842.842 0 010-1.682.338.338 0 01.078.01.993.993 0 00-.404-.103.916.916 0 00-.987.609 1.416 1.416 0 00-.037.325A1.377 1.377 0 003.07 5.9z" fill="url(#f4315267-dab4-479d-83df-0e288ee06c2a)"/><path id="bfaeb89d-b631-4332-ba7a-08d067aa3933" d="M6.252 5.42a1.694 1.694 0 01-.944-.451c-.229-.226-.76-.839-.8-.888-.39-.462-.916-.98-1.437-.98a1.371 1.371 0 00-1.315 1.075.956.956 0 01.99-.6 1.703 1.703 0 01.946.456c.228.225.76.839.8.888.389.461.914.98 1.437.98a1.37 1.37 0 001.313-1.073.957.957 0 01-.99.593z" fill="#29abe2"/></svg>