<svg xmlns="http://www.w3.org/2000/svg" viewBox="0 0 9 9"><defs><linearGradient id="eb3eb638-d052-4884-8df8-2dceb02c221a" x1="4.471" y1="9.039" x2="4.529" y2=".039" gradientUnits="userSpaceOnUse"><stop offset="0" stop-color="#3423a6"/><stop offset=".466" stop-color="#4c1b96"/><stop offset="1" stop-color="#631486"/></linearGradient></defs><circle cx="4.5" cy="4.5" r="4.5" fill="url(#eb3eb638-d052-4884-8df8-2dceb02c221a)"/><path d="M5.7 7.182l-.043-.023-.795-.62a.066.066 0 01-.023-.09l.006-.01a.578.578 0 01.07-.088.454.454 0 00.108-.299v-4.27a.069.069 0 010-.049.56.56 0 00.016.164 7.143 7.143 0 00.2 1.176 2.325 2.325 0 00.384.822.04.04 0 010 .046.74.74 0 00-.197.463 4 4 0 00.017.456v1.255A2.628 2.628 0 005.68 7.13a.2.2 0 000 .04s.023-.01.02.012zm-1.742-5.44v.28c0 1.274 0 2.552.023 3.826v.214a.417.417 0 00.096.273.578.578 0 01.079.102.062.062 0 01-.007.088l-.01.007-.781.627a.115.115 0 01-.056.03.12.12 0 010-.033 2.742 2.742 0 00.23-.768 3.16 3.16 0 00.02-.467V4.718a1.662 1.662 0 00-.06-.476.6.6 0 00-.16-.289c0-.016-.023-.03 0-.05a2.585 2.585 0 00.476-1.165c.056-.329.089-.634.131-.953v-.046zm-.49 5.525l.036-.03.937-.735c.062-.05.075-.05.134 0 .329.243.625.486.94.726a.095.095 0 01.03.04l-.043-.017a2.813 2.813 0 00-.732-.289 1.203 1.203 0 00-.657.033 3.452 3.452 0 00-.618.266h-.03zm1.049-4.943c.036 1.07.036 2.141 0 3.219-.027-.197-.03-2.858 0-3.22z" fill="#fff"/></svg>