<svg xmlns="http://www.w3.org/2000/svg" viewBox="0 0 9 9"><defs><clipPath id="a4516e08-d5ae-40d3-ab06-2f02e811d6ca"><path fill="none" d="M1.763 2.275h5.474v4.45H1.763z"/></clipPath></defs><circle cx="4.5" cy="4.5" r="4.5" fill="#060810"/><g clip-path="url(#a4516e08-d5ae-40d3-ab06-2f02e811d6ca)" fill="#17b5cb"><path d="M6.65 2.275h.575L4.894 4.937a.185.185 0 00-.004.24l1.343 1.564h-.599l-1.24-1.45-.063-.078a.185.185 0 01.004-.24z"/><path d="M5.355 5.177a.185.185 0 01-.04-.161.251.251 0 01.055-.087l.154-.169 1.713 1.98h-.543l-1.34-1.563zM2.362 6.74h-.599l1.835-2.122a.18.18 0 000-.236l-1.82-2.107h.576l1.831 2.123a.172.172 0 01.004.212c-.48.555-1.827 2.13-1.827 2.13zm1-4.465H2.81L4.508 4.24l.193-.228a.133.133 0 00.004-.193c-.355-.363-1.343-1.544-1.343-1.544zm1.654 1.37l1.177-1.37h-.559l-.614.717-.177.208a.185.185 0 00-.004.24c.043.052.177.205.177.205zM3.992 5.37L2.815 6.74h.555l.614-.717.178-.208a.185.185 0 00.004-.24z"/></g></svg>