<svg xmlns="http://www.w3.org/2000/svg" xmlns:xlink="http://www.w3.org/1999/xlink" viewBox="0 0 9 9"><defs><linearGradient id="a1150989-8486-45ff-a00a-7ab1fc78c88c" x1="2.441" y1="565.075" x2="4.823" y2="560.949" gradientTransform="translate(0 -558)" gradientUnits="userSpaceOnUse"><stop offset="0" stop-color="#174e5b"/><stop offset=".07" stop-color="#195a6c"/><stop offset=".21" stop-color="#1e779a"/><stop offset=".4" stop-color="#27a7e3"/><stop offset=".47" stop-color="#2abaff"/><stop offset=".7" stop-color="#1ddaf0"/><stop offset="1" stop-color="#0effe0"/></linearGradient><linearGradient id="ff7d4b05-29bc-4274-b95d-7d2ba413fe54" x1="6.538" y1="559.923" x2="4.156" y2="564.048" xlink:href="#a1150989-8486-45ff-a00a-7ab1fc78c88c"/></defs><path id="b507972a-ddf0-497d-9c7d-f4d3281b3f94" d="M4.5 0A4.5 4.5 0 110 4.5 4.5 4.5 0 014.5 0z" fill="#061128"/><path d="M2.853 6.854a2.976 2.976 0 002.434.778.056.056 0 00.032-.015c.016-.016.016-.016.016-.032v-.048c.032 0 .032-.016.016-.032s-.032-.032-.048-.032a3.494 3.494 0 01-1.05-.397 2.06 2.06 0 01-1.128-1.67 1.756 1.756 0 01.159-.747c.063-.16.445-.7.493-.795.254-.398.174-.366-.191-.86l-.51-.746-.333-.509a4.877 4.877 0 00-.557.445 3.28 3.28 0 00-.779 1.272 3.34 3.34 0 00-.143 1.48 3.157 3.157 0 00.54 1.383A3.303 3.303 0 002.903 7.33a2.918 2.918 0 01-1.224-3.339 3.171 3.171 0 01.508-.938l.366.54a.23.23 0 01.032.112.295.295 0 01-.032.111 2.554 2.554 0 00-.413.732 2.201 2.201 0 00.714 2.305" fill="url(#a1150989-8486-45ff-a00a-7ab1fc78c88c)"/><path d="M3.633 1.495c.016.016.032.032.048.032a3.494 3.494 0 011.05.397 2.06 2.06 0 011.129 1.67 1.756 1.756 0 01-.159.747c-.064.159-.445.7-.493.795-.254.398-.175.366.19.859l.51.747.35.509a4.877 4.877 0 00.556-.445 3.28 3.28 0 00.78-1.272 3.34 3.34 0 00.143-1.48 3.157 3.157 0 00-.541-1.383A3.303 3.303 0 006.098 1.67a2.888 2.888 0 011.208 3.339 3.171 3.171 0 01-.508.938l-.366-.54a.23.23 0 01-.032-.112.295.295 0 01.032-.111 2.556 2.556 0 00.413-.732c.477-1.383-.81-2.814-2.162-3.053a2.934 2.934 0 00-.986-.031.056.056 0 00-.032.015c-.032 0-.048.016-.048.032v.048a.05.05 0 00.016.032z" fill="url(#ff7d4b05-29bc-4274-b95d-7d2ba413fe54)"/></svg>