<svg xmlns="http://www.w3.org/2000/svg" viewBox="0 0 9 9"><circle cx="4.5" cy="4.5" r="4.275" fill="#f9fafb"/><path d="M4.5.35A4.15 4.15 0 11.35 4.5 4.155 4.155 0 014.5.35m0-.35A4.5 4.5 0 109 4.5 4.5 4.5 0 004.5 0z"/><path d="M4.5 1.288L1.718 2.894v3.212L4.5 7.712l2.782-1.606V2.894zm.057 5.202L2.422 5.273l.009-.592 2.125 1.216 1.024-.591-.687-.397-.257.149-.482-.277.258-.15-.337-.196-.204.119-.484-.277.206-.119-1.09-.628 2.053-1.185L6.492 3.45l-.52.302-1.416-.812-1.025.591.573.331.293-.17.484.277-.296.17.338.196.24-.14.483.276-.242.141 1.201.694L4.557 6.49z"/></svg>