<svg xmlns="http://www.w3.org/2000/svg" viewBox="0 0 9.002 9.002"><circle cx="4.501" cy="4.501" r="4.5" fill="#565656"/><circle cx="4.949" cy="5.062" r=".151" fill="#fff"/><circle cx="5.286" cy="4.749" r=".163" fill="#fff"/><circle cx="5.574" cy="4.304" r=".186" fill="#fff"/><circle cx="5.76" cy="3.702" r=".267" fill="#fff"/><circle cx="5.863" cy="2.97" r=".289" fill="#fff"/><circle cx="5.782" cy="2.119" r=".358" fill="#fff"/><circle cx="5.313" cy="5.375" r=".129" fill="#fff"/><circle cx="5.656" cy="5.18" r=".14" fill="#fff"/><circle cx="5.984" cy="4.867" r=".16" fill="#fff"/><circle cx="6.258" cy="4.402" r=".229" fill="#fff"/><circle cx="6.49" cy="3.812" r=".248" fill="#fff"/><circle cx="6.591" cy="3.087" r=".307" fill="#fff"/><circle cx="5.622" cy="5.698" r=".109" transform="rotate(-64.475 5.622 5.698)" fill="#fff"/><circle cx="5.94" cy="5.598" r=".118" fill="#fff"/><circle cx="6.266" cy="5.397" r=".135" fill="#fff"/><circle cx="6.576" cy="5.062" r=".194" fill="#fff"/><circle cx="6.872" cy="4.615" r=".209" fill="#fff"/><circle cx="7.084" cy="4.035" r=".259" fill="#fff"/><circle cx="4.982" cy="3.973" r=".151" fill="#fff"/><circle cx="4.542" cy="3.838" r=".163" fill="#fff"/><circle cx="4.013" cy="3.811" r=".186" fill="#fff"/><circle cx="3.398" cy="3.951" r=".267" fill="#fff"/><circle cx="2.713" cy="4.228" r=".289" fill="#fff"/><circle cx="2.017" cy="4.723" r=".358" fill="#fff"/><circle cx="5.072" cy="3.502" r=".129" fill="#fff"/><circle cx="4.731" cy="3.302" r=".14" fill="#fff"/><circle cx="4.296" cy="3.175" r=".16" fill="#fff"/><circle cx="3.756" cy="3.169" r=".229" fill="#fff"/><circle cx="3.129" cy="3.264" r=".248" fill="#fff"/><circle cx="2.451" cy="3.538" r=".307" fill="#fff"/><circle cx="5.196" cy="3.073" r=".109" fill="#fff"/><circle cx="4.95" cy="2.848" r=".118" fill="#fff"/><circle cx="4.614" cy="2.666" r=".135" fill="#fff"/><circle cx="4.168" cy="2.565" r=".194" fill="#fff"/><circle cx="3.634" cy="2.532" r=".209" fill="#fff"/><circle cx="3.025" cy="2.638" r=".259" fill="#fff"/><circle cx="4.028" cy="4.524" r=".151" fill="#fff"/><circle cx="4.131" cy="4.973" r=".163" fill="#fff"/><circle cx="4.372" cy="5.444" r=".186" fill="#fff"/><circle cx="4.801" cy="5.907" r=".267" fill="#fff"/><circle cx="5.383" cy="6.362" r=".289" fill="#fff"/><circle cx="6.16" cy="6.717" r=".358" fill="#fff"/><circle cx="3.575" cy="4.682" r=".129" fill="#fff"/><circle cx="3.572" cy="5.077" r=".14" fill="#fff"/><circle cx="3.679" cy="5.518" r=".16" fill="#fff"/><circle cx="3.945" cy="5.988" r=".229" fill="#fff"/><circle cx="4.34" cy="6.484" r=".248" fill="#fff"/><circle cx="4.917" cy="6.934" r=".307" fill="#fff"/><circle cx="3.142" cy="4.789" r=".109" transform="rotate(-34.477 3.142 4.789)" fill="#fff"/><circle cx="3.069" cy="5.114" r=".118" fill="#fff"/><circle cx="3.08" cy="5.497" r=".135" fill="#fff"/><circle cx="3.215" cy="5.933" r=".194" fill="#fff"/><circle cx="3.454" cy="6.412" r=".209" fill="#fff"/><circle cx="3.851" cy="6.886" r=".259" fill="#fff"/></svg>