<svg xmlns="http://www.w3.org/2000/svg" viewBox="0 0 9 9"><circle cx="4.5" cy="4.5" r="4.5" fill="#00d4d5"/><path d="M4.54 1.884v1.305l1.133-.652z" fill="#fff"/><path d="M5.673 2.537v1.305l1.133-.653z" style="isolation:isolate" fill="#fff" opacity=".9"/><path d="M4.54 3.189v1.305l1.133-.652zm1.133.653v1.305l1.133-.653zm-1.133.652v1.305l1.133-.652z" style="isolation:isolate" fill="#fff" opacity=".8"/><path d="M5.673 5.147v1.305L6.806 5.8z" fill="#fff"/><path d="M1.611 3.145V4.45l1.133-.653z" style="isolation:isolate" fill="#fff" opacity=".4"/><path d="M3.04 3.63v1.305l1.132-.652z" style="isolation:isolate" fill="#fff" opacity=".2"/><path d="M2.2 4.455V5.76l1.133-.653z" style="isolation:isolate" fill="#fff" opacity=".3"/><path d="M2.947 5.44v1.305l1.131-.653z" style="isolation:isolate" fill="#fff" opacity=".9"/><path d="M4.53 6.002v1.305l1.132-.653z" style="isolation:isolate" fill="#fff" opacity=".7"/><path d="M3.23 2.985v1.306l1.13-.652z" style="isolation:isolate" fill="#fff" opacity=".9"/><path d="M4.54 1.884v1.305l-1.133-.652z" style="isolation:isolate" fill="#fff" opacity=".8"/><path d="M3.23 2.438v1.305L2.095 3.09zm1.132.646V4.39L3.23 3.736z" style="isolation:isolate" fill="#fff" opacity=".6"/><path d="M3.035 3.63v1.305l-1.133-.652z" style="isolation:isolate" fill="#fff" opacity=".95"/><path d="M4.54 4.494v1.305l-1.131-.652z" style="isolation:isolate" fill="#fff" opacity=".6"/><path d="M2.2 4.798v1.305l-1.132-.654z" style="isolation:isolate" fill="#fff" opacity=".55"/><path d="M6.806 3.189v1.305l-1.133-.652z" fill="#fff"/><path d="M5.673 3.842v1.305L4.54 4.494z" style="isolation:isolate" fill="#fff" opacity=".95"/><path d="M6.806 4.494v1.305l-1.133-.652z" style="isolation:isolate" fill="#fff" opacity=".9"/><path d="M5.673 5.147v1.305L4.54 5.8z" style="isolation:isolate" fill="#fff" opacity=".7"/><path d="M4.289 5.69v1.306l-1.133-.652z" style="isolation:isolate" fill="#fff" opacity=".4"/><path d="M5.673 2.537v1.305L4.54 3.189z" fill="#fff"/></svg>