<svg xmlns="http://www.w3.org/2000/svg" viewBox="0 0 9 9"><path id="a9d97f20-c1b5-4cd0-9c9a-65013e263eb7" d="M4.5 0A4.5 4.5 0 110 4.5 4.5 4.5 0 014.5 0z" fill="#b41514" fill-rule="evenodd"/><path id="a218ba83-32dd-4665-9a0d-347515003e31" d="M4.464 7.425a.603.603 0 11.603-.603.603.603 0 01-.603.603z" fill="#fff"/><path id="fde23028-6020-4c37-8ff0-b20a4e5a1fe9" d="M4.464 3.267a.603.603 0 11.603-.603.603.603 0 01-.603.603z" fill="#fff"/><path id="b8313e6b-f791-4efb-8276-64fb0af557c1" fill="#fff" d="M1.998 5.814v-.837H6.93v.837H1.998z"/><path id="b5e54150-f874-40ad-9fe4-b8cd2db799ab" d="M4.464 4.563a2.6 2.6 0 01-2.6-2.511h.893a1.71 1.71 0 003.414 0h.892a2.6 2.6 0 01-2.599 2.511z" fill="#fff"/></svg>