<svg xmlns="http://www.w3.org/2000/svg" viewBox="0 0 9 9"><circle cx="4.5" cy="4.5" r="4.5" fill="#e54041"/><path d="M7.116 7.109H6.17l-1.996-2.61L6.169 1.89h.947L5.148 4.5z" fill="#f08179"/><path id="a5e91e1b-210f-43ef-8324-09e3e6cf65d1" d="M7.117 7.109H6.17l-1.996-2.61L6.17 1.89h.947L5.15 4.5z" fill="#ff564f"/><path id="bd2df840-738e-4864-982f-c85a17a36119" d="M7.117 7.109H6.17l-1.996-2.61L6.17 1.89h.947L5.15 4.5z" fill="#ff564f"/><path id="a920fc88-655d-4084-ad85-43b71f845f95" d="M7.117 7.109H6.17l-1.996-2.61L6.17 1.89h.947L5.15 4.5z" fill="#ff564f"/><path d="M2.862 6.239l.291.87L5.149 4.5 3.153 1.89l-.305.852 1.326 1.757z" style="isolation:isolate" fill="#fff" opacity=".2"/><path d="M2.393 1.89h.76v5.219h-.76z" fill="#fff"/><path id="be512c1f-7f41-4edf-8045-8607abf3df79" d="M7.117 7.109H6.17l-1.996-2.61L6.17 1.89h.947L5.15 4.5z" fill="#fff"/></svg>