<svg xmlns="http://www.w3.org/2000/svg" xmlns:xlink="http://www.w3.org/1999/xlink" viewBox="0 0 9 9"><defs><linearGradient id="adab2ac7-ade3-4cc3-8204-9a90bc6118f6" x1="-27.561" y1="-152.208" x2="-19.983" y2="-157.065" gradientTransform="rotate(180 -9.83 -74.944)" gradientUnits="userSpaceOnUse"><stop offset="0" stop-color="#e6078c"/><stop offset=".286" stop-color="#b90491"/><stop offset=".605" stop-color="#8e0296"/><stop offset=".854" stop-color="#730199"/><stop offset="1" stop-color="#69009a"/></linearGradient><linearGradient id="a7106e99-9e86-472f-a076-023e47ea6c86" x1="4.618" y1="-1595.478" x2="5.494" y2="-1594.224" gradientTransform="translate(0 1599.89)" gradientUnits="userSpaceOnUse"><stop offset="0" stop-color="#ea078c"/><stop offset="1" stop-color="#69009a"/></linearGradient><linearGradient id="e618595a-6cef-4f82-a0b0-a6f5711779e4" x1="3.864" y1="-1595.491" x2="5.645" y2="-1596.585" xlink:href="#a7106e99-9e86-472f-a076-023e47ea6c86"/></defs><circle cx="4.5" cy="4.5" r="4.275" fill="#f9fafb"/><path d="M4.5.35A4.15 4.15 0 11.35 4.5 4.155 4.155 0 014.5.35m0-.35A4.5 4.5 0 109 4.5 4.5 4.5 0 004.5 0z" fill="url(#adab2ac7-ade3-4cc3-8204-9a90bc6118f6)"/><path d="M4.887 3.997l.099.128.888 1.304.615.904a.711.711 0 01.043.067c-.365.002-.73 0-1.094 0-.363-.539-1.083-1.62-1.083-1.62l-.062-.113" fill="url(#a7106e99-9e86-472f-a076-023e47ea6c86)"/><path d="M4.035 5.112c-.013.01-.012.028-.012.044l-.015.049-.07-1.141.086-.093c.022-.015.885-.927 1.3-1.36.01-.015.028-.01.042-.012L6.45 2.6S4.14 5 4.035 5.112z" fill="url(#e618595a-6cef-4f82-a0b0-a6f5711779e4)"/><path d="M3.079 2.6h.945v3.799h-.945z" fill="#69009a"/></svg>