<svg xmlns="http://www.w3.org/2000/svg" viewBox="0 0 9 9"><defs><linearGradient id="b9580bba-89c0-499e-ac39-6dba20284efb" x1="-238.47" y1="-273.491" x2="-230.892" y2="-278.349" gradientTransform="rotate(180 -115.284 -135.585)" gradientUnits="userSpaceOnUse"><stop offset="0" stop-color="#d13620"/><stop offset="1" stop-color="#71130b"/></linearGradient><linearGradient id="b4e5eaa2-f8db-45e0-a396-3725391a3834" x1="5.867" y1="5.48" x2="7.828" y2="3.519" gradientUnits="userSpaceOnUse"><stop offset="0" stop-color="#921e12"/><stop offset="1" stop-color="#ef8b34"/></linearGradient><linearGradient id="f71f4381-8b5f-444d-965d-4c406d0954db" x1="2.424" y1="4.918" x2="5.825" y2="1.517" gradientUnits="userSpaceOnUse"><stop offset="0" stop-color="#921e12"/><stop offset=".168" stop-color="#962314"/><stop offset=".371" stop-color="#a33218"/><stop offset=".59" stop-color="#b84a20"/><stop offset=".821" stop-color="#d46c2a"/><stop offset="1" stop-color="#ef8b34"/></linearGradient><linearGradient id="b1a3292e-88cc-47a3-9cf9-0bbc09c8dcb7" x1="1.425" y1="5.726" x2="4.534" y2="2.618" gradientUnits="userSpaceOnUse"><stop offset="0" stop-color="#921e12"/><stop offset=".234" stop-color="#952113"/><stop offset=".419" stop-color="#9d2b16"/><stop offset=".588" stop-color="#ab3c1b"/><stop offset=".746" stop-color="#c05323"/><stop offset=".896" stop-color="#d9712c"/><stop offset="1" stop-color="#ef8b34"/></linearGradient></defs><circle cx="4.5" cy="4.5" r="4.275" fill="#f9fafb"/><path d="M4.5.35A4.15 4.15 0 11.35 4.5 4.155 4.155 0 014.5.35m0-.35A4.5 4.5 0 109 4.5 4.5 4.5 0 004.5 0z" fill="url(#b9580bba-89c0-499e-ac39-6dba20284efb)"/><path d="M6.281 6.675l-.06-.06a1.344 1.344 0 00-.12-.12c-.05-.05-.1-.11-.15-.15-.03-.02-.04-.05-.06-.06a1.385 1.385 0 00-.12-.12c0-.01-.01-.01-.01-.02l-.12-.12a1.22 1.22 0 00-.12-.11c-.03-.04-.07-.07-.1-.11a.602.602 0 01-.08-.08c-.04-.03-.07-.07-.11-.1a.263.263 0 00-.05-.06 1.901 1.901 0 00-.15-.14c-.01-.01-.02-.02-.02-.03-.07-.06-.13-.13-.2-.2a.021.021 0 01-.02-.02 3.697 3.697 0 01-.28-.28c-.01-.01-.02 0-.02.01-.05.05-.11.1-.16.15l-.15.15a.942.942 0 01-.1.1c0 .01-.01.01-.01.02-.04.03-.07.07-.11.1-.03.03-.06.07-.09.1a.474.474 0 00-.1.1c-.02.01-.02.02-.03.03a.444.444 0 00-.07.06c-.03.03-.05.06-.08.09a.566.566 0 00-.08.07.902.902 0 01-.09.1c-.03.03-.06.05-.09.08l-.09.09c-.03.03-.05.06-.08.09a1.152 1.152 0 00-.11.11.27.27 0 00-.06.05l-.06.06c-.02.02-.04.03-.05.05a1.61 1.61 0 01-.13.13c-.07.07-.13.14-.2.2-.01.01-.01.02 0 .02.02.02.04.03.06.05a1.855 1.855 0 00.27.19 1.626 1.626 0 00.18.1.339.339 0 00.12.06.223.223 0 00.05.03c.05.02.09.04.14.06h.01a1.27 1.27 0 00.18.06.75.75 0 00.16.05c.02.01.04.01.06.02l.14.03c.04.01.08.01.12.02.02 0 .05.01.08.01a.757.757 0 00.15.01h.01c.01.01.03 0 .04.01h.32a.376.376 0 00.11-.01.41.41 0 00.11-.01c.03 0 .07-.01.11-.01.03-.01.06-.01.09-.02.04-.01.08-.01.12-.02a.186.186 0 01.07-.02.576.576 0 00.14-.04.58.58 0 00.14-.05.037.037 0 00.03-.01 1.335 1.335 0 00.18-.07.556.556 0 00.17-.09c.01 0 .02-.01.03-.01h.01a1.992 1.992 0 00.19-.12h.01c.1-.07.2-.14.3-.22.01-.01 0-.01-.01-.02-.05-.06-.11-.11-.16-.16z" fill="#921e12"/><path d="M7.541 4.215v-.02a.772.772 0 00-.02-.15.688.688 0 00-.02-.13.236.236 0 00-.02-.08.363.363 0 00-.02-.11c0-.01-.01-.02-.01-.04 0-.01-.01-.01-.01-.02-.01-.05-.03-.09-.04-.14a.01.01 0 00-.01-.01 1.162 1.162 0 00-.06-.17 2 2 0 00-.1-.21c-.04-.08-.08-.16-.13-.24a4.097 4.097 0 00-.24-.34c-.01-.02-.02-.01-.03 0-.08.08-.16.16-.24.25a1.366 1.366 0 00-.17.17l-.15.15a.734.734 0 00-.13.12.902.902 0 00-.09.1.384.384 0 00-.09.09.566.566 0 00-.08.07c-.02.03-.05.05-.07.08a.236.236 0 00-.07.07c-.03.02-.05.05-.08.07a1.12 1.12 0 00-.1.11.936.936 0 00-.14.14c-.07.06-.14.13-.21.2a.14.14 0 00-.03.04c-.09.09-.19.18-.28.27 0 .01-.02.01 0 .02.09.1.19.19.28.29l.09.09c.09.08.17.17.26.25.02.02.04.05.06.06l.18.18a.901.901 0 01.09.1l.06.06a.458.458 0 01.07.07.647.647 0 00.09.08 1.506 1.506 0 00.12.13c.03.02.05.05.08.07l.09.09a.579.579 0 00.11.11l.18.18c.05.05.09.1.14.15.02.01.03.04.05.04.01 0 .03-.03.04-.05a2.269 2.269 0 00.18-.25 1.732 1.732 0 00.13-.23.219.219 0 00.03-.05c.03-.06.06-.13.09-.2.01-.04.03-.07.04-.11a1.444 1.444 0 00.07-.19.142.142 0 01.02-.06c.02-.07.03-.14.05-.21v-.01c0-.03.01-.05.01-.07.01-.05.01-.09.02-.14a.995.995 0 00.02-.17v-.1a.085.085 0 000-.07v-.3c-.01-.01 0-.02-.01-.03z" fill="url(#b4e5eaa2-f8db-45e0-a396-3725391a3834)"/><path d="M3.751 3.705c-.03.1-.07.19-.1.28a.076.076 0 00-.02.04c-.05.13-.1.27-.15.4l-.01.01c-.14.37-.27.73-.41 1.1a.014.014 0 000 .02c.01-.01.01-.02.02-.02.24-.25.48-.49.73-.73a1.006 1.006 0 01.1-.11c.11-.11.23-.22.33-.33.01 0 .01-.01.02-.02.07-.06.13-.13.2-.2a1.847 1.847 0 00.14-.14.574.574 0 00.11-.11 1.152 1.152 0 00.11-.11c.02-.02.04-.03.05-.05a.135.135 0 00.04-.03.218.218 0 01.04-.05c.02-.01.03-.03.04-.04a.944.944 0 00.1-.1.476.476 0 00.1-.1c.05-.04.09-.09.14-.13a1.506 1.506 0 01.12-.13 1.554 1.554 0 00.13-.12 1.827 1.827 0 00.13-.14c.01 0 .01-.01.02-.01a1.885 1.885 0 01.14-.14c.05-.06.11-.12.17-.18.14-.13.27-.27.41-.4.01-.02 0-.02-.01-.03a3.139 3.139 0 00-.42-.29 2.395 2.395 0 00-.43-.2c-.1-.04-.2-.07-.3-.1a1.495 1.495 0 00-.29-.06c-.05-.01-.09-.01-.14-.02-.06-.01-.13-.01-.19-.02-.06 0-.06 0-.08.05l-.12.33c-.04.09-.08.19-.11.28-.03.07-.05.13-.08.2a1.821 1.821 0 01-.08.21 1.363 1.363 0 01-.07.18.587.587 0 01-.05.14.863.863 0 00-.05.15.076.076 0 00-.02.05.17.17 0 00-.02.05.142.142 0 00-.02.06.222.222 0 00-.03.05.871.871 0 00-.05.15l-.06.15c-.03.07-.05.14-.08.21z" fill="url(#f71f4381-8b5f-444d-965d-4c406d0954db)"/><path d="M2.591 5.215a.146.146 0 00.02-.07.052.052 0 00.02-.04.144.144 0 00.02-.07.618.618 0 00.05-.12c.02-.04.03-.08.05-.12.01-.04.03-.07.04-.11a.564.564 0 00.04-.12.709.709 0 00.05-.13.502.502 0 00.05-.13c.02-.05.04-.09.06-.15.01-.03.03-.07.04-.1.02-.06.04-.11.06-.17.02-.05.04-.1.06-.16.02-.05.04-.11.06-.16a.525.525 0 00.06-.16.037.037 0 00.01-.03l.09-.21c.03-.08.06-.17.09-.25.04-.09.07-.19.11-.28 0-.01 0-.01.01-.02.08-.22.16-.44.24-.65.01-.02.01-.03.02-.04-.01 0-.01 0-.01-.01-.01.01-.01.02-.02.03l-.43.43-.07.07c-.08.08-.16.16-.24.23-.05.06-.11.12-.17.18s-.11.12-.17.17a1.626 1.626 0 00-.13.13 1.786 1.786 0 01-.14.13 1.555 1.555 0 01-.12.13 1.578 1.578 0 00-.13.13l-.09.09a1.198 1.198 0 01-.12.11 1.12 1.12 0 01-.1.11 1.562 1.562 0 00-.13.13l-.12.12c-.06.05-.11.11-.16.16-.02.02-.04.03-.04.05a1.477 1.477 0 00-.01.21 1.548 1.548 0 00.01.22v.02c.01.01 0 .03.01.04a.25.25 0 00.01.08c0 .02-.01.03 0 .05a.292.292 0 00.02.09.401.401 0 00.03.15.75.75 0 00.04.16 1.416 1.416 0 00.07.22 1.076 1.076 0 00.08.19 1.416 1.416 0 00.08.18l.01.01a3.098 3.098 0 00.32.48c0 .01 0 .01.01.01.03-.07.05-.14.08-.21.04-.1.07-.19.11-.28.02-.06.04-.11.06-.17a.857.857 0 00.06-.17.037.037 0 00.01-.03c.02-.04.04-.09.06-.14.02-.04.03-.08.05-.13.01-.03.02-.05.03-.08z" fill="url(#b1a3292e-88cc-47a3-9cf9-0bbc09c8dcb7)"/></svg>