<svg xmlns="http://www.w3.org/2000/svg" viewBox="0 0 9 9"><circle cx="4.5" cy="4.5" r="4.5" fill="#28c39b"/><path d="M6.89 3.305V5.69c0 .018-.01.027-.01.045-.02.01-.03.027-.05.027a.091.091 0 01-.07-.009L4.305 4.498 6.76 3.242c.06-.027.13.01.13.063zm-.231-.641c.01.009.01.018.02.027a.052.052 0 010 .054c0 .018-.02.027-.03.036l-2.465 1.22.606-2.43c0-.01.01-.018.01-.027a.091.091 0 01.06-.027h.01a.083.083 0 01.05.009l1.73 1.138.03-.036zm.03 3.623a.093.093 0 01-.04.045L4.92 7.47c-.01.009-.02.018-.03.018-.03 0-.05 0-.06-.009-.02-.009-.04-.027-.04-.045l-.607-2.44 2.465 1.22a.02.02 0 01.02.019.062.062 0 01.02.054zM3.497 4.453l.657 2.764a.062.062 0 01-.02.055.088.088 0 01-.05.027.083.083 0 01-.05-.01L2.355 6.134a.24.24 0 01-.121-.217V2.99a.26.26 0 01.12-.217l1.677-1.147a.082.082 0 01.051-.018h.01a.1.1 0 01.05.036.047.047 0 01.01.054l-.656 2.747z" fill="#fff"/></svg>