<svg xmlns="http://www.w3.org/2000/svg" viewBox="0 0 9 9"><circle cx="4.5" cy="4.5" r="4.5" fill="#060810"/><path d="M6.43 2.877a.631.631 0 00-.344-.174.695.695 0 00-.437.163c-.11.074-.32.29-.407.357s-.309.127-.666.348-1.76 1.15-1.76 1.15l.365.005-1.627.864h.163l-.234.184a.515.515 0 00.38-.056v.052s1.937-.788 2.311-.584l-.228.069c.02 0 .388.025.388.025a.541.541 0 00.234.39c.222.15.227.233.227.233s-.116.049-.116.11a1.165 1.165 0 01.329-.049 1.223 1.223 0 01.296.049s-.012-.066-.166-.11a.918.918 0 01-.38-.31.45.45 0 01-.062-.43c.053-.144.239-.222.622-.426.452-.242.555-.42.619-.56s.158-.417.211-.548a.705.705 0 01.218-.31 2.747 2.747 0 01.372-.171s-.232-.21-.307-.27" fill="#fff"/></svg>