<svg xmlns="http://www.w3.org/2000/svg" viewBox="0 0 9 9"><path d="M4.5 0A4.498 4.498 0 019 4.5 4.498 4.498 0 014.5 9 4.498 4.498 0 010 4.5 4.498 4.498 0 014.5 0z" fill="#f59887"/><path d="M6.582 5.148a2.08 2.08 0 01-1.704 2.044 1.959 1.959 0 01-.472.032 2.083 2.083 0 01-1.885-1.429 2.022 2.022 0 01-.099-.513 2.062 2.062 0 01.215-1.061 2.518 2.518 0 01.144-.246c.01-.015.016-.014.03-.006l.967.562.705.41a.03.03 0 00.034 0l1.027-.597.645-.375c.014-.008.02-.008.03.006a2.12 2.12 0 01.31.704 2.066 2.066 0 01.053.47z" fill="#fff"/><path d="M5.262 2.484c-.21-.336-.42-.663-.629-.99a2.794 2.794 0 00-.134-.201c-.009.008-.009.017-.017.025l-.83 1.309c-.202.31-.412.63-.613.948-.009.017-.009.017.008.025.168.101.336.193.495.294.31.176.621.36.932.537.025.017.033.017.05 0 .243-.134.486-.277.721-.42.235-.134.479-.268.714-.411.008-.009.016-.009.008-.025-.235-.36-.47-.73-.705-1.09zm.244 1.007a81.08 81.08 0 00-.99.58H4.49a57.623 57.623 0 00-.973-.563c-.034-.025-.034-.025-.009-.067.327-.512.655-1.016.974-1.527.008-.009.016-.017.016-.026.034.05.06.093.093.135.201.319.402.637.604.948.109.168.21.327.31.495q.026.013 0 .025z" fill="#fff"/></svg>