<svg xmlns="http://www.w3.org/2000/svg" viewBox="0 0 9 9"><circle cx="4.5" cy="4.5" r="4.275" fill="#fff"/><path d="M4.5.35A4.15 4.15 0 11.35 4.5 4.155 4.155 0 014.5.35m0-.35A4.5 4.5 0 109 4.5 4.5 4.5 0 004.5 0z" fill="#0d4395"/><path d="M3.974 7.025l.74-.832a.02.02 0 00-.016-.033h-.815a.031.031 0 01-.017-.008l-.69-.774c-.005-.009-.009-.017-.005-.025l1.157-1.985a.018.018 0 000-.02l-.478-.825a.023.023 0 00-.033-.005l-.004.005-1.71 2.938a.026.026 0 000 .025l1.373 1.543a.021.021 0 00.016.008h.466z" fill="#0d4395"/><path d="M4.482 1.375l-.483.824a.019.019 0 000 .02l.5.858 1.323 2.271a.02.02 0 01-.004.025l-.7.783-.744.84a.02.02 0 00.016.033h1.115a.031.031 0 00.017-.009l1.373-1.544c.004-.008.008-.016.004-.025L4.515 1.376c-.004-.017-.025-.017-.033 0z" fill="#0d4395"/></svg>