<svg xmlns="http://www.w3.org/2000/svg" xmlns:xlink="http://www.w3.org/1999/xlink" viewBox="0 0 9 9"><defs><linearGradient id="e9ab9cb7-265e-4f16-adc9-3fd05771ed1a" x1="4.5" y1="821.829" x2="4.5" y2="812.829" gradientTransform="scale(1 -1) rotate(89.192 421.195 406.341)" gradientUnits="userSpaceOnUse"><stop offset="0" stop-color="#7398f0"/><stop offset="1" stop-color="#b44af0"/></linearGradient><linearGradient id="f78188e7-222b-4aa4-8538-8900f283b4e2" x1="-741.117" y1="750.976" x2="-740.684" y2="750.976" gradientTransform="matrix(11.85 0 0 10.29 8784.185 -7723.046)" xlink:href="#e9ab9cb7-265e-4f16-adc9-3fd05771ed1a"/></defs><circle cx="4.5" cy="4.5" r="4.493" fill="#fff"/><path d="M8.65 4.559A4.15 4.15 0 114.559.35 4.155 4.155 0 018.65 4.559m.35.005A4.5 4.5 0 104.436 9 4.5 4.5 0 009 4.564z" fill="url(#e9ab9cb7-265e-4f16-adc9-3fd05771ed1a)"/><path d="M5.124 1.867l-.585.584.12.12a.172.172 0 00.244.002l.001-.002.585-.584-.12-.12a.172.172 0 00-.244-.002zm-1.488 0l-.14.12.61.584a.167.167 0 00.236.004l.004-.004.12-.12-.59-.584a.167.167 0 00-.236-.004zm2.04.767l-1.11 1.111.224.23a.329.329 0 00.459 0L6.36 2.858l-.224-.224a.323.323 0 00-.454 0zm-2.812 0l-.224.224L3.751 3.97a.318.318 0 00.45.01l.009-.01.224-.224-1.11-1.112a.329.329 0 00-.46 0zm1.513-.026l-.115.12.24.24.24-.24-.12-.12a.167.167 0 00-.236-.004l-.004.004zm2.088 1.111L4.612 5.567l.37.375a.522.522 0 00.738.025l.025-.025 1.847-1.847-.37-.376a.522.522 0 00-.738-.024l-.024.024zm-4.697 0l-.36.37 1.847 1.853a.522.522 0 00.738.025l.024-.025.376-.375-1.847-1.848a.522.522 0 00-.738-.024l-.024.024zm2.49.324l-.225.224.454.454.47-.454-.225-.224a.324.324 0 00-.457-.002l-.002.002zm-.136 2.014l-.376.37.757.757.751-.757-.37-.37a.522.522 0 00-.738-.024z" fill="url(#f78188e7-222b-4aa4-8538-8900f283b4e2)"/></svg>