<svg xmlns="http://www.w3.org/2000/svg" xmlns:xlink="http://www.w3.org/1999/xlink" viewBox="0 0 9 9"><defs><linearGradient id="f0eddf9d-9af8-4191-83db-d7f66013e3b6" x1="3.971" y1="5.252" x2="5.846" y2="7.227" gradientUnits="userSpaceOnUse"><stop offset=".107" stop-color="#fcb927"/><stop offset=".949" stop-color="#f71a12"/></linearGradient><linearGradient id="ff596da9-132d-4aee-97e5-52b38258aba3" x1="2.564" y1="2.434" x2="4.967" y2="4.846" gradientUnits="userSpaceOnUse"><stop offset=".017" stop-color="#fbd32f"/><stop offset="1" stop-color="#f71a12"/></linearGradient><linearGradient id="b25271e7-f6e3-4c25-9f5c-1f25cc4836ce" x1="1.749" y1="7.616" x2="7.706" y2=".869" gradientTransform="rotate(180 4.5 4.5)" xlink:href="#ff596da9-132d-4aee-97e5-52b38258aba3"/></defs><circle cx="4.5" cy="4.5" r="4.347" fill="#fff"/><circle cx="4.503" cy="4.481" r="2.899" fill="#faec4e"/><path d="M7.153 5.991a3.071 3.071 0 01-5.469-.477c-.017-.042-.032-.085-.047-.128a2.667 2.667 0 01-.098-1.147h4.31l-.009.009A1.087 1.087 0 007.133 5.97a.015.015 0 01.02.021z" fill="url(#f0eddf9d-9af8-4191-83db-d7f66013e3b6)"/><path d="M7.608 3.824c-.004.012-.034.009-.072.008-.048-.003-.097.003-.144 0-.062-.003-.133 0-.279.004-.078.003-.161.006-.26.016a2.194 2.194 0 00-.338.057 1.683 1.683 0 00-.4.17 2.448 2.448 0 00-.275.169 1.763 1.763 0 00-.213.185 2.141 2.141 0 00-.412.643 2.922 2.922 0 01-.168.365 2.3 2.3 0 01-.183.283 2.058 2.058 0 01-.396.396 1.956 1.956 0 01-.657.314 1.892 1.892 0 01-.864.074 1.894 1.894 0 01-.897-.449 1.6 1.6 0 01-.366-.545c-.018-.042-.033-.085-.048-.128A2.667 2.667 0 011.54 4.24a3.068 3.068 0 01.415-1.229 3.143 3.143 0 01.768-.824 6.421 6.421 0 011.326-.723c.012-.006.109-.044.236-.105a1.8 1.8 0 00.391-.222 1.016 1.016 0 00.266-.324l.022-.046c.015-.03.018-.038.024-.038.014 0 .028.046.034.065a.357.357 0 01.013.058 1.764 1.764 0 01.009.224c-.003.049-.008.086-.01.11-.003.035-.008.062-.014.097a.878.878 0 01-.035.126.826.826 0 01-.062.125 1.323 1.323 0 01-.11.167 1.73 1.73 0 01-.41.334 2.762 2.762 0 00-.486.34 1.106 1.106 0 00-.226.32.922.922 0 00-.077.63.89.89 0 00.367.496 1.129 1.129 0 00.802.172 1.443 1.443 0 00.471-.2 3.088 3.088 0 01.41-.26 1.602 1.602 0 01.28-.1 1.828 1.828 0 01.686-.05 2.281 2.281 0 01.338.071 1.906 1.906 0 01.604.323c.017.013.043.036.037.048z" fill="url(#ff596da9-132d-4aee-97e5-52b38258aba3)"/><path d="M7.434 1.565a4.15 4.15 0 11-5.869 0 4.155 4.155 0 015.87 0m.247-.247a4.5 4.5 0 100 6.364 4.5 4.5 0 000-6.364z" fill="url(#b25271e7-f6e3-4c25-9f5c-1f25cc4836ce)"/></svg>