<svg xmlns="http://www.w3.org/2000/svg" xmlns:xlink="http://www.w3.org/1999/xlink" viewBox="0 0 9 9"><defs><linearGradient id="ebc2d4e1-d4d0-48e3-a98a-5ea0c9a0f7d8" x1="203.043" y1="1269.154" x2="203.028" y2="1269.138" gradientTransform="matrix(400 0 0 -400 -81209.692 507662.91)" gradientUnits="userSpaceOnUse"><stop offset="0" stop-color="#ff2d55"/><stop offset="1" stop-color="#ffbc5b"/></linearGradient><linearGradient id="bb2984d9-c54e-4fd4-a4e1-577a46cf8c40" x1="200.808" y1="1271.988" x2="200.808" y2="1271.965" gradientTransform="matrix(125 0 0 -150 -25096.4 190801.071)" gradientUnits="userSpaceOnUse"><stop offset="0" stop-color="#a524b3"/><stop offset="1" stop-color="#ff2d55"/></linearGradient><linearGradient id="ad079b9e-4d9b-4ea4-8aff-3ec8b1cf3e6a" x1="198.465" y1="1274.16" x2="198.465" y2="1274.138" gradientTransform="matrix(91.7 0 0 -110 -18192.148 140162.377)" xlink:href="#bb2984d9-c54e-4fd4-a4e1-577a46cf8c40"/></defs><circle cx="4.5" cy="4.5" r="4.5" fill="url(#ebc2d4e1-d4d0-48e3-a98a-5ea0c9a0f7d8)"/><path d="M3.188 2.925V6.3h2.813z" fill-rule="evenodd" fill="url(#bb2984d9-c54e-4fd4-a4e1-577a46cf8c40)"/><path d="M.376 6.3h2.812V2.925z" fill="#fff" fill-rule="evenodd"/><path d="M.9 7.2a4.609 4.609 0 00.9.9h5.4a4.606 4.606 0 00.9-.9z" fill="#fc9965" fill-rule="evenodd"/><path d="M1.8 8.1a4.5 4.5 0 005.4 0z" fill="#ff2d55" fill-rule="evenodd"/><path d="M6.037 4.725V7.2H8.1z" fill-rule="evenodd" fill="url(#ad079b9e-4d9b-4ea4-8aff-3ec8b1cf3e6a)"/><path d="M6.037 6.3H.376a4.48 4.48 0 00.524.9h5.139v-.9z" fill="#ffbc5b" fill-rule="evenodd"/><path d="M3.976 7.2h2.06V4.725z" fill="#fff" fill-rule="evenodd"/><circle cx="6.037" cy="2.925" r="1.125" fill="#ffc95b"/><circle cx="3.188" cy="1.688" r=".563" fill="#ffc95b"/></svg>