<svg xmlns="http://www.w3.org/2000/svg" viewBox="0 0 9 9"><path d="M4.5 0A4.498 4.498 0 019 4.5 4.498 4.498 0 014.5 9 4.498 4.498 0 010 4.5 4.498 4.498 0 014.5 0z" fill="#8247e5"/><path d="M5.88 3.58a.344.344 0 00-.34 0l-.78.46-.53.3-.78.46a.344.344 0 01-.34 0l-.62-.36a.345.345 0 01-.17-.29v-.71a.324.324 0 01.17-.29l.61-.35a.344.344 0 01.34 0l.61.35a.345.345 0 01.17.29v.46l.53-.31v-.46a.324.324 0 00-.17-.29l-1.13-.66a.344.344 0 00-.34 0l-1.15.66a.324.324 0 00-.17.29v1.33a.324.324 0 00.17.29l1.15.66a.344.344 0 00.34 0l.78-.45.53-.31.78-.45a.344.344 0 01.34 0l.61.35a.345.345 0 01.17.29v.71a.324.324 0 01-.17.29l-.61.36a.344.344 0 01-.34 0l-.61-.35a.345.345 0 01-.17-.291V5.1l-.53.31v.46a.324.324 0 00.17.29l1.15.66a.344.344 0 00.34 0l1.15-.66a.345.345 0 00.17-.29V4.54a.324.324 0 00-.17-.29z" fill="#fff"/></svg>