<svg xmlns="http://www.w3.org/2000/svg" viewBox="0 0 9 9"><defs><linearGradient id="e083b25c-606a-40da-ad56-6bd5fb48a3a1" y1="4.5" x2="9" y2="4.5" gradientUnits="userSpaceOnUse"><stop offset="0" stop-color="#1e7dfa"/><stop offset="1" stop-color="#143cf0"/></linearGradient></defs><circle cx="4.5" cy="4.5" r="4.5" fill="url(#e083b25c-606a-40da-ad56-6bd5fb48a3a1)"/><path d="M4.38 5.732c-.38-.241-.796-.419-1.165-.677-.071-.093-.192-.115-.274-.193a.233.233 0 01-.157-.247c-.002-.423-.006-.846.003-1.27.003-.1-.002-.226.164-.204l.11.053a.592.592 0 01.406.148c.24.186.514.318.77.48a.789.789 0 01.305.275.61.61 0 01.038.29c.001.381.008.763-.004 1.144-.003.115-.003.258-.196.2z" fill="#fefefd"/><path d="M2.951 3.14c-.085.023-.083.09-.083.158 0 .456.003.912 0 1.367a.293.293 0 00.073.197.288.288 0 00-.24.058c-.428.261-.861.516-1.287.781-.155.097-.186.054-.184-.109q.01-.683 0-1.367a.255.255 0 01.145-.252c.466-.275.93-.556 1.393-.836.064-.04.124-.087.183.004z" fill="#b3c6fe"/><path d="M4.458 4.06a4.733 4.733 0 00.723-.407c.213-.12.415-.258.621-.388.085-.047.17-.092.254-.141.07-.042.132-.053.184.025a12.676 12.676 0 00-.022 1.537c0 .058.027.117-.014.171-.232-.001-.38.166-.555.277-.358.177-.688.403-1.031.605-.085.05-.161.095-.238-.007.067-.002.113-.025.112-.104-.003-.497-.004-.995-.008-1.493a.249.249 0 00-.026-.074z" fill="#b3c6fd"/><path d="M6.204 4.857a.401.401 0 01-.074-.238c.004-.434.002-.868.002-1.303 0-.078-.014-.167.108-.167.47.282.94.566 1.414.845a.211.211 0 01.116.208c-.004.476-.003.953-.002 1.43 0 .11-.01.171-.14.092-.472-.292-.949-.578-1.424-.867z" fill="#fdfefe"/><path d="M4.51 3.595a1.461 1.461 0 01-.146-.067c-.33-.197-.656-.398-.986-.593-.106-.062-.122-.103-.004-.172.342-.2.68-.408 1.018-.615a.186.186 0 01.219.006q.49.302.986.592c.124.072.16.116.006.203-.322.182-.635.38-.952.571-.045.027-.093.05-.141.075z" fill="#f7b40b"/></svg>