<svg xmlns="http://www.w3.org/2000/svg" viewBox="0 0 8.986 8.986"><defs><linearGradient id="ec09207a-c9aa-4aec-9914-a387a271190d" x1="-37.464" y1="-22.996" x2="-28.477" y2="-22.994" gradientTransform="rotate(90 -28.02 9.518)" gradientUnits="userSpaceOnUse"><stop offset="0" stop-color="#f09036"/><stop offset=".467" stop-color="#a9585d"/><stop offset="1" stop-color="#53158c"/></linearGradient></defs><circle cx="4.493" cy="4.493" r="4.493" fill="url(#ec09207a-c9aa-4aec-9914-a387a271190d)"/><path d="M4.202 5.74l.049.29a.22.22 0 00.072.17.32.32 0 00.34 0 .22.22 0 00.072-.17l.049-.29a1.18 1.18 0 01-.582 0zm.412.29a.103.103 0 01-.024.07.197.197 0 01-.194 0 .127.127 0 01-.026-.09l-.02-.122a1.13 1.13 0 00.286 0zm1.551-3.173V6.2h.46V3.56a.676.676 0 00-.46-.703zm.339 3.222h-.218V3.053a.593.593 0 01.218.507zM2.361 3.56V6.2h.46V2.857a.676.676 0 00-.46.703zm.34 2.519h-.219V3.56a.59.59 0 01.218-.506zM5.05 3.584L4.784 5.74a.733.733 0 00.557-.678l.29-2.229c-.338.073-.508.34-.581.75zm.17 1.463a.647.647 0 01-.29.504l.24-1.945a.789.789 0 01.317-.589zM3.936 3.584a.774.774 0 00-.557-.751l.291 2.229a.712.712 0 00.533.678zm-.148 1.46l-.261-2.02a.777.777 0 01.288.575l.242 1.95a.655.655 0 01-.269-.504zm2.134-2.671c-.145 0-.242.097-.266.266l-.024.194a1.322 1.322 0 01.533.024v-.194c0-.193-.097-.29-.243-.29zm.122.334a1.759 1.759 0 00-.192-.012.83.83 0 00-.08.002l.002-.02h-.002l.003-.02c.024-.163.116-.163.147-.163.037 0 .122 0 .122.17zM3.355 2.64c-.049-.195-.146-.267-.291-.267s-.242.097-.242.29v.194a1.419 1.419 0 01.314-.048.91.91 0 01.243.024zm-.412.067v-.044c0-.17.084-.17.12-.17.069 0 .134.013.17.16l.003.022.003.015a1.04 1.04 0 00-.296.017z" fill="#2d2d2d"/><path d="M6.286 2.775v-.112a.366.366 0 00-.364-.411.39.39 0 00-.387.373l-.015.111a.94.94 0 00-.591.833l-.254 2.07a1.018 1.018 0 01-.364 0l-.254-2.07a.911.911 0 00-.57-.83l-.016-.129a.403.403 0 00-.407-.359.366.366 0 00-.363.412v.112a.808.808 0 00-.46.785v2.76h.702V2.954a.878.878 0 01.327-.02l.279 2.142a.83.83 0 00.547.758l.034.197a.343.343 0 00.107.254l.031.022a.472.472 0 00.225.063.453.453 0 00.223-.063l.032-.022a.314.314 0 00.106-.235l.036-.216a.849.849 0 00.57-.758l.279-2.134a1.141 1.141 0 01.305.012v3.367h.702V3.56a.808.808 0 00-.46-.785zm-.514-.078l.003-.02h-.003l.003-.02c.024-.163.116-.163.147-.163.037 0 .122 0 .122.17v.043a1.759 1.759 0 00-.192-.012c-.027 0-.056 0-.08.002zm.732 3.382h-.218V3.053a.593.593 0 01.218.507zm-1.575-.528l.24-1.945a.789.789 0 01.317-.589l-.266 2.03a.647.647 0 01-.29.504zm-.315.48a.103.103 0 01-.024.07.197.197 0 01-.194 0 .127.127 0 01-.026-.09l-.02-.123a1.13 1.13 0 00.286 0zm-.826-.986l-.261-2.02a.777.777 0 01.288.574l.242 1.95a.655.655 0 01-.269-.504zm-.845-2.338v-.044c0-.17.084-.17.12-.17.069 0 .134.013.17.16l.003.022.003.015a1.04 1.04 0 00-.296.017zM2.7 6.079h-.218V3.56a.59.59 0 01.218-.506z" fill="#fff"/></svg>