<svg xmlns="http://www.w3.org/2000/svg" viewBox="0 0 9 9"><circle cx="4.5" cy="4.5" r="4.5" fill="#0f112f"/><path d="M4.06 3.98a1.522 1.522 0 00-1.293.168 1.658 1.658 0 01-.251.158 2.086 2.086 0 01.02-.807A1.919 1.919 0 013.83 2.07a1.972 1.972 0 012.544 1.35 2.216 2.216 0 01.045.853.14.14 0 01-.066.105 1.384 1.384 0 01-1.58.016 5.186 5.186 0 00-.506-.332.296.296 0 00-.04-.015.664.664 0 01-.167-.067z" fill="#f0b605"/><path d="M3.62 4.415a1.288 1.288 0 00-.833.263c-.059.043-.12.084-.182.123a.109.109 0 01-.162-.03.111.111 0 01.032-.162 1.716 1.716 0 011.75-.324 2.325 2.325 0 01.56.341 1.288 1.288 0 001.23.194 1.516 1.516 0 00.382-.213.108.108 0 01.138 0 .119.119 0 01-.01.194 1.502 1.502 0 01-1.806.062c-.089-.067-.185-.125-.274-.19a1.288 1.288 0 00-.825-.258z" fill="#53c9c6"/><path d="M3.614 5.953V4.82a.16.16 0 01.03-.116.117.117 0 01.203.04.41.41 0 01.016.121v2.196a.295.295 0 01-.02.12.113.113 0 01-.126.072.107.107 0 01-.099-.097.49.49 0 01-.003-.088V5.953z" fill="#53c9c5"/><path d="M5.312 6.057v.562c0 .098-.043.15-.12.15s-.126-.053-.126-.147q-.002-.57 0-1.141c0-.093.05-.148.127-.147s.119.055.119.152v.571z" fill="#54c8c4"/><path d="M3.374 5.401v.527a.31.31 0 01-.005.078c-.015.057-.046.106-.112.106a.124.124 0 01-.124-.105.402.402 0 01-.007-.096V4.84c.004-.095.058-.161.129-.16s.118.063.119.159c.002.187 0 .374 0 .561z" fill="#53c9c5"/><path d="M5.55 5.999v-.473c0-.094.048-.147.126-.145.074.002.12.055.12.142v.973c0 .09-.042.136-.122.137s-.122-.042-.123-.135v-.5zm-2.91-.517v-.386c.001-.098.045-.153.118-.155.075-.001.126.052.127.147q.004.4 0 .8a.128.128 0 01-.124.141c-.07 0-.12-.053-.121-.143-.002-.135 0-.27 0-.404z" fill="#52c9c5"/><path d="M4.324 5.876a.106.106 0 01-.126.069.115.115 0 01-.098-.11 1.082 1.082 0 01-.005-.14v-.647a.54.54 0 01.013-.103.1.1 0 01.098-.085.103.103 0 01.12.08c.014.225.004.45.005.675a1.223 1.223 0 01-.007.261z" fill="#54c9c5"/><path d="M6.288 5.607c0 .067.002.134 0 .201a.133.133 0 01-.127.14c-.072-.001-.12-.054-.12-.143a13.172 13.172 0 010-.402c0-.089.048-.138.123-.138a.128.128 0 01.124.14c.002.067 0 .134 0 .202zm-1.463-.224a1.072 1.072 0 010 .113.114.114 0 01-.125.11.112.112 0 01-.116-.117 3.908 3.908 0 010-.227.11.11 0 01.11-.114.113.113 0 01.129.104.825.825 0 01.001.13z" fill="#54c7c4"/></svg>