<svg xmlns="http://www.w3.org/2000/svg" viewBox="0 0 9 9"><defs><linearGradient id="ebca4a50-c1c6-48ed-9a25-f59013086bae" x1="-90.478" y1="-76.556" x2="-82.9" y2="-81.414" gradientTransform="rotate(180 -41.288 -37.118)" gradientUnits="userSpaceOnUse"><stop offset="0" stop-color="#324664"/><stop offset="1"/></linearGradient></defs><circle cx="4.5" cy="4.5" r="4.275" fill="#f9fafb"/><path d="M4.5.35A4.15 4.15 0 11.35 4.5 4.155 4.155 0 014.5.35m0-.35A4.5 4.5 0 109 4.5 4.5 4.5 0 004.5 0z" fill="url(#ebca4a50-c1c6-48ed-9a25-f59013086bae)"/><path d="M5.861 2.474l-.942 1.4a.1.1 0 00.15.13l.928-.808a.036.036 0 01.06.03v2.522a.037.037 0 01-.066.025L3.184 2.415a.464.464 0 00-.366-.17h-.1a.48.48 0 00-.476.481v3.55a.481.481 0 00.892.25l.943-1.398a.1.1 0 00-.15-.13l-.928.802a.036.036 0 01-.06-.03V3.252a.037.037 0 01.065-.025l2.807 3.359a.471.471 0 00.366.17h.1a.481.481 0 00.481-.482v-3.55a.489.489 0 00-.486-.48.484.484 0 00-.411.23"/></svg>