<svg xmlns="http://www.w3.org/2000/svg" viewBox="0 0 9.001 9.001"><defs><linearGradient id="bd9852b5-645b-4ec8-aa99-fda8de1894eb" x1="16.509" y1="-230.162" x2="25.509" y2="-230.162" gradientTransform="scale(1 -1) rotate(54.985 -204.063 -133.192)" gradientUnits="userSpaceOnUse"><stop offset="0" stop-color="#54a4cb"/><stop offset="1" stop-color="#50479e"/></linearGradient></defs><circle cx="4.501" cy="4.5" r="4.275" fill="#f9fafb"/><path d="M1.102 2.119a4.15 4.15 0 111.017 5.78 4.155 4.155 0 01-1.018-5.78m-.286-.2A4.5 4.5 0 107.082.814 4.5 4.5 0 00.815 1.918z" fill="url(#bd9852b5-645b-4ec8-aa99-fda8de1894eb)"/><path d="M2.954 3.78v-.118L1.729 3a.82.82 0 00-.123.43v1.078l.003.001z" fill="#3377b5"/><path d="M1.61 4.509l1.344.728V3.78l-1.345.728" fill="#4f6cb0"/><path d="M7.28 3.014l-1.199.648v.119l1.314.711V3.43a.818.818 0 00-.115-.417" fill="#504ca1"/><path d="M2.954 5.294v-.057l-1.345-.728-.003.001v1.06a.82.82 0 00.132.443l1.218-.66z" fill="#3b9cc7"/><path d="M5.957 3.584V2.155l-1.32.715 1.32.715" fill="#5465ad"/><path d="M6.081 3.651v.011l1.199-.649a.891.891 0 00-.344-.328l-.979-.53v1.43" fill="#513d9a"/><path d="M4.517 5.943l1.312-.71V5.22l-1.312-.71v1.435" fill="#214688"/><path d="M3.06 5.415v1.44l.016.008 1.33-.72-1.345-.728" fill="#4395c4"/><path d="M2.956 5.358v-.004l-1.218.66a.89.89 0 00.327.302l.996.539v-1.44z" fill="#54a4cb"/><path d="M4.526 2.81l.11.06 1.32-.715-.997-.54a.964.964 0 00-.441-.115v1.314z" fill="#7f6fb3"/><path d="M4.406 2.874l.111-.06V1.5a.97.97 0 00-.417.086l-1.037.561z" fill="#5054a4"/><path d="M3.063 2.147l-.002.002v1.454l1.345-.729-1.343-.727" fill="#50479e"/><path d="M2.954 3.661l.057-.031.05-.027V2.149l-1.052.57A.886.886 0 001.73 3l1.225.663z" fill="#5057a6"/><path d="M4.526 6.208l-.008-.005V7.5a.964.964 0 00.442-.115l.982-.531-1.305-.706z" fill="#2c7ab6"/><path d="M4.406 6.143l-1.33.72.965.522a.966.966 0 00.476.115V6.203" fill="#4fa2ca"/><path d="M4.637 6.147l1.305.707.015-.009V5.433l-1.32.715" fill="#4d8dc0"/><path d="M6.081 5.366l-.124.067v1.412l.98-.53a.892.892 0 00.336-.316L6.08 5.354" fill="#4488be"/><path d="M6.081 5.355L7.273 6a.82.82 0 00.123-.43V4.525l-1.315.711" fill="#6687be"/><path d="M6.081 5.237l1.314-.712v-.033l-1.314-.711v1.456" fill="#415ca8"/><path d="M5.83 5.219v-1.42l-1.313.71 1.312.71" fill="#5d62ac"/></svg>