<svg xmlns="http://www.w3.org/2000/svg" viewBox="0 0 9 9"><defs><linearGradient id="a0ab049a-c4af-470c-a6ae-2850fe9a7b88" x1="335.403" y1="518.836" x2="344.403" y2="518.836" gradientTransform="rotate(-135 65.68 331.132)" gradientUnits="userSpaceOnUse"><stop offset="0"/><stop offset="1" stop-color="#666"/></linearGradient></defs><circle cx="4.5" cy="4.5" r="4.275" fill="#fff"/><path d="M1.565 7.434a4.15 4.15 0 115.87 0 4.155 4.155 0 01-5.87 0m-.247.248a4.5 4.5 0 100-6.364 4.5 4.5 0 000 6.364z" fill="url(#a0ab049a-c4af-470c-a6ae-2850fe9a7b88)"/><path d="M2.653 4.406a.267.267 0 11-.267-.267.267.267 0 01.267.267m4.243 0a.267.267 0 11-.267-.267.267.267 0 01.267.267M4.774 5.46a.267.267 0 11-.267-.267.267.267 0 01.267.267m-1.068-.52a.267.267 0 11-.267-.267.267.267 0 01.267.267m2.122 0a.267.267 0 11-.267-.267.267.267 0 01.267.267m-3.262.275a.18.18 0 11-.18-.181.18.18 0 01.18.18m4.244.001a.18.18 0 11-.181-.181.18.18 0 01.18.18M4.688 6.282a.18.18 0 11-.18-.18.18.18 0 01.18.18M3.62 5.748a.18.18 0 11-.18-.18.18.18 0 01.18.18m2.121 0a.18.18 0 11-.18-.18.18.18 0 01.18.18M2.48 5.85a.094.094 0 11-.094-.094.094.094 0 01.093.093m4.244.001a.094.094 0 11-.094-.094.094.094 0 01.094.093M4.601 6.917a.094.094 0 11-.094-.093.094.094 0 01.094.093m-1.068-.534a.094.094 0 11-.094-.093.094.094 0 01.094.094m2.122-.001a.094.094 0 11-.094-.093.094.094 0 01.094.094M4.86 2.35a.36.36 0 11-.36-.361.36.36 0 01.36.36m0 1.068a.36.36 0 11-.36-.36.36.36 0 01.36.36m0 1.054a.36.36 0 11-.36-.361.36.36 0 01.36.36m2.122-1.053a.36.36 0 11-.36-.36.36.36 0 01.36.36m-4.242 0a.36.36 0 11-.362-.36.36.36 0 01.361.36m1.068-.533a.36.36 0 11-.36-.361.36.36 0 01.36.36m0 1.054a.36.36 0 11-.36-.36.36.36 0 01.36.36m2.122-1.053a.36.36 0 11-.361-.361.36.36 0 01.36.36m.001 1.054a.36.36 0 11-.361-.36.36.36 0 01.36.36" fill="#141414" fill-rule="evenodd"/></svg>