<svg xmlns="http://www.w3.org/2000/svg" viewBox="0 0 9 9"><defs><linearGradient id="aa51f541-29a1-4cac-87ec-bf08f8b6a854" x1="-9.004" y1="811.225" x2="-1.53" y2="803.959" gradientTransform="scale(1 -1) rotate(89.192 411.44 406.341)" gradientUnits="userSpaceOnUse"><stop offset="0" stop-color="#0491d3"/><stop offset="1" stop-color="#45c699"/></linearGradient><linearGradient id="f2df3bf0-d373-4048-a35a-0458981457cf" x1="345.861" y1="706.062" x2="345.884" y2="706.039" gradientTransform="matrix(180 0 0 179.51 -62252.452 -126738.625)" gradientUnits="userSpaceOnUse"><stop offset="0" stop-color="#008ed7"/><stop offset="1" stop-color="#48c896"/></linearGradient></defs><circle cx="4.5" cy="4.5" r="4.493" fill="#fff"/><path d="M8.65 4.559A4.15 4.15 0 114.559.35 4.155 4.155 0 018.65 4.559m.35.005A4.5 4.5 0 104.436 9 4.5 4.5 0 009 4.564z" fill="url(#aa51f541-29a1-4cac-87ec-bf08f8b6a854)"/><path id="a82885bd-6803-49ff-b33b-df916310685e" d="M5.867 2.103a1.036 1.036 0 00-1.038 1.034v1.146c-.106.007-.216.012-.329.012s-.222.004-.33.01V3.138a1.037 1.037 0 00-2.073 0v2.74a1.037 1.037 0 002.074 0V4.73c.107-.007.216-.012.329-.012s.222-.004.33-.01v1.168a1.037 1.037 0 002.073 0v-2.74a1.036 1.036 0 00-1.036-1.033zm-2.733.424a.612.612 0 01.612.61V4.35a3.49 3.49 0 00-.882.249 1.602 1.602 0 00-.341.204V3.137a.612.612 0 01.61-.61zm.612 3.35a.612.612 0 11-1.224 0V5.6a.74.74 0 01.514-.615 3.015 3.015 0 01.71-.208v1.098zm2.12.61a.612.612 0 01-.612-.61V4.661a3.486 3.486 0 00.882-.249 1.602 1.602 0 00.341-.204v1.667a.612.612 0 01-.61.61zm.098-2.46a3.015 3.015 0 01-.71.207V3.137a.612.612 0 011.225 0v.275a.738.738 0 01-.515.614z" fill="url(#f2df3bf0-d373-4048-a35a-0458981457cf)"/></svg>