<svg xmlns="http://www.w3.org/2000/svg" viewBox="0 0 9 9"><path d="M4.5 9A4.5 4.5 0 100 4.5 4.5 4.5 0 004.5 9z" fill="#ff0420"/><path d="M2.89 5.951a1.31 1.31 0 01-.798-.229.783.783 0 01-.307-.663 1.475 1.475 0 01.02-.22q.053-.296.152-.709a1.344 1.344 0 011.437-1.125 1.427 1.427 0 01.564.106.859.859 0 01.393.311.836.836 0 01.143.491 1.458 1.458 0 01-.02.217q-.061.364-.147.708a1.5 1.5 0 01-.495.839 1.49 1.49 0 01-.942.274zm.057-.59a.582.582 0 00.39-.134.754.754 0 00.233-.413q.094-.385.143-.672a.945.945 0 00.016-.176q0-.372-.388-.372a.598.598 0 00-.393.135.767.767 0 00-.23.413q-.073.275-.147.671a.878.878 0 00-.016.172q0 .377.393.377zm1.736.549a.086.086 0 01-.038-.006.088.088 0 01-.032-.023.098.098 0 01-.012-.073l.565-2.66a.117.117 0 01.044-.074.126.126 0 01.078-.028h1.089a1.266 1.266 0 01.728.188.617.617 0 01.279.544.978.978 0 01-.025.213 1.107 1.107 0 01-.413.696 1.4 1.4 0 01-.843.225H5.55l-.188.896a.117.117 0 01-.045.074.125.125 0 01-.077.028zm1.449-1.563a.487.487 0 00.298-.094.441.441 0 00.172-.27.702.702 0 00.012-.123.228.228 0 00-.07-.18.343.343 0 00-.236-.066h-.491l-.156.733z" fill="#fff"/></svg>