<svg xmlns="http://www.w3.org/2000/svg" xmlns:xlink="http://www.w3.org/1999/xlink" viewBox="0 0 9 9"><defs><linearGradient id="fb0d7bf6-3477-49a1-a38b-c638d7f19d69" x1="-559.908" y1="1663.099" x2="-559.132" y2="1667.8" gradientTransform="matrix(1 0 0 -1 564 1669.902)" gradientUnits="userSpaceOnUse"><stop offset="0" stop-color="#81ffff"/><stop offset=".62" stop-color="#fff" stop-opacity="0"/></linearGradient><linearGradient id="f5cb8b34-078a-43d8-9eda-43d72e8c45e3" x1="-557.849" y1="1667.044" x2="-559.817" y2="1665.272" gradientTransform="matrix(1 0 0 -1 564 1669.902)" gradientUnits="userSpaceOnUse"><stop offset=".289" stop-color="#fff"/><stop offset=".78" stop-color="#fff" stop-opacity="0"/></linearGradient><linearGradient id="b1efe0bc-3a2c-4758-b0c0-2d64d453f799" x1="-561.747" y1="1664.339" x2="-557.297" y2="1664.339" gradientTransform="matrix(1 0 0 -1 564 1669.902)" gradientUnits="userSpaceOnUse"><stop offset="0" stop-color="#0002e9"/><stop offset=".995" stop-color="#ff00c7"/></linearGradient><linearGradient id="a0ce0838-607b-4faf-ade9-a93426d91b8d" x1="-557.075" y1="1665.259" x2="-559.537" y2="1662.974" xlink:href="#f5cb8b34-078a-43d8-9eda-43d72e8c45e3"/><linearGradient id="aa17430c-2d03-4e0f-a34e-c04cc536b36d" x1="-561.748" y1="1664.339" x2="-559.37" y2="1664.339" gradientTransform="matrix(1 0 0 -1 564 1669.902)" gradientUnits="userSpaceOnUse"><stop offset="0" stop-color="#000292"/><stop offset=".995" stop-color="#7d00c7"/></linearGradient><linearGradient id="ed79edbd-80ca-4944-9dbc-7c17aacf3bd4" x1="-561.742" y1="1665.263" x2="-557.301" y2="1665.263" gradientTransform="matrix(1 0 0 -1 564 1669.902)" gradientUnits="userSpaceOnUse"><stop offset="0" stop-color="#000292"/><stop offset=".995" stop-color="#be00c7"/></linearGradient><radialGradient id="b9d6c57f-7dbe-4749-8b95-7888f8a1867d" cx="-454.094" cy="1320.368" r=".288" gradientTransform="matrix(6.4927 0 0 -6.6116 2955.367 8731.767)" gradientUnits="userSpaceOnUse"><stop offset="0" stop-color="#ffeaff" stop-opacity=".6"/><stop offset=".681" stop-color="#a087c9"/><stop offset="1" stop-color="#10002f"/></radialGradient><radialGradient id="f2bc3bf1-bb91-4642-9d4e-f2f022d2a67c" cx="-440.861" cy="1283.586" r=".288" gradientTransform="matrix(15.8852 0 0 -16.1762 7009.2 20766.362)" xlink:href="#b9d6c57f-7dbe-4749-8b95-7888f8a1867d"/></defs><circle cx="4.5" cy="4.5" r="4.5"/><path d="M7.264 2.232a1.405 1.405 0 00-.586-.704 1.437 1.437 0 00-.791-.316.64.64 0 00-.13.013.381.381 0 00-.256.213.566.566 0 00-.042.431 1.095 1.095 0 00.063.115 1.576 1.576 0 01-.364.18A2.49 2.49 0 016.52 3.301l.004-.052a2.004 2.004 0 01.113-.469.628.628 0 00.176.026.449.449 0 00.373-.18.471.471 0 00.08-.395z" fill="#5e12a0"/><path d="M6.661 2.658c.381.106.536-.192.486-.392a1.319 1.319 0 00-.54-.636 1.148 1.148 0 00-.825-.281c-.201.043-.26.354-.21.473a.976.976 0 00.13.192c-.08.056-.154.098-.217.137a2.484 2.484 0 01.971.788 2.143 2.143 0 01.11-.307.464.464 0 01.095.026z" fill="url(#b9d6c57f-7dbe-4749-8b95-7888f8a1867d)"/><path d="M4.48 6.836a2.384 2.384 0 10-2.34-2.383 2.362 2.362 0 002.34 2.383z" fill="url(#f2bc3bf1-bb91-4642-9d4e-f2f022d2a67c)"/><path d="M6.954 2.07a1.55 1.55 0 00-.908-.503c-.251-.06-.184-.205.121-.175a.752.752 0 00-.385-.043c-.2.043-.26.354-.21.474a.971.971 0 00.13.192 3.144 3.144 0 01-.288.174c.038.017.084.039.138.069a2.202 2.202 0 01.297.204c-.234-.204-.184-.298.138-.529a.465.465 0 01.457.026 1.716 1.716 0 01.373.316l-.193.375.038.013a.45.45 0 00.293-.005c.087-.056.318-.243 0-.588z" style="isolation:isolate" fill="#a98698" opacity=".6"/><path d="M6.042 1.771a1.925 1.925 0 01.326.183 2.326 2.326 0 01.385.32 2.267 2.267 0 00-.301.653c.03.042.063.085.092.128a3.494 3.494 0 01.147-.422.257.257 0 00.058.004.237.237 0 00.155-.047.175.175 0 00.067-.158.496.496 0 00-.193-.307 3.081 3.081 0 00-.343-.277c-.36-.243-.611-.311-.724-.196a.218.218 0 00-.042.238c-.134.09-.247.153-.322.196.05.017.096.039.146.06a3.754 3.754 0 00.549-.375zm.791.61a.116.116 0 01.017.055.072.072 0 01-.021.06.147.147 0 01-.08.022 1.065 1.065 0 01.084-.137zm-1.034-.636a.125.125 0 01.1-.012c-.041.034-.083.064-.125.094a.085.085 0 01.025-.082z" fill="#5e12a0"/><path d="M4.48 1.929a2.501 2.501 0 00-2.479 2.524A2.501 2.501 0 004.48 6.977a2.524 2.524 0 000-5.048zm0 4.907a2.36 2.36 0 01-2.34-2.383 2.34 2.34 0 112.34 2.383z" fill="#5e12a0"/><path d="M4.48 6.836a2.384 2.384 0 10-2.34-2.383 2.362 2.362 0 002.34 2.383z" style="isolation:isolate" opacity=".6" fill="url(#fb0d7bf6-3477-49a1-a38b-c638d7f19d69)"/><path d="M4.463 6.546a2.397 2.397 0 01-1.155-4.152 2.395 2.395 0 00.795 4.412 2.305 2.305 0 001.905-.55 2.312 2.312 0 01-1.545.29z" style="isolation:isolate" fill="#a98698" opacity=".6"/><path d="M4.853 2.104a2.3 2.3 0 00-1.633.34l-.017.018a3.06 3.06 0 01.444-.21 2.227 2.227 0 00-.888.858 2.081 2.081 0 011.646-.913 2.006 2.006 0 011.49.555 2.474 2.474 0 01.75 1.867 2.615 2.615 0 01-.36 1.173 3.118 3.118 0 00.456-.75 1.686 1.686 0 00.042-.21 2.368 2.368 0 00-1.93-2.728z" style="isolation:isolate" opacity=".6" fill="url(#f5cb8b34-078a-43d8-9eda-43d72e8c45e3)"/><path d="M6.703 4.431a2.226 2.226 0 11-4.45 0z" fill="url(#b1efe0bc-3a2c-4758-b0c0-2d64d453f799)"/><path d="M6.527 4.431a2.247 2.247 0 01-2.135 2.264h.088a2.245 2.245 0 002.223-2.264z" style="isolation:isolate" opacity=".6" fill="url(#a0ce0838-607b-4faf-ade9-a93426d91b8d)"/><path d="M2.566 4.431h-.314a2.245 2.245 0 002.224 2.264c.054 0 .104 0 .154-.004a2.253 2.253 0 01-2.064-2.26z" style="isolation:isolate" opacity=".7" fill="url(#aa17430c-2d03-4e0f-a34e-c04cc536b36d)"/><path d="M6.699 4.453c0-.26-.444-.41-1.034-.46a3.493 3.493 0 00-1.353.162 2.63 2.63 0 01-1.092.072c-.624-.073-.967-.081-.967.226 0 .443.887.997 2.219.805a6.162 6.162 0 001.42-.434c.43-.145.807-.141.807-.371z" fill="url(#ed79edbd-80ca-4944-9dbc-7c17aacf3bd4)"/><path d="M5.208 3.378a.384.384 0 10-.376-.383.38.38 0 00.376.383zm.616.286a.162.162 0 10-.16-.162.16.16 0 00.16.162z" fill="#fff"/></svg>