<svg xmlns="http://www.w3.org/2000/svg" viewBox="0 0 9 9"><defs><linearGradient id="a9e7b293-8d39-439d-b1f2-576f98fe8963" x1="334.571" y1="589.66" x2="343.571" y2="589.66" gradientTransform="rotate(-135 50.595 366.372)" gradientUnits="userSpaceOnUse"><stop offset="0" stop-color="#cca727"/><stop offset="1" stop-color="#efe812"/></linearGradient></defs><circle cx="4.5" cy="4.5" r="4.275" fill="#fff"/><path d="M1.565 7.434a4.15 4.15 0 115.87 0 4.155 4.155 0 01-5.87 0m-.247.248a4.5 4.5 0 100-6.364 4.5 4.5 0 000 6.364z" fill="url(#a9e7b293-8d39-439d-b1f2-576f98fe8963)"/><path d="M2.864 6.648a2.038 2.038 0 001.411.69 1.284 1.284 0 00.85-.385 14.775 14.775 0 011.396-1.059l.273-.112a1.362 1.362 0 00.481-.369 1.118 1.118 0 00.225-.626 1.764 1.764 0 00-.289-.85 5.326 5.326 0 01-4.347 2.711z" fill="#ede70a"/><path d="M3.473 2.092a1.284 1.284 0 01.93-.4.834.834 0 01.61.208 2.792 2.792 0 001.573.513.907.907 0 01.625.305.834.834 0 01.16.497 2.231 2.231 0 01-.16.722z" fill="#ebe638"/><path d="M2.864 6.648a2.042 2.042 0 01-.562-.16 1.256 1.256 0 01-.674-.513 1.002 1.002 0 01-.128-.514 2.215 2.215 0 01.24-.978 4.525 4.525 0 00.305-1.171l.08-.321a1.513 1.513 0 01.193-.482l.176-.192a1.524 1.524 0 01.98-.225 5.005 5.005 0 00-.61 4.556z" fill="#efe812"/><path d="M3.473 2.092a6.507 6.507 0 011.412.24l.45.193a2.851 2.851 0 00-2.15.786 2.995 2.995 0 00-.707 2.664 1.637 1.637 0 01-.353-1.107 3.85 3.85 0 011.348-2.776z" fill="#dec21c"/><path d="M5.623 6.055a3.208 3.208 0 00-.289-3.53 2.198 2.198 0 011.22.642 3.045 3.045 0 01.657.77 4.733 4.733 0 01-1.588 2.118z" fill="#e5cb22"/><path d="M6.136 3.231a1.828 1.828 0 00-.786-.706 2.639 2.639 0 00-2.246.658 2.62 2.62 0 00-.786 1.797 2.744 2.744 0 00.578 1.669 3.82 3.82 0 001.444 0 2.652 2.652 0 001.283-.562 2.718 2.718 0 00.818-1.765 1.914 1.914 0 00-.305-1.09zM5.56 5.558a1.588 1.588 0 01-1.171.513A1.615 1.615 0 013.2 5.525a1.591 1.591 0 01-.368-1.042 1.794 1.794 0 01.77-1.316 1.442 1.442 0 01.786-.273 1.27 1.27 0 01.77.16 1.74 1.74 0 01.77 1.428 1.562 1.562 0 01-.37 1.075z" fill="#cca727"/></svg>