<svg xmlns="http://www.w3.org/2000/svg" viewBox="0 0 9 9"><path id="ec7827d6-d160-47d1-808c-4190301dfd7f" d="M4.53 0A4.5 4.5 0 110 4.5 4.5 4.5 0 014.53 0z" fill="#3ceaaa"/><path d="M3.387 2.337a.763.763 0 011.06 0l.7.684a.763.763 0 010 1.084L3.928 5.3l.873.857a.42.42 0 01-.587.602L2.1 4.691a.763.763 0 010-1.083zm-.06 2.37l1.165-1.144-.579-.564-1.166 1.143z" fill-rule="evenodd"/><path d="M5.14 2.916a.763.763 0 011.06 0l.7.685a.763.763 0 010 1.083L4.786 6.753a.42.42 0 01-.587-.602l.873-.858-.625-.617a.763.763 0 010-1.083zm.534 1.79l.579-.564-.58-.564-.579.564z" fill="#575756" fill-rule="evenodd"/><path d="M5.094 4.142l-.617-.579-.586.58.602.594z" style="isolation:isolate" fill="#3c3c3b" opacity=".95"/></svg>