<svg xmlns="http://www.w3.org/2000/svg" viewBox="0 0 9 9"><path id="bd0de6fa-048b-4cb8-9ede-a670246acdc1" d="M4.53 0A4.5 4.5 0 110 4.5 4.5 4.5 0 014.53 0z" fill="#04d5b3"/><path d="M2.829 3.155c.342.241.702.45 1.055.67a.1.1 0 01.055.097c-.002.833 0 1.665-.001 2.497a.559.559 0 01-1.116.006l-.002-.066V3.224c0-.023-.008-.049.009-.069zm3.428.602a1.705 1.705 0 00-.575.292c-.166.097-.328.202-.49.306a.087.087 0 01-.11 0c-.663-.418-1.33-.832-1.993-1.249a.546.546 0 01-.255-.62.557.557 0 01.53-.43.57.57 0 01.323.094l1.829 1.144.74.463zm-2.15 2.815a1.076 1.076 0 00.027-.363c.001-.3.002-.601-.001-.901a.106.106 0 01.056-.105c.62-.386 1.242-.768 1.858-1.161a.566.566 0 11.65.926Q5.436 5.76 4.172 6.55a.085.085 0 01-.064.022z" fill="#fefefe"/></svg>