<svg xmlns="http://www.w3.org/2000/svg" viewBox="0 0 9 9"><circle cx="4.5" cy="4.5" r="4.5" fill="#0c273c"/><path d="M4.481 1.3L5.55 2.358 4.48 3.417 3.414 2.359z" style="isolation:isolate" fill="#45dae2" opacity=".9"/><path d="M2.874 1.743l1.466.355-.359 1.454-1.465-.355z" style="isolation:isolate" fill="#45dae2" opacity=".85"/><path d="M6.074 1.73l-.877.235.396.394-.717.711.135.495 1.457-.39z" style="isolation:isolate" fill="#45dae2" opacity=".3"/><path d="M7.232 2.877L6.873 4.33l-1.466-.356.359-1.454z" style="isolation:isolate" fill="#45dae2" opacity=".35"/><path d="M7.7 4.476L6.657 5.558l-1.09-1.034 1.042-1.082z" style="isolation:isolate" fill="#45dae2" opacity=".4"/><path d="M7.256 6.127l-1.464.362-.365-1.453 1.465-.361z" style="isolation:isolate" fill="#45dae2" opacity=".45"/><path d="M6.096 7.258L4.63 6.902l.359-1.454 1.466.355z" style="isolation:isolate" fill="#45dae2" opacity=".5"/><path d="M4.489 7.7L3.422 6.641l1.067-1.058 1.067 1.058z" style="isolation:isolate" fill="#45dae2" opacity=".55"/><path d="M2.897 7.293l-.395-1.445 1.457-.391.394 1.445z" style="isolation:isolate" fill="#45dae2" opacity=".6"/><path d="M1.716 6.087l.359-1.454 1.466.355-.359 1.454z" style="isolation:isolate" fill="#45dae2" opacity=".65"/><path d="M1.3 4.537L2.367 3.48l1.067 1.058-1.067 1.059z" style="isolation:isolate" fill="#45dae2" opacity=".7"/><path d="M1.692 2.88l1.464-.361.365 1.452-1.465.362z" style="isolation:isolate" fill="#45dae2" opacity=".75"/></svg>