<svg xmlns="http://www.w3.org/2000/svg" viewBox="0 0 9 9"><defs><linearGradient id="f4f1cd4d-b6d2-49f6-857e-bd2ed1bb5a7a" x1="95.858" y1="594.782" x2="104.858" y2="594.782" gradientTransform="rotate(-135 -69.822 319.494)" gradientUnits="userSpaceOnUse"><stop offset="0" stop-color="#ee5a24"/><stop offset="1" stop-color="#fabf19"/></linearGradient><linearGradient id="ae073745-eea8-45c9-a0c5-c921552d57db" x1="4.858" y1="7.159" x2="4.905" y2="4.061" gradientUnits="userSpaceOnUse"><stop offset="0" stop-color="#ee5a24"/><stop offset=".21" stop-color="#ee5e24"/><stop offset=".406" stop-color="#f06922"/><stop offset=".597" stop-color="#f27c20"/><stop offset=".785" stop-color="#f5971d"/><stop offset=".969" stop-color="#f9b81a"/><stop offset="1" stop-color="#fabf19"/></linearGradient><linearGradient id="e9a3907a-1c89-47de-ba1b-4856eb732c31" x1="4.073" y1="5.782" x2="4.132" y2="2.686" gradientUnits="userSpaceOnUse"><stop offset="0" stop-color="#ee5a24"/><stop offset=".192" stop-color="#f27c20"/><stop offset=".4" stop-color="#f5991d"/><stop offset=".606" stop-color="#f8ae1b"/><stop offset=".808" stop-color="#f9bb19"/><stop offset="1" stop-color="#fabf19"/></linearGradient></defs><circle cx="4.5" cy="4.5" r="4.275" fill="#fff"/><path d="M1.565 7.434a4.15 4.15 0 115.87 0 4.155 4.155 0 01-5.87 0m-.247.248a4.5 4.5 0 100-6.364 4.5 4.5 0 000 6.364z" fill="url(#f4f1cd4d-b6d2-49f6-857e-bd2ed1bb5a7a)"/><path d="M6.427 4.525a.277.277 0 01-.01.13.353.353 0 01-.03.14.49.49 0 01-.06.17.523.523 0 01-.07.15c-.05.05-.04.12-.1.16a.917.917 0 01-.13.21 1.24 1.24 0 01-.15.19.58.58 0 01-.1.12 1.712 1.712 0 01-.18.2 1.884 1.884 0 01-.24.25 2.376 2.376 0 01-.27.28l-.28.25c-.07.09-.14.17-.21.26-.04.08-.09.15-.13.23-.01.02-.01.03-.02.04a.142.142 0 00-.02.06 2.816 2.816 0 00-.14.41 1.762 1.762 0 01-.06-.39.771.771 0 01.01-.37 1.113 1.113 0 01.11-.25.878.878 0 01.12-.26 1.665 1.665 0 01.18-.28 1.483 1.483 0 01.19-.27 1.02 1.02 0 01.13-.18.938.938 0 01.09-.12c.05-.07.1-.14.16-.21a2.332 2.332 0 00.14-.19c.03-.05.06-.09.09-.14.01-.03.02-.06.03-.1v-.06c0-.04-.02-.02-.05-.01a.335.335 0 01-.14.15 1.594 1.594 0 01-.21.15.561.561 0 01-.2.12.533.533 0 01-.2.13.654.654 0 01-.23.13c-.14.06-.28.13-.43.2a2 2 0 00-.35.29c-.05.06-.09.12-.13.17a.975.975 0 00-.12.4.567.567 0 01-.07-.4.43.43 0 01.08-.24.707.707 0 01.13-.22 1.167 1.167 0 01.2-.24.803.803 0 01.13-.13.894.894 0 01.1-.09 1.201 1.201 0 01.21-.17.283.283 0 01.1-.09 2.465 2.465 0 01.26-.19 1.497 1.497 0 01.2-.15 1.429 1.429 0 01.2-.14 1.848 1.848 0 01.27-.19l.22-.19c.04-.05.09-.1.13-.15s.08-.11.12-.16l.12-.24a2.096 2.096 0 00.1-.3 1.278 1.278 0 01.27.31.724.724 0 01.12.23.636.636 0 01.06.18.67.67 0 01.03.15.495.495 0 01.02.17c.02.02.02.05.01.09z" fill="url(#ae073745-eea8-45c9-a0c5-c921552d57db)"/><path d="M5.627 2.845a.719.719 0 01-.09.2 1.052 1.052 0 01-.18.25 1.48 1.48 0 01-.27.29 1.741 1.741 0 01-.29.25 2.706 2.706 0 01-.27.2 1.01 1.01 0 01-.21.15 1.433 1.433 0 01-.25.18.712.712 0 01-.14.1c-.08.05-.15.11-.23.17-.07.06-.14.13-.21.19-.04.04-.07.09-.11.13a1.038 1.038 0 01-.07.11 1.634 1.634 0 00-.1.18.31.31 0 01-.05.1c-.01.04-.03.09-.04.13a.464.464 0 00-.04.14 1.575 1.575 0 01-.25-.28.294.294 0 01-.07-.12.329.329 0 01-.07-.16.21.21 0 01-.04-.11.228.228 0 01-.03-.11.581.581 0 01-.04-.18v-.05a.375.375 0 01-.01-.1c0-.04 0-.06.02-.07a.405.405 0 010-.11.303.303 0 01.05-.16.282.282 0 01.04-.13.999.999 0 01.07-.15 1.535 1.535 0 01.17-.27 1.567 1.567 0 01.19-.26 2.847 2.847 0 01.23-.26 3.446 3.446 0 01.26-.28 3.316 3.316 0 01.26-.27c.08-.09.19-.16.28-.25a2.042 2.042 0 00.52-.91l.03-.09a.185.185 0 01.02-.07 1.34 1.34 0 01-.08 1.09.892.892 0 01-.15.27 1.659 1.659 0 01-.18.28 2.833 2.833 0 01-.2.28 1.829 1.829 0 01-.17.22 3.554 3.554 0 01-.23.31l-.15.24-.03.11c0 .02-.01.05.01.07.04-.02.05-.07.09-.09a1.325 1.325 0 01.26-.21 3.221 3.221 0 01.39-.25.946.946 0 01.24-.14c.11-.05.22-.1.34-.15a2.816 2.816 0 00.36-.24 1.714 1.714 0 00.22-.25 1.05 1.05 0 00.15-.44.594.594 0 01.05.52z" fill="url(#e9a3907a-1c89-47de-ba1b-4856eb732c31)"/></svg>