<svg xmlns="http://www.w3.org/2000/svg" viewBox="0 0 9 9"><defs><linearGradient id="be086151-c2fa-4625-9a5d-8a86cfde4f02" x1="89.903" y1="-127.694" x2="97.48" y2="-132.551" gradientTransform="rotate(180 48.902 -62.687)" gradientUnits="userSpaceOnUse"><stop offset="0" stop-color="#324664"/><stop offset="1"/></linearGradient></defs><circle cx="4.5" cy="4.5" r="4.275" fill="#f9fafb"/><path d="M4.5.35A4.15 4.15 0 11.35 4.5 4.155 4.155 0 014.5.35m0-.35A4.5 4.5 0 109 4.5 4.5 4.5 0 004.5 0z" fill="url(#be086151-c2fa-4625-9a5d-8a86cfde4f02)"/><path d="M3.24 2.3l1.268 1.486.85-.501s-1.027-1.373-1.3-1.276c-.256.097-.818.29-.818.29m2.15.986a3.068 3.068 0 00.29-.792 1.039 1.039 0 01.594 1.357z"/><path d="M6.274 3.85l.08 1.018.37-.048s.096-.032.08-.21l-.049-.598s.017-.097-.208-.129c-.273-.048-.273-.032-.273-.032"/><path d="M6.354 4.868l-.738.598.337.662s.08.258.321-.032c.225-.291.321-.34.305-.517s-.064-.598-.225-.711m-.754.598l-1.012-.453-.883 1.793s-.064.13.16.146c.225.032.595.113.787-.081A15.649 15.649 0 005.6 5.466m-1.012-.469l-.096-1.195-2.184.145s-.128.016-.112.259c.016.323.048.678.048.678s-.016.145.273.162a16.363 16.363 0 002.071-.049"/></svg>