<svg xmlns="http://www.w3.org/2000/svg" viewBox="0 0 9 9"><circle cx="4.5" cy="4.5" r="4.5" fill="#072b3c"/><path d="M7.51 6.459a.312.312 0 01.224.091.315.315 0 010 .45.317.317 0 01-.543-.224.352.352 0 01.011-.085.24.24 0 01.033-.076l-.557-.479-1.14.818a.132.132 0 01.014.04.27.27 0 01.003.04.212.212 0 01-.065.157.208.208 0 01-.151.065.224.224 0 01-.14-.046.2.2 0 01-.076-.121h-1.21a.2.2 0 01-.075.12.222.222 0 01-.292-.018.212.212 0 01-.065-.156.145.145 0 01.006-.04l.01-.04-.999-.716a.23.23 0 01-.062.035.217.217 0 01-.078.014.22.22 0 01-.222-.221.202.202 0 01.03-.108.211.211 0 01.079-.075L1.86 4.715h-.01a.22.22 0 110-.441h.016l.378-1.157h-.006a.226.226 0 01-.072-.075.202.202 0 01-.03-.108.223.223 0 01.3-.207.174.174 0 01.062.04l.999-.721a.501.501 0 01-.01-.038.173.173 0 01-.006-.043.22.22 0 01.221-.22.208.208 0 01.135.048.212.212 0 01.076.118h1.21a.2.2 0 01.075-.121.223.223 0 01.14-.046.208.208 0 01.152.065.213.213 0 01.065.156.327.327 0 01-.003.043.085.085 0 01-.013.038l.999.721a.172.172 0 01.065-.04.222.222 0 01.075-.013.22.22 0 01.222.22.202.202 0 01-.03.108.226.226 0 01-.073.075l.378 1.163h.016a.207.207 0 01.151.064.22.22 0 010 .312.207.207 0 01-.151.065h-.016L6.743 6.05l.561.484a.302.302 0 01.095-.056.318.318 0 01.111-.019zm-.794-3.245l-.07 1.07a.28.28 0 01.094.063.183.183 0 01.052.1h.183a.205.205 0 01.035-.076.202.202 0 01.062-.054l-.356-1.103zm-.103-.07l-.005-.006a.127.127 0 01-.054-.027.566.566 0 01-.049-.043l-.367.156.003.022.002.016a.2.2 0 01-.021.092.211.211 0 01-.054.07l.453.86.008-.005h.008l.076-1.135zm-1.237 1.14l.405-.855a.254.254 0 01-.054-.062.192.192 0 01-.027-.078l-.977-.124a.304.304 0 01-.024.04.286.286 0 01-.03.035l.605 1.05a.204.204 0 01.032-.008.187.187 0 01.032-.003l.022.003zm.503-.807l-.4.856a.172.172 0 01.043.051.379.379 0 01.027.062h.815a.193.193 0 01.022-.062.169.169 0 01.044-.05l-.454-.862a.25.25 0 01-.03.008l-.025.003L5.9 3.48zm-.697.867l-.605-1.05a.16.16 0 00-.03.003.148.148 0 01-.03.003.152.152 0 01-.03-.003.117.117 0 00-.024-.002l-.61 1.049a.295.295 0 01.037.046.142.142 0 01.022.056h1.21a.333.333 0 01.025-.056.205.205 0 01.035-.046zm-1.42-.054l.604-1.05a.277.277 0 01-.03-.035.22.22 0 01-.024-.045l-.977.13a.192.192 0 01-.027.077.25.25 0 01-.054.062l.405.856.022-.003.021-.003a.144.144 0 01.03.003.232.232 0 01.03.008zm-.2.043l-.4-.856-.022.003a.088.088 0 01-.021.003.15.15 0 01-.03-.003l-.025-.003-.453.861a.185.185 0 01.043.049.297.297 0 01.027.06h.81a.146.146 0 01.024-.066.235.235 0 01.047-.048zm-.88.22a.298.298 0 01-.028.06.185.185 0 01-.043.048l.454.867a.053.053 0 01.024-.005h.068l.405-.856a.235.235 0 01-.046-.049.213.213 0 01-.03-.064zm.977.162l-.405.856a.252.252 0 01.054.062.193.193 0 01.027.078l.978.124a.52.52 0 01.024-.043.213.213 0 01.03-.038L3.762 4.71a.098.098 0 01-.027.008.184.184 0 01-.033.003l-.021-.003zm.195-.059L4.457 5.7v.005l.03-.008a.148.148 0 01.03-.002.197.197 0 01.033.002l.026.003.605-1.044a.302.302 0 01-.038-.046.142.142 0 01-.022-.057h-1.21a.142.142 0 01-.021.057.3.3 0 01-.038.046zm1.522.06l-.016.002a.118.118 0 01-.027.003.145.145 0 01-.03-.003.237.237 0 01-.03-.008l-.599 1.044a.143.143 0 01.027.038l.022.043.983-.124a.22.22 0 01.024-.078.211.211 0 01.051-.062zm.098-.05l.405.857h.067a.052.052 0 01.024.005l.465-.872a.124.124 0 01-.044-.043.293.293 0 01-.027-.06H5.55a.213.213 0 01-.03.065.237.237 0 01-.045.049zm.988-1.7l-.003-.013a.06.06 0 01-.002-.02.178.178 0 01.005-.042.515.515 0 01.01-.038l-.993-.721-.005.003v.002l.41.908.016-.003h.022a.195.195 0 01.097.024.282.282 0 01.076.062zm-1.21-.796l-.562.775a.323.323 0 01.03.048.13.13 0 01.014.06l.983.129a.278.278 0 01.027-.051.135.135 0 01.043-.04l-.41-.91-.022.003-.021.002a.15.15 0 01-.04-.005l-.04-.01zm-1.34-.151a.153.153 0 01-.015.046.392.392 0 01-.027.04l.567.77v.005a.088.088 0 01.037-.013.348.348 0 01.044-.003.286.286 0 01.04.003.19.19 0 01.035.008l.572-.77a.278.278 0 01-.027-.043.204.204 0 01-.016-.043zm-.21.167l-.021-.003-.017-.003-.41.91a.161.161 0 01.038.04.278.278 0 01.027.051l.983-.129a.291.291 0 01.016-.06.145.145 0 01.032-.047l-.567-.775-.038.01a.18.18 0 01-.043.006zm-.14-.054l-1 .721.012.035a.146.146 0 01.005.04v.022a.022.022 0 01-.005.016l.372.162a.207.207 0 01.073-.062.21.21 0 01.1-.024h.02a.043.043 0 01.018.005l.41-.91-.005-.003zm-1.032.936a.188.188 0 01-.043.04.23.23 0 01-.06.03l.081 1.147h.011l.454-.861a.166.166 0 01-.057-.07.213.213 0 01-.019-.086v-.022a.048.048 0 01.006-.022zm-.205 2.718L2.4 4.71h-.005a.264.264 0 01-.086-.062.235.235 0 01-.054-.094H2.06a.208.208 0 01-.035.075.202.202 0 01-.062.054l.362 1.103zm-.07-1.34a.235.235 0 01.054-.094.252.252 0 01.091-.062l-.075-1.076-.357 1.098a.25.25 0 01.06.056.158.158 0 01.032.078zm.173 1.416a.24.24 0 01.057.027.208.208 0 01.045.043l.373-.156a.044.044 0 01-.005-.02v-.018a.225.225 0 01.019-.092.166.166 0 01.056-.07l-.453-.86h-.011zm.148.171l.003.017v.022a.173.173 0 01-.006.043.515.515 0 01-.01.037l.999.716.005-.005-.41-.91a.048.048 0 01-.021.005h-.023a.195.195 0 01-.097-.024.28.28 0 01-.075-.062zm1.088.787l.016-.003.022-.002a.177.177 0 01.043.005l.038.01.47-.645.097-.13a.218.218 0 01-.032-.053.281.281 0 01-.017-.06l-.977-.123h-.005a.278.278 0 01-.027.05.161.161 0 01-.038.04zm.936-.703a.133.133 0 01-.04.011.347.347 0 01-.086 0 .086.086 0 01-.037-.013l-.568.78a.132.132 0 01.027.04.282.282 0 01.017.045h1.21a.202.202 0 01.016-.043.27.27 0 01.027-.043zm.776.703l.011-.033.394-.877a.397.397 0 01-.037-.043.209.209 0 01-.027-.048l-.983.123a.132.132 0 01-.014.06.313.313 0 01-.035.053l.567.775.04-.01a.15.15 0 01.04-.006l.022.003zm.103.048l1.091-.791-.475-.205v.006a.24.24 0 01-.076.059.214.214 0 01-.097.021H5.9a.022.022 0 01-.016-.005l-.4.883-.011.027v.005zm.659-1.092l.48.21-.08-1.276h-.011l-.46.867a.305.305 0 01.055.072.185.185 0 01.021.089l-.002.019a.06.06 0 00-.003.019zm.507-1.071l.07 1.081.357-1.103a.201.201 0 01-.062-.054.208.208 0 01-.035-.075h-.19a.175.175 0 01-.048.091.27.27 0 01-.091.06z" fill="#32a5d2"/></svg>