<svg xmlns="http://www.w3.org/2000/svg" xmlns:xlink="http://www.w3.org/1999/xlink" viewBox="0 0 9 9"><defs><linearGradient id="a7c85722-9221-449a-a2cb-dbecb63a3c83" x1="128.537" y1="415.901" x2="122.348" y2="418.376" gradientTransform="translate(-120.945 -412.638)" gradientUnits="userSpaceOnUse"><stop offset="0" stop-color="#af46af"/><stop offset=".49" stop-color="#4267b0"/><stop offset=".49" stop-color="#4368b0"/><stop offset="1" stop-color="#64d2d2"/></linearGradient><linearGradient id="e5a125c9-8c3a-4adf-9fb9-bb71e1d77575" x1="128.417" y1="415.601" x2="122.228" y2="418.076" xlink:href="#a7c85722-9221-449a-a2cb-dbecb63a3c83"/><linearGradient id="b8296a33-907a-4ea3-9221-cf398d4816b8" x1="129.036" y1="417.15" x2="122.847" y2="419.625" xlink:href="#a7c85722-9221-449a-a2cb-dbecb63a3c83"/><linearGradient id="abb7bd73-164a-4962-9e6b-44033e686f09" x1="128.376" y1="415.502" x2="122.188" y2="417.977" xlink:href="#a7c85722-9221-449a-a2cb-dbecb63a3c83"/></defs><path id="b643be81-f198-45d6-96a0-b6cf9ec0aa5c" d="M4.5 0A4.5 4.5 0 110 4.5 4.5 4.5 0 014.5 0z" fill="#061128"/><path d="M7.113 3.66v2.35L4.5 7.52 1.885 6.01V2.992L4.5 1.481l2.01 1.16.302-.174L4.5 1.131 1.582 2.815v3.37L4.5 7.869l2.918-1.684v-2.7z" fill="url(#a7c85722-9221-449a-a2cb-dbecb63a3c83)"/><path d="M3.767 6.01H3.33V4.545h1.458a.526.526 0 00.519-.524.534.534 0 00-.038-.2.505.505 0 00-.114-.167.524.524 0 00-.167-.114.503.503 0 00-.2-.04H3.33v-.446h1.46a.972.972 0 01.965.965.932.932 0 01-.17.546.965.965 0 01-.421.344 1.643 1.643 0 01-.523.078h-.874z" fill="url(#e5a125c9-8c3a-4adf-9fb9-bb71e1d77575)"/><path d="M5.746 5.974h-.51l-.393-.687a1.706 1.706 0 00.457-.093z" fill="url(#b8296a33-907a-4ea3-9221-cf398d4816b8)"/><path d="M6.808 3.17l.303.17.301-.167v-.354l-.3-.174-.302.174v.352z" fill="url(#abb7bd73-164a-4962-9e6b-44033e686f09)"/></svg>