<svg xmlns="http://www.w3.org/2000/svg" viewBox="0 0 9 9"><circle cx="4.5" cy="4.5" r="4" fill="#f9fafb"/><path d="M4.5 9A4.5 4.5 0 119 4.5 4.5 4.5 0 014.5 9zM2.539 2.71l.452-.261.064.105 1.68-.97-.124-.073-.124-.069-.06-.036-2.74 1.583v.068l.788-.452zm0 .997l1.317-.76.059.106 1.684-.97-.124-.073-.123-.069-.06-.036L1.688 3.98v.073l.787-.452zm0 .498l1.747-1.01.059.105 1.684-.97-.123-.069-.125-.073-.059-.037-4.034 2.33v.073l.787-.457zm0 .495L4.73 3.437l.06.106 1.67-.966-.124-.069-.124-.072-.059-.033L1.688 4.98v.068l.787-.452zm0 .498L5.16 3.685l.06.11 1.67-.966-.124-.073-.118-.069-.065-.036-4.895 2.827v.068l.787-.453zm4.537-2.264l-.063-.036-5.325 3.078v.068l.786-.452.065.105L5.16 4.183l.06.105 1.948-1.12V2.99zm-5.05 3.413l.44-.252.064.105 2.616-1.514.064.11L7.168 3.66v-.352l-5.2 3.001zm3.12-1.162l.064.11 1.958-1.134v-.353l-4.77 2.755.058.036.449-.26.063.104zm-2.26 1.66l.453-.261.059.11 1.748-1.011.063.105 1.959-1.13v-.357L2.827 6.81l.06.037zm.434.247l.449-.256.059.105 1.318-.76.063.105 1.959-1.13v-.355l-3.912 2.26zm.366.215l.065.036.448-.26.06.11.887-.513.063.106 1.959-1.13v-.357zm.495.283l.448-.256.064.105.453-.265.063.11 1.958-1.13v-.357L4.121 7.56zm.988-5.76l-.124-.068-.123-.073-.064-.037-3.17 1.835v.068l.786-.453.065.106.887-.512.06.105 1.683-.97z" fill="#0f3056"/></svg>