<svg xmlns="http://www.w3.org/2000/svg" viewBox="0 0 9 9"><defs><linearGradient id="bfcec34f-f5af-45d6-807b-9a05bd030a2e" x1="315.786" y1="472.33" x2="324.786" y2="472.33" gradientTransform="rotate(-135 65.502 303.816)" gradientUnits="userSpaceOnUse"><stop offset="0" stop-color="#008c62"/><stop offset="1" stop-color="#00e6a0"/></linearGradient></defs><circle cx="4.5" cy="4.5" r="4.275" fill="#fff"/><path d="M1.565 7.434a4.15 4.15 0 115.87 0 4.155 4.155 0 01-5.87 0m-.247.248a4.5 4.5 0 100-6.364 4.5 4.5 0 000 6.364z" fill="url(#bfcec34f-f5af-45d6-807b-9a05bd030a2e)"/><path d="M5.166 4.754L6.2 3.724a.41.41 0 00.12-.293l.003-.833a.167.167 0 00-.046-.115l-1.985 1.98a.411.411 0 000 .584l1.4 1.394a.412.412 0 10.58-.584z" fill="#008c62"/><path d="M6.16 2.439H3.046a.431.431 0 00-.438.45v3.256a.416.416 0 00.413.414h.013a.414.414 0 00.412-.412V3.241h2.073l.759-.755a.16.16 0 00-.116-.047" fill="#00e6a0"/></svg>