<svg xmlns="http://www.w3.org/2000/svg" viewBox="0 0 9 9"><circle cx="4.5" cy="4.5" r="4.5" fill="#cf1011"/><path d="M4.5 1.695h-.013v.377H4.5a2.431 2.431 0 11-1.972 1.014 2.584 2.584 0 01.25-.295.352.352 0 01-.224-.305 2.647 2.647 0 00-.289.322A2.803 2.803 0 104.5 1.695z" fill="#fff"/><circle cx="4.5" cy="4.5" r="1.081" fill="#fff"/><path d="M3.622 2.237a.724.724 0 00-.205-.324.74.74 0 00-1.244.541.724.724 0 00.092.354.716.716 0 00.263.278.73.73 0 00.385.108.742.742 0 00.742-.74.75.75 0 00-.033-.217zm-.709.581a.328.328 0 01-.136-.027.352.352 0 01-.224-.305.081.081 0 01-.004-.032.364.364 0 01.364-.364.305.305 0 01.117.021.353.353 0 01.243.293.21.21 0 01.006.05.366.366 0 01-.366.364z" fill="#fff"/></svg>