<svg xmlns="http://www.w3.org/2000/svg" viewBox="0 0 9 9"><circle cx="4.5" cy="4.5" r="4.275" fill="#f9fafb"/><path d="M4.5.35A4.15 4.15 0 11.35 4.5 4.155 4.155 0 014.5.35m0-.35A4.5 4.5 0 109 4.5 4.5 4.5 0 004.5 0z" fill="#0078c8"/><path d="M6.656 2.868a2.136 2.136 0 00-1.674-.858A2.385 2.385 0 002.754 4.5a1.452 1.452 0 001.264 1.577.922.922 0 00.186-.017 1.93 1.93 0 01-.731-1.56 1.69 1.69 0 011.51-1.822A1.69 1.69 0 016.49 4.5a2.96 2.96 0 01-.685 1.89 2.351 2.351 0 01-1.412.812s.047.004.106.004A2.708 2.708 0 007.206 4.5a2.673 2.673 0 00-.55-1.632M6.246 4.5a1.452 1.452 0 00-1.264-1.577.923.923 0 00-.186.017 1.93 1.93 0 01.731 1.56 1.69 1.69 0 01-1.509 1.822A1.69 1.69 0 012.508 4.5a2.96 2.96 0 01.686-1.89 2.352 2.352 0 011.412-.812s-.047-.004-.106-.004A2.708 2.708 0 001.794 4.5a2.673 2.673 0 00.55 1.632 2.131 2.131 0 001.674.854A2.379 2.379 0 006.246 4.5" fill="#0089db" fill-rule="evenodd"/></svg>