<svg xmlns="http://www.w3.org/2000/svg" viewBox="0 0 9 9"><defs><linearGradient id="a162dbc8-d4db-485c-8bce-d2260bd4136e" x1="-555.08" y1="1668.757" x2="-564.08" y2="1661.926" gradientTransform="matrix(1 0 0 -1 564 1669.902)" gradientUnits="userSpaceOnUse"><stop offset="0" stop-color="#dc5f32"/><stop offset="1" stop-color="#e1a955"/></linearGradient></defs><path d="M4.5 9A4.5 4.5 0 100 4.5 4.5 4.5 0 004.5 9z" fill="url(#a162dbc8-d4db-485c-8bce-d2260bd4136e)"/><path d="M7.054 2.292a4.265 4.265 0 01-1.93 2.933l-.21.786-.735.5-.218-.811a.769.769 0 01-.432-.102l-.296.25-.26-.308.296-.25a.574.574 0 01.012-.538c-.17-.085-.566-.253-.744-.327l.616-.642.78-.11a4.04 4.04 0 013.12-1.38zM4.98 4.097a.396.396 0 10.047-.559.396.396 0 00-.047.559zm-3.502 2.58l.984-.773.25.32-.983.773zm-.193-.773l.983-.773.251.32-.984.773zm.983 1.266l.984-.774.25.32-.983.773z" fill="#fff" fill-rule="evenodd"/></svg>