<svg xmlns="http://www.w3.org/2000/svg" viewBox="0 0 9 9"><path d="M4.5 9A4.5 4.5 0 100 4.5 4.509 4.509 0 004.5 9" fill-rule="evenodd"/><path d="M3.346 2.168h.648a.045.045 0 01.044.045v.946a.045.045 0 00.045.045h.832a.045.045 0 00.045-.045v-.946a.045.045 0 01.045-.045h.648a.045.045 0 01.045.045v.946a.045.045 0 00.045.045h.792a.045.045 0 01.045.045v.647a.045.045 0 01-.045.045h-.792a.045.045 0 00-.045.045V4.99a.045.045 0 00.045.045h.792a.045.045 0 01.045.045v.647a.045.045 0 01-.045.045h-.792a.045.045 0 00-.045.045v.946a.045.045 0 01-.045.045h-.648a.045.045 0 01-.045-.045v-.946a.045.045 0 00-.045-.045h-.831a.045.045 0 00-.045.045v.946a.045.045 0 01-.045.045h-.648a.045.045 0 01-.045-.045v-.946a.045.045 0 00-.045-.045h-.792a.045.045 0 01-.045-.045V5.08a.045.045 0 01.045-.045h.792a.045.045 0 00.045-.045V3.986a.045.045 0 00-.045-.045h-.792a.045.045 0 01-.045-.045v-.647a.045.045 0 01.045-.045h.792a.045.045 0 00.045-.045v-.946a.044.044 0 01.045-.045M4.96 4.992V3.986a.045.045 0 00-.045-.045h-.832a.045.045 0 00-.045.045V4.99a.045.045 0 00.045.045h.832a.045.045 0 00.045-.044" fill="#fff" fill-rule="evenodd"/></svg>