<svg xmlns="http://www.w3.org/2000/svg" viewBox="0 0 9 9"><defs><linearGradient id="0ba58a7e-e7e0-4b25-9397-1d0c05b6e548" x1="1.605" y1="8.845" x2="8.429" y2="14.713" gradientTransform="matrix(1 0 0 -1 0 15.835)" gradientUnits="userSpaceOnUse"><stop offset="0" stop-color="#0e0546"/><stop offset="1" stop-color="#3c4183"/></linearGradient></defs><circle cx="4.5" cy="4.5" r="4.275" fill="#f9fafb"/><path d="M4.5.35A4.15 4.15 0 11.35 4.5 4.15 4.15 0 014.5.35m0-.35A4.5 4.5 0 109 4.5 4.5 4.5 0 004.5 0z" fill="url(#0ba58a7e-e7e0-4b25-9397-1d0c05b6e548)"/><path fill="#182160" d="M3.737 2.919l-.996 4.16-.344.14 1.34-4.3z"/><path fill="#3c4183" d="M3.785 2.89l.569 3.514.957.017L3.784 2.89h.001z"/><path fill="#e1553b" d="M3.806 2.864l1.536 3.557.465-3.273-2.001-.284z"/><path fill="#182160" d="M5.378 6.37l.746-2.817-.296-.375-.45 3.192z"/><path fill="#0e0546" d="M5.799 3.118l-.195-.855-1.755.577 1.953.278h-.003z"/><path fill="#3c4183" d="M3.84 2.81l1.765-.577-.57-.251-1.195.828z"/><path fill="#e1553b" d="M3.81 2.801l1.204-.833-.973.391-.23.442H3.81zm.231-.462l.915-.37-.804.026-.111.344zm.104-.37l.815-.027-.557-.251-.258.278z"/><path fill="#f05239" d="M4.42 1.673l.891.398-.502-.589-.389.191zm.445-.167l.476.568.103-.314-.579-.254z"/><path fill="#e1553b" d="M5.361 2.084l.236.12-.131-.441-.106.322.001-.001z"/><path fill="#f05239" d="M4.821 1.47l.621.256-.195-.256h-.426z"/><path fill="#f57c08" d="M6.359 2.023l-.734.192-.122-.437.856.245z"/><path fill="#0e0546" d="M4.326 6.415l-1.652 1.05.097-.386 1.555-.664z"/><path fill="#0e0546" d="M2.674 7.465l1.659-1.049-.564-3.499-1.095 4.548z"/></svg>