<svg xmlns="http://www.w3.org/2000/svg" viewBox="0 0 9 9"><circle cx="4.5" cy="4.5" r="4.5" fill="#282828"/><path d="M4.5 2.524a1.973 1.973 0 000 3.947h1.973V4.497A1.974 1.974 0 004.5 2.524zM3.304 4.497a1.2 1.2 0 012.4 0v1.205H4.5a1.201 1.201 0 01-1.196-1.205z" fill="#00c59c"/><circle cx="2.145" cy="2.144" r=".411" fill="#00c59c"/><path d="M4.495 1.1a3.302 3.302 0 00-1.78.51l.14.15a3.095 3.095 0 011.64-.46 3.2 3.2 0 11-3.2 3.2 3.066 3.066 0 01.47-1.64l-.16-.15a3.406 3.406 0 102.89-1.61z" fill="#7c8889"/></svg>