<svg xmlns="http://www.w3.org/2000/svg" viewBox="0 0 9 9"><circle cx="4.5" cy="4.5" r="4.5" fill="#1b1b1b"/><path d="M4.77 3.953c-.53-.21-1.03-.4-1.05-.83-.01-.32.36-.55.63-.56a1.777 1.777 0 011.47.62.138.138 0 10.19-.2 2.056 2.056 0 00-1.7-.69c-.79.04-1.48.45-1.43 1.32.03.77.78 1.05 1.44 1.31.5.19.94.35.97.71.02.4-.39.64-.74.66a1.768 1.768 0 01-1.48-.62.151.151 0 00-.19-.01.138.138 0 00-.01.21 2.078 2.078 0 001.72.69c.73-.05 1.63-.46 1.59-1.33-.04-.76-.76-1.04-1.41-1.28zm.68 2.09l-.02-.01a.795.795 0 00.11-.48c0-.5-.54-.69-1.11-.89-.63-.23-1.3-.47-1.3-1.14a.896.896 0 01.41-.78l.01.01a1.104 1.104 0 00-.1.47c0 .54.6.77 1.21.99.63.23 1.24.46 1.24 1.03a.94.94 0 01-.45.8z" fill="#fff" fill-rule="evenodd"/><path d="M5.9 5.243a.94.94 0 01-.45.8l-.02-.01a.795.795 0 00.11-.48c0-.5-.54-.69-1.11-.89-.63-.23-1.3-.47-1.3-1.14a.896.896 0 01.41-.78l.01.01a1.104 1.104 0 00-.1.47c0 .54.6.77 1.21.99.63.23 1.24.46 1.24 1.03z" fill="#646464" fill-rule="evenodd"/><path d="M4.462 8.19A3.728 3.728 0 118.19 4.462 3.732 3.732 0 014.462 8.19zm0-7.246A3.518 3.518 0 107.98 4.462 3.522 3.522 0 004.462.944z" fill="#fff"/></svg>