<svg xmlns="http://www.w3.org/2000/svg" viewBox="0 0 9 9"><defs><linearGradient id="ab599bbb-6ad4-4bee-8b54-fa5f253be13e" x1="-27.928" y1="-127.864" x2="-20.35" y2="-132.721" gradientTransform="rotate(180 -10.014 -62.772)" gradientUnits="userSpaceOnUse"><stop offset="0" stop-color="#ff8300"/><stop offset=".291" stop-color="#fa5500"/><stop offset=".607" stop-color="#f42a00"/><stop offset=".855" stop-color="#f10f00"/><stop offset="1" stop-color="#f00500"/></linearGradient></defs><circle cx="4.5" cy="4.5" r="4.275" fill="#f9fafb"/><path d="M4.5.35A4.15 4.15 0 11.35 4.5 4.155 4.155 0 014.5.35m0-.35A4.5 4.5 0 109 4.5 4.5 4.5 0 004.5 0z" fill="url(#ab599bbb-6ad4-4bee-8b54-fa5f253be13e)"/><path id="ba6dc62a-7194-490e-ac90-d2dac17464a6" d="M5.744 2.22a3.45 3.45 0 00-.381.452l-.036-.012a2.609 2.609 0 00-.638-.124 5.003 5.003 0 00-.388 0 2.253 2.253 0 00-.632.125l-.023.008a3.404 3.404 0 00-.394-.449 2.734 2.734 0 012.23-.118c.078.03.154.064.228.1z" fill="#f00500"/><path id="bb039131-179d-42e3-9e91-ca43f7f3f665" d="M7.036 5.387a2.608 2.608 0 01-.467.82 2.907 2.907 0 01-.366.358 2.699 2.699 0 01-1.055.52 2.765 2.765 0 01-1.296 0 2.693 2.693 0 01-1.055-.52 2.913 2.913 0 01-.366-.358 2.577 2.577 0 01-.467-2.512 2.719 2.719 0 01.213-.46c.039-.066.087-.141.11-.172.08.345.18.648.216.757l-.009.019a3.027 3.027 0 00-.325 1.178v.016a.726.726 0 00.016.255 1.633 1.633 0 00.558.757 3.217 3.217 0 001.675.76 2.909 2.909 0 001.834-.726 2.62 2.62 0 00.23-.232 1.269 1.269 0 00.123-.164l.004-.003.003-.006.003-.004.004-.004.003-.004.003-.005.001-.004.004-.004.003-.004.004-.003a.089.089 0 01.01-.02 2.19 2.19 0 00.07-.123 1.151 1.151 0 00.092-.3.845.845 0 00.007-.15l-.001-.018-.005-.067a2.733 2.733 0 00-.007-.116 2.448 2.448 0 00-.317-1.017.287.287 0 01-.018-.035l-.003-.007a8.68 8.68 0 00.216-.774l.002.001.012.017c.022.03.08.116.105.158a2.565 2.565 0 01.237 2.196z" fill="#f00500"/><path id="aa16838b-0390-4ec2-9b11-40259077a5de" d="M5.952 4.39a.282.282 0 01-.08.082 1.396 1.396 0 01-.532.2.653.653 0 01-.275.007c-.023-.011-.026-.02-.018-.05a.406.406 0 01.163-.196c.045-.032.228-.143.313-.19a1.109 1.109 0 01.33-.133.17.17 0 01.064 0c.015.006.031.05.038.103a1.366 1.366 0 01-.003.176z"/><path id="be8bc517-b9e8-4c56-a5a9-10af39ccf2c7" d="M3.985 4.666a.09.09 0 01-.059.025.945.945 0 01-.164-.004 1.729 1.729 0 01-.502-.145.632.632 0 01-.173-.116l-.023-.024-.003-.032a.878.878 0 01.003-.173.228.228 0 01.026-.073c.007-.009.007-.009.037-.009a.36.36 0 01.118.022 2.296 2.296 0 01.441.22.767.767 0 01.256.199.167.167 0 01.043.11z"/><path id="adc97099-ff06-4597-9ede-372b526973b4" d="M5.167 5.828l-.022.09-.023.088a.15.15 0 01-.026 0h-.027l-.037.087-.04.099-.006.012-.017-.029-.018-.028v-.231l-.007.001a2.683 2.683 0 01-.16.021 2.274 2.274 0 01-.548-.011.568.568 0 00-.056-.007l.002.12.003.118-.015.022-.015.023c-.002.002-.01-.011-.03-.05a.566.566 0 01-.046-.127l-.006-.024-.026.002-.026.003-.007-.031a.935.935 0 01-.009-.057l-.002-.027-.022-.02-.027-.022a.018.018 0 01-.006-.014v-.01h.104l.105.001.003.011.004.011.035.002.14.004.105.003.027-.042.027-.042h.035v-.087L4.531 5.6l-.046-.02a.448.448 0 01-.267-.23.32.32 0 01-.009-.108.334.334 0 01.005-.109.121.121 0 01.086-.085 1.975 1.975 0 01.249-.004h.232l.026.013a.144.144 0 01.063.05.138.138 0 01.026.098.736.736 0 01-.013.16.348.348 0 01-.048.096.445.445 0 01-.187.131l-.02.008v.088l.001.087.019.002.018.001.025.038.024.038h.112l.121.001c.009.002.01.001.019-.013l.01-.015h.096a.303.303 0 01.093.001z"/><path id="bb64a134-e71c-4b49-9e91-2d8b0fcc20c9" d="M4.726 6.068c-.015.009-.026.013-.029.012l-.027-.02-.022-.019-.023.025c-.051.055-.053.058-.068.059-.024.002-.029-.002-.057-.045l-.027-.04-.023-.002-.023-.003-.011.023-.011.022-.02-.006a.404.404 0 01-.044-.017l-.025-.013v-.047h.222l.223.001v.023c.001.027.002.026-.035.047z"/><path id="f5a8da82-94a6-42c7-8914-23afe2764f2f" d="M6.814 5.049l-.002-.019a1.776 1.776 0 00-1.303.404 1.012 1.012 0 00-.973-.785 1.245 1.245 0 00-1.1.785 1.443 1.443 0 00-1.267-.417v.016a.726.726 0 00.016.255 1.633 1.633 0 00.558.757 3.217 3.217 0 001.675.76 2.909 2.909 0 001.834-.726 2.62 2.62 0 00.23-.232 1.269 1.269 0 00.123-.163l.004-.004.003-.006.003-.004.004-.004.003-.004.003-.005.001-.004.004-.004.003-.004.004-.003a.089.089 0 01.01-.02c.013-.019.063-.108.07-.123a1.151 1.151 0 00.092-.3 1.003 1.003 0 00.005-.15zM4.726 6.068c-.015.009-.026.013-.029.012l-.027-.02-.022-.019-.023.025c-.051.055-.053.058-.068.059-.024.002-.029-.002-.057-.045l-.027-.04-.023-.002-.023-.003-.011.023-.011.022-.02-.006a.404.404 0 01-.044-.017l-.025-.013v-.047h.222l.223.001v.023c.001.027.002.026-.035.047zm.418-.15a3.69 3.69 0 00-.023.087.14.14 0 01-.026.001h-.027l-.036.088-.04.099-.006.011-.017-.028-.018-.029v-.231l-.007.001a2.683 2.683 0 01-.16.021 2.274 2.274 0 01-.548-.011.568.568 0 00-.056-.007l.002.12.003.118-.015.022-.015.023c-.002.002-.01-.011-.03-.05a.566.566 0 01-.046-.127l-.006-.024-.026.002-.026.003-.007-.031a.935.935 0 01-.009-.057l-.002-.027-.022-.02-.027-.022a.018.018 0 01-.006-.014v-.01h.104l.105.001.003.011.004.011.035.002.14.004.105.003.027-.042.027-.042h.035v-.087L4.531 5.6l-.046-.02a.448.448 0 01-.267-.23.32.32 0 01-.009-.108.334.334 0 01.005-.109.121.121 0 01.086-.085 1.975 1.975 0 01.249-.004h.232l.026.013a.144.144 0 01.063.05.138.138 0 01.026.098.736.736 0 01-.013.16.348.348 0 01-.048.096.445.445 0 01-.187.131l-.02.008v.088l.001.087.019.002.018.001.025.038.024.038h.112l.121.001c.009.002.01.001.019-.013l.01-.015h.096a.401.401 0 01.096.003.575.575 0 00-.026.087z" fill="#fff"/><path id="b5f953bf-070d-4dc5-9833-8c050de902f0" d="M2.167 5.017a.78.78 0 00-.083.016" fill="none"/><path id="af9820fd-a81b-4527-b6b9-4b74b022cd92" d="M6.887 5.041s-.027-.005-.074-.01" fill="none"/><path id="f49c0e3b-6c0b-4d42-8cfd-342749bcc65b" d="M6.808 4.964a2.897 2.897 0 00-.008-.116 2.448 2.448 0 00-.317-1.017.287.287 0 01-.018-.036l-.003-.006a8.68 8.68 0 00.216-.774c.114-.505.187-1.095-.035-1.272a1.31 1.31 0 00-.899.476 3.458 3.458 0 00-.38.452l-.036-.011a2.609 2.609 0 00-.638-.124 5.003 5.003 0 00-.388 0 2.253 2.253 0 00-.632.124l-.023.009a3.396 3.396 0 00-.394-.449 1.38 1.38 0 00-.933-.477c-.235.183-.155.799-.033 1.32.08.345.178.648.215.757l-.01.019a3.029 3.029 0 00-.324 1.178 1.442 1.442 0 011.269.417 1.245 1.245 0 011.099-.785 1.012 1.012 0 01.973.785 1.78 1.78 0 011.303-.404zM2.659 3.506a3.041 3.041 0 01-.232-1.227.431.431 0 01.078-.191s.354.035.925.67a1.643 1.643 0 00-.254.164l-.001.001a2.007 2.007 0 00-.516.583zm1.326 1.16a.09.09 0 01-.059.025.945.945 0 01-.164-.004 1.729 1.729 0 01-.502-.145.632.632 0 01-.173-.116l-.023-.024-.003-.032a.878.878 0 01.003-.173.228.228 0 01.026-.073c.007-.009.007-.009.037-.009a.36.36 0 01.118.022 2.296 2.296 0 01.441.22.767.767 0 01.256.199.167.167 0 01.043.11zm1.967-.277a.282.282 0 01-.08.083 1.396 1.396 0 01-.532.2.653.653 0 01-.275.007c-.023-.011-.026-.02-.018-.05a.406.406 0 01.163-.196c.045-.032.228-.143.313-.19a1.109 1.109 0 01.33-.133.17.17 0 01.064 0c.015.006.031.05.038.103a1.366 1.366 0 01-.003.176zm-.138-1.467l-.002-.001a1.56 1.56 0 00-.245-.165c.552-.634.893-.67.893-.67a.454.454 0 01.075.192 3.135 3.135 0 01-.224 1.227 1.989 1.989 0 00-.497-.583z" fill="#ffa409"/><path id="f949dfa4-82db-40d1-98f2-f898f8753a53" d="M5.363 2.671l-.005.006" fill="none"/><path id="f9b0d974-79f8-45d9-917d-d2b78b28cae4" d="M6.46 3.788l-.005.017" fill="none"/><path id="bbbc9353-aaa5-4295-8c2f-211dbe926013" d="M6.536 2.278c-.065-.008-.373-.01-.722.644l-.002-.001a1.56 1.56 0 00-.245-.165c.552-.634.893-.67.893-.67a.442.442 0 01.076.192z" fill="#ff9300"/><path id="e4bcf8a7-6a88-4da5-bf70-62dcce4842fb" d="M6.312 3.506a1.98 1.98 0 00-.498-.584c.349-.654.656-.652.722-.644a3.131 3.131 0 01-.224 1.228z" fill="#ff8300"/><path id="fc40deb7-d293-4450-a142-a838cd0ae73a" d="M6.549 2.28l-.013-.002z" fill="#ff8300"/><path id="fa319a6e-392f-4d7c-a8e8-f39ed8b0164d" d="M3.672 2.704l-.026-.035" fill="none"/><path id="a2f7c428-7daa-43f7-a255-4fad0c0e5832" d="M2.502 3.82a.96.96 0 00.015.043" fill="none"/><path id="b7c791fa-66e3-4821-8b0f-fbcebaa6bec4" d="M3.43 2.756a1.636 1.636 0 00-.254.165h-.002c-.361-.654-.68-.651-.748-.643a.43.43 0 01.078-.191s.355.035.926.67z" fill="#ff9300"/><path id="a8bbdff8-862f-498c-9124-9833d55a0e33" d="M3.175 2.922a2 2 0 00-.516.584 3.043 3.043 0 01-.232-1.228c.068-.008.387-.01.748.644z" fill="#ff8300"/><path id="a71c1df8-7720-4738-a3e5-6815b21fec35" d="M2.427 2.278l-.013.003z" fill="#ff8300"/><path id="a2f11837-436f-4888-b0c6-9030906ceb5e" d="M5.467 3.939s-.267.017-.234-.192a.276.276 0 01.3-.226c.06.009.293.092.25.268s-.1.142-.133.15a1.316 1.316 0 01-.183 0z" fill="#fff"/><path id="af99d218-619e-4749-8b22-87602df55a22" d="M3.496 3.939s-.267.017-.234-.192a.276.276 0 01.301-.226c.058.009.292.092.25.268s-.1.142-.134.15a1.316 1.316 0 01-.183 0z" fill="#fff"/></svg>