<svg xmlns="http://www.w3.org/2000/svg" viewBox="0 0 9 9"><circle cx="4.5" cy="4.5" r="4.5" fill="#141d2b"/><path d="M7.155 4.634a.607.607 0 00-.173-.22 1.488 1.488 0 00-.563-.212l-.037-.01-.141-.032c-.37-.08-.565-.2-.565-.344a.256.256 0 01.12-.221.627.627 0 01.36-.092.577.577 0 01.377.112.396.396 0 01.137.251l.003.017h.466l-.002-.022a.75.75 0 00-.261-.543 1.046 1.046 0 00-.698-.218 1.093 1.093 0 00-.693.207.689.689 0 00-.27.566.567.567 0 00.187.453 1.726 1.726 0 00.703.27l.058.014c.382.086.575.204.575.348a.298.298 0 01-.138.26.73.73 0 01-.418.104.626.626 0 01-.425-.136.438.438 0 01-.147-.256l-.003-.016H5.14l.003.022a.875.875 0 00.287.57 1.124 1.124 0 00.754.235 1.173 1.173 0 00.744-.219.728.728 0 00.285-.601.686.686 0 00-.058-.287z" fill="#fff"/><path fill="#fff" d="M6.23 2.751V2.24H2.394v4.361H6.23V6.09H2.904V2.751H6.23z"/></svg>