<svg xmlns="http://www.w3.org/2000/svg" viewBox="0 0 9 9"><defs><linearGradient id="b818e7e5-cf0a-4297-90e5-717309358b34" x1="-52.823" y1="-2284.716" x2="-52.823" y2="-2272.715" gradientTransform="translate(14.982 453.368) scale(.1984)" gradientUnits="userSpaceOnUse"><stop offset="0" stop-color="#090220"/><stop offset="1" stop-color="#170659"/></linearGradient></defs><circle cx="4.5" cy="4.5" r="4.5" fill="url(#b818e7e5-cf0a-4297-90e5-717309358b34)"/><path d="M3.213 3.48a.162.162 0 00-.13-.063H2.04a.034.034 0 01-.022-.01.029.029 0 01-.009-.02v-.736a.029.029 0 01.009-.02.025.025 0 01.022-.009h1.104a.92.92 0 01.72.357l.269.343-.523.666zm1.928-.504a.923.923 0 01.724-.354h1.1a.026.026 0 01.02.006.027.027 0 01.006.023v.736a.033.033 0 01-.006.02.022.022 0 01-.02.01H5.921a.162.162 0 00-.13.062l-.768.98.772.987a.16.16 0 00.125.058h1.044a.024.024 0 01.02.01.037.037 0 01.007.023v.736a.033.033 0 01-.007.02.022.022 0 01-.02.01H5.865a.912.912 0 01-.72-.358l-.64-.818-.64.818a.92.92 0 01-.725.357h-1.1a.024.024 0 01-.02-.009.032.032 0 01-.007-.023v-.736a.032.032 0 01.006-.02.022.022 0 01.02-.01h1.044a.169.169 0 00.13-.062l.755-.965z" fill="#00d1ff"/></svg>