<svg xmlns="http://www.w3.org/2000/svg" viewBox="0 0 9 9"><circle cx="4.5" cy="4.5" r="4.5" fill="#041742"/><circle cx="4.237" cy="3.26" r=".337" fill="#f4a836"/><circle cx="4.467" cy="3.417" r=".445" fill="#fde993"/><circle cx="4.497" cy="3.862" r=".445" fill="#fde993"/><circle cx="4.191" cy="2.578" r=".177" fill="#b88a5a"/><circle cx="3.297" cy="4.84" r=".177" fill="#b88a5a"/><circle cx="2.521" cy="4.144" r=".099" fill="#f4a836"/><circle cx="5.595" cy="4.115" r=".099" fill="#c8a156"/><circle cx="4.142" cy="5.084" r=".286" fill="#c8a156"/><circle cx="5.125" cy="4.373" r=".066" fill="#c8a156"/><circle cx="3.816" cy="3.992" r=".856" fill="#fce995"/><circle cx="4.045" cy="4.218" r=".856" fill="#f4a836"/><circle cx="4.018" cy="4.02" r=".763" fill="#fdfdfe"/><rect x="6.323" y="6.32" width=".376" height=".376" rx=".066" transform="rotate(-90 6.511 6.508)" fill="#615ee7"/><path fill="#615ee7" d="M3.623 3.845l.225-.225L6.627 6.4l-.225.224z"/><rect x="2.293" y="2.302" width="1.355" height="1.355" rx=".081" transform="rotate(-90 2.97 2.98)" fill="#7c79f6"/><rect x="2.491" y="2.5" width=".975" height=".975" rx=".066" transform="rotate(-90 2.98 2.988)" fill="#9594f7"/><path d="M3.72 2.814a.074.074 0 01.064.064v.863c-.007-.008-.007-.008-.007.007-.007.02-.02.035-.035.035s-.007.007-.007.007a.01.01 0 01-.014 0h-.354l-.007.007-.106-.007h-.382c-.035.007-.063-.021-.063-.064v-.848a.074.074 0 01.063-.064z" fill="#7875f8"/><path d="M3.87 3.26a.067.067 0 01.07.07l.007.403h-.155l-.007.007c-.008-.007-.008-.007-.008.007-.007.021-.02.036-.035.036s-.007.007-.007.007l-.007.007v.07l.007.079-.007.007-.007-.007-.389.007a.078.078 0 01-.078-.078v-.212l.007-.007v-.184l-.007-.149a.075.075 0 01.064-.063h.551z" fill="#7875f8"/><path d="M3.912 3.938a.037.037 0 00-.014.029l-.007.148h-.1a.091.091 0 01-.07-.07l.007-.092-.007-.007.007-.078.007.078h.141a.054.054 0 00.036-.008zm.128.17c.006.007.013 0 .02-.007-.007.007-.014.014-.007.021l-.007.163h-.085a.091.091 0 01-.07-.07v-.1zm.197.156a.037.037 0 00-.014.028l-.007.149h-.1a.091.091 0 01-.07-.071v-.085l.163-.007a.037.037 0 00.028-.014zm.156.156a.036.036 0 00-.015.028v.155H4.28a.075.075 0 01-.064-.063v-.099l.148-.007a.037.037 0 00.029-.015zm.169.17a.037.037 0 00-.014.027v.142h-.113a.075.075 0 01-.064-.064l.007-.092h.156a.036.036 0 00.028-.014zm.128.169l.007-.007v.17l-.092.007a.075.075 0 01-.063-.064l.007-.106zm.183.155a.035.035 0 00-.007.022v.141l-.106.007a.075.075 0 01-.063-.064v-.099h.155c.007.007.021.007.021-.007zm.156.156a.035.035 0 00-.007.021l-.007.163H4.93a.075.075 0 01-.064-.064v-.113h.142c.007.007.021.007.021-.007zm.17.17c-.014 0-.014.014-.007.021l-.007.149h-.1a.09.09 0 01-.07-.071v-.085l.162-.007c.008.007.022.007.022-.007z" fill="#3835c1"/><path d="M5.354 5.395c-.014 0-.014.014-.007.021l-.007.163h-.085a.091.091 0 01-.07-.07v-.1l.148-.007c.007.007.021.007.021-.007zm.17.17c-.014 0-.014.014-.007.021l-.007.149h-.099a.091.091 0 01-.071-.071v-.085l.163-.007a.035.035 0 00.021-.007z" fill="#3835c1"/><path d="M5.68 5.72c-.014 0-.014.015-.007.022v.155h-.099a.075.075 0 01-.064-.063v-.1l.148-.007a.035.035 0 00.022-.006zm.17.17c-.015 0-.015.014-.008.021v.142H5.73a.075.075 0 01-.064-.064l.007-.092h.156a.035.035 0 00.021-.007zm.134.163h.014l-.007.007v.155l-.092.008a.075.075 0 01-.064-.064l.007-.106z" fill="#3835c1"/><path d="M6.175 6.201a.037.037 0 00-.015.029v.141l-.106.007a.075.075 0 01-.064-.063v-.1h.156a.036.036 0 00.029-.014z" fill="#3835c1"/><path d="M6.33 6.357a.037.037 0 00-.014.028v.156l-.092.007a.075.075 0 01-.064-.064v-.113h.141a.037.037 0 00.029-.014zm.141.183a.017.017 0 11.015.015l-.007.148H6.38a.075.075 0 01-.064-.063v-.099z" fill="#3835c1"/><rect x="2.881" y="2.89" width=".345" height=".345" rx=".052" transform="rotate(-90 3.054 3.063)" fill="#9695f7"/><rect x="2.982" y="2.99" width=".145" height=".145" rx=".019" transform="rotate(-90 3.054 3.063)" fill="#c3c3fe"/><path d="M3.728 3.868l.007.078-.007.007h-.396a.078.078 0 01-.078-.078V3.79h-.382a.077.077 0 01-.063-.078V3.67l-.432-.007a.079.079 0 01-.077-.078l-.007-.106.516.007h.141v.113c0 .028.007.05.042.057a.035.035 0 00.022.007h.34l.006.007.007.12-.007.007c-.007.035.021.064.064.064z" fill="#3835c1"/><path d="M3.936 3.914a.037.037 0 01.029-.014l.148-.007v-.099a.09.09 0 00-.07-.07l-.092.006-.008-.007-.077.007.077.007v.142a.053.053 0 01-.007.035zm.17.127c.007.007 0 .014-.007.021.007-.007.014-.014.021-.007l.163-.007v-.085a.09.09 0 00-.07-.07h-.1z" fill="#7673f7"/><path d="M4.262 4.24a.037.037 0 01.028-.015l.148-.007v-.1a.091.091 0 00-.07-.07h-.085l-.007.163a.037.037 0 01-.014.028z" fill="#7673f7"/><path d="M4.417 4.395a.036.036 0 01.029-.014H4.6v-.1a.075.075 0 00-.064-.063h-.099l-.007.149a.037.037 0 01-.014.028zm.17.169a.037.037 0 01.028-.014h.142v-.113a.075.075 0 00-.064-.064l-.092.008v.155a.037.037 0 01-.014.029zm.17.128l-.007.007h.17l.007-.092a.075.075 0 00-.063-.064l-.107.007zm.155.183a.035.035 0 01.022-.007h.14l.008-.106a.075.075 0 00-.064-.063H4.92v.155c.007.007.007.021-.007.021zm.156.156a.035.035 0 01.021-.007l.163-.007v-.085a.075.075 0 00-.064-.064h-.113v.142c.007.007.007.021-.007.021zm.169.169c0-.013.015-.013.022-.006l.148-.007v-.1a.09.09 0 00-.07-.07h-.085l-.007.163c.007.007.007.02-.008.02zm.156.156c0-.014.014-.014.021-.007l.163-.007v-.085a.091.091 0 00-.07-.07h-.1l-.007.148c.007.007.007.021-.007.021zm.17.17c0-.014.014-.014.021-.007l.149-.007v-.099a.09.09 0 00-.071-.07h-.085l-.007.162a.035.035 0 01-.007.021z" fill="#7673f7"/><path d="M5.718 5.682c0-.015.014-.015.022-.007h.155v-.1a.074.074 0 00-.063-.063h-.1l-.007.148a.035.035 0 01-.007.022z" fill="#7673f7"/><path d="M5.888 5.851c0-.014.014-.014.021-.007h.142v-.113a.075.075 0 00-.064-.063l-.092.007v.155a.035.035 0 01-.007.021z" fill="#7673f7"/><path d="M6.05 5.986V6l.008-.007h.155L6.22 5.9a.075.075 0 00-.064-.064l-.106.007z" fill="#7673f7"/><path d="M6.2 6.177a.037.037 0 01.028-.014h.14l.008-.107a.075.075 0 00-.064-.063h-.099v.155a.036.036 0 01-.014.029zm.155.155a.037.037 0 01.028-.014h.156l.007-.092a.075.075 0 00-.064-.064h-.113v.142a.037.037 0 01-.014.028z" fill="#7673f7"/><path d="M6.539 6.474a.037.037 0 01-.014.028.036.036 0 01.028-.014L6.7 6.48v-.1a.075.075 0 00-.063-.063h-.1z" fill="#7673f7"/><rect x="3.42" y="3.417" width=".376" height=".376" rx=".066" transform="rotate(-90 3.608 3.605)" fill="#615ee7"/><path d="M3.7 2.257a.21.21 0 00-.127-.056l-1.194.007a.162.162 0 00-.135.05.157.157 0 00-.042.128v1.258l.006.006a.183.183 0 00.17.113l.346.007a.12.12 0 00.05.092.15.15 0 00.126.028h.254a.182.182 0 00.177.162l.29.007.007.007a.198.198 0 00.148.149h.014a.2.2 0 00.064.12.193.193 0 00.092.049.264.264 0 00.064.106.192.192 0 00.092.05h.014a.192.192 0 00.056.112.15.15 0 00.106.05v.014a.164.164 0 00.156.142h.014a.16.16 0 00.155.17.164.164 0 00.141.155h.015l.007.007a.18.18 0 00.148.163.266.266 0 00.064.106.168.168 0 00.091.049h.014a.2.2 0 00.064.12.192.192 0 00.092.05.264.264 0 00.063.105.168.168 0 00.092.05h.014a.192.192 0 00.057.113.15.15 0 00.106.05v.013a.164.164 0 00.155.142h.014a.16.16 0 00.155.169.157.157 0 00.156.155l.007.007a.18.18 0 00.148.163h.014a.164.164 0 00.141.155h.212l.064-.007a.16.16 0 00.113-.043.166.166 0 00.05-.12v-.255a.178.178 0 00-.156-.155v-.014a.18.18 0 00-.162-.149l-.007.007a.17.17 0 00-.156-.17.18.18 0 00-.162-.162l-.007-.007a.164.164 0 00-.141-.155h-.014a.18.18 0 00-.142-.155l-.02-.007a.191.191 0 00-.057-.113.17.17 0 00-.092-.05H5.67a.18.18 0 00-.142-.155l-.02-.007a.192.192 0 00-.057-.113.17.17 0 00-.092-.05h-.014a.166.166 0 00-.155-.155l-.007-.007v-.014a.179.179 0 00-.155-.142.18.18 0 00-.163-.162l-.007-.007a.164.164 0 00-.142-.155h-.014a.18.18 0 00-.141-.156l-.021-.007a.192.192 0 00-.057-.113.17.17 0 00-.091-.05h-.015a.18.18 0 00-.141-.155l-.021-.007a.192.192 0 00-.057-.113.169.169 0 00-.091-.05h-.015l-.007-.006-.007-.29a.16.16 0 00-.155-.17v-.283a.179.179 0 00-.134-.163l.007-.332a.21.21 0 00-.056-.126zm-.042.127l-.008.431h.07a.074.074 0 01.064.064v.382h.085a.067.067 0 01.07.07l.008.389.014.014.084-.014a.09.09 0 01.07.07v.1l.008.007.092-.007a.09.09 0 01.07.07v.085h.085a.09.09 0 01.07.07v.1l.008.007.092-.008a.074.074 0 01.064.064v.099l.007.007.084-.014a.074.074 0 01.064.064v.098l.02.022.086-.015a.075.075 0 01.063.064l-.007.092.007.007.092-.008a.074.074 0 01.064.064l-.008.092.022.021.091-.007a.074.074 0 01.064.064v.084h.085a.09.09 0 01.07.071v.1l.007.006.092-.007a.09.09 0 01.07.07v.085h.086a.09.09 0 01.07.07v.1l.007.007.092-.007a.074.074 0 01.064.063v.099l.007.007.085-.014a.074.074 0 01.063.063v.1l.022.02.084-.014a.075.075 0 01.064.064l-.007.092.007.007.092-.007a.075.075 0 01.063.063l-.007.092.021.021.092-.007a.074.074 0 01.064.064l-.007.092.007.007.092-.007a.074.074 0 01.063.063v.255a.06.06 0 01-.063.063H6.48l-.007.007h-.099a.074.074 0 01-.063-.064v-.099l-.092.008a.074.074 0 01-.064-.064v-.099l-.007-.007H6.05a.075.075 0 01-.064-.063v-.099l-.092.007a.075.075 0 01-.063-.064l.007-.091-.014-.015h-.1a.075.075 0 01-.063-.063l.007-.092H5.57a.074.074 0 01-.064-.064v-.099h-.098a.09.09 0 01-.07-.07v-.085h-.085a.09.09 0 01-.071-.07v-.1h-.099a.09.09 0 01-.07-.07v-.084h-.085a.074.074 0 01-.064-.064V5.09l-.007-.007h-.099a.075.075 0 01-.063-.063v-.099l-.092.007a.075.075 0 01-.064-.063l.007-.092-.014-.014h-.099a.074.074 0 01-.063-.064l.007-.092h-.099a.074.074 0 01-.063-.064V4.44h-.1a.09.09 0 01-.07-.07v-.085H3.96a.09.09 0 01-.07-.07v-.1h-.099a.09.09 0 01-.071-.07l.007-.092h-.396a.078.078 0 01-.077-.078v-.084h-.382c-.035.007-.063-.021-.063-.064v-.056l-.431-.007a.078.078 0 01-.078-.077l-.007-.007v-.1L2.3 2.386a.055.055 0 01.014-.056.06.06 0 01.063-.022L3.573 2.3a.09.09 0 01.085.084zm.628 1.675v-.014l-.008.007zm.967.967v-.014l-.007.007zm.325.325v-.014l-.007.007zm-.24.212v.015h.014zm-.325-.325v.015h.014zm-.967-.967v.014h.014zm.233-.22l.007.008v-.014zm.975.975v-.014l-.008.007zm.324.325v-.014l-.007.007zm-.226.227l-.014-.015v.015zm-.325-.325l-.014-.015v.015zm-.967-.968l-.015-.014v.014z" fill="#c2c2f9"/></svg>