<svg xmlns="http://www.w3.org/2000/svg" viewBox="0 0 9 9"><circle cx="4.5" cy="4.5" r="4.5"/><path d="M3.479 6.177l.856-.94a.247.247 0 01.345 0l.856.94a.203.203 0 010 .255l-.856.939a.247.247 0 01-.345 0l-.856-.94a.203.203 0 010-.254z" fill="#72c7fb"/><path d="M6.843 4.044l-.856-.939a.247.247 0 00-.345 0l-.857.94a.203.203 0 000 .254l.857.94a.247.247 0 00.345 0l.856-.94a.203.203 0 000-.255zm-3.484-.939a.247.247 0 00-.346 0l-.856.94a.203.203 0 000 .254l.856.94a.247.247 0 00.346 0l.856-.94a.203.203 0 000-.255zm2.177-.537L4.68 1.63a.247.247 0 00-.345 0l-.856.94a.203.203 0 000 .254l.856.94a.247.247 0 00.345 0l.856-.94a.203.203 0 000-.255z" fill="#1ba5f8"/></svg>