<svg xmlns="http://www.w3.org/2000/svg" viewBox="0 0 9.002 9.002"><circle cx="4.501" cy="4.501" r="4.5" fill="#1a4f95"/><path d="M2.804 2.526c-.051-.025-.683.498-.683.882a13.125 13.125 0 00.863 2.177c.107.396-.182.87-.102.891a1.993 1.993 0 00.789-.949c.036-.473-.805-1.857-.872-2.212-.08-.416.06-.78.005-.79zm1.578-.546c-.064-.03-.871.634-.871 1.126 0 .671.94 2.19 1.1 2.777.136.505-.231 1.11-.131 1.136a2.529 2.529 0 001.005-1.21c.045-.604-1.027-2.365-1.112-2.821-.097-.53.08-.994.01-1.007zm1.63.546c-.049-.025-.682.498-.682.882a13.125 13.125 0 00.862 2.177c.107.396-.182.87-.102.891a1.993 1.993 0 00.79-.949c.035-.473-.806-1.857-.872-2.212-.078-.416.06-.78.004-.79z" fill="#fff"/></svg>