<svg xmlns="http://www.w3.org/2000/svg" viewBox="0 0 9 9"><circle cx="4.5" cy="4.5" r="4.292" fill="#fff"/><path d="M4.497 7.11a.182.182 0 00-.18.15v.01a.183.183 0 00.12.19.438.438 0 00.05.01.202.202 0 00.19-.16v-.02a.18.18 0 00-.18-.18zm2.49-1.37a.14.14 0 00-.09-.03.18.18 0 00-.18.18.183.183 0 00.34.1.181.181 0 00-.07-.25zm-4.81-2.79a.184.184 0 10.07.25.184.184 0 00-.07-.25zm4.74-.01a.18.18 0 00-.18.18.149.149 0 00.02.09.17.17 0 00.16.09.18.18 0 100-.36zm-2.42-1.41a.18.18 0 00-.18.18.18.18 0 10.36 0 .18.18 0 00-.18-.18zm-2.24 4.26a.22.22 0 00-.16-.09.182.182 0 00-.19.18.184.184 0 00.19.19.182.182 0 00.18-.19.292.292 0 00-.02-.09z" fill="#2683ff"/><path d="M7.18 5.406l-.06-.03v-1.71a.594.594 0 01.08-.04.573.573 0 00-.56-1 .435.435 0 01-.07.04l-1.5-.87v-.08a.57.57 0 00-.57-.57.578.578 0 00-.57.58v.07l-1.49.87a.578.578 0 00-.93.45.593.593 0 00.23.46.435.435 0 00.07.04.25.25 0 00.07.04v1.71a.567.567 0 00.43 1.05.15.15 0 00.07-.03.423.423 0 00.07-.05l1.49.86a.56.56 0 00.47.65.566.566 0 00.65-.47.375.375 0 00.01-.1c0-.03-.01-.05-.01-.08l1.47-.85a.35.35 0 00.08.05.563.563 0 00.77-.22.577.577 0 00-.2-.77zm.11.72a.446.446 0 01-.6.15.416.416 0 01-.2-.47l-.7-.41a.772.772 0 01-.83.18 2.637 2.637 0 01-.33.05v1.22a.442.442 0 01.3.57.45.45 0 01-.57.3h-.01a.169.169 0 00-.05-.02.47.47 0 01-.21-.62.492.492 0 01.28-.23v-1.24a2.773 2.773 0 01-.26-.1.927.927 0 01-.75-.19l-.83.48a.308.308 0 01.01.1.444.444 0 01-.44.44.435.435 0 01-.43-.44.45.45 0 01.33-.43.455.455 0 01.4.11l.78-.45a.927.927 0 01.1-1.19l-.88-.5a.432.432 0 01-.62-.02.471.471 0 01-.12-.3.493.493 0 01.14-.32.45.45 0 01.62.02.455.455 0 01.11.4l.97.56a.869.869 0 01.41-.11 2.304 2.304 0 01.49-.23v-1.33a.41.41 0 01-.28-.51.422.422 0 01.51-.27.405.405 0 01.27.51.37.37 0 01-.27.27v1.31a2.12 2.12 0 01.84.4l1.04-.59a.437.437 0 11.85-.2.445.445 0 01-.33.53.455.455 0 01-.4-.11l-1.02.58a1.084 1.084 0 01.08.19.78.78 0 01.26.97l.67.39a.436.436 0 01.52-.05.446.446 0 01.15.6z" fill="#2683ff"/><path d="M7.125 5.501a.436.436 0 00-.52.05l-.67-.39a.78.78 0 00-.26-.97 1.083 1.083 0 00-.08-.19l1.02-.58a.455.455 0 00.4.11.445.445 0 00.33-.53.437.437 0 10-.85.2l-1.04.59a2.12 2.12 0 00-.84-.4v-1.31a.37.37 0 00.27-.27.405.405 0 00-.27-.51.422.422 0 00-.51.27.41.41 0 00.28.51v1.33a2.304 2.304 0 00-.49.23.869.869 0 00-.41.11l-.97-.56a.455.455 0 00-.11-.4.45.45 0 00-.62-.02.493.493 0 00-.14.32.471.471 0 00.12.3.432.432 0 00.62.02l.88.5a.927.927 0 00-.1 1.19l-.78.45a.455.455 0 00-.4-.11.45.45 0 00-.33.43.435.435 0 00.43.44.444.444 0 00.44-.44.305.305 0 00-.01-.1l.83-.48a.927.927 0 00.75.19 2.752 2.752 0 00.26.1v1.24a.492.492 0 00-.28.23.47.47 0 00.21.62.17.17 0 01.05.02h.01a.45.45 0 00.57-.3.442.442 0 00-.3-.57v-1.22a2.635 2.635 0 00.33-.05.772.772 0 00.83-.18l.7.41a.416.416 0 00.2.47.437.437 0 10.45-.75zm-.21-2.58a.18.18 0 110 .36.17.17 0 01-.16-.09.149.149 0 01-.02-.09.18.18 0 01.18-.18zm-4.67.26a.184.184 0 11-.07-.25.184.184 0 01.07.25zm-.15 2.87a.184.184 0 01-.19-.19.182.182 0 01.19-.18.22.22 0 01.16.09.292.292 0 01.02.09.182.182 0 01-.18.19zm2.22-4.36a.18.18 0 11.36 0 .18.18 0 11-.36 0zm.36 5.58v.02a.202.202 0 01-.19.16.438.438 0 01-.05-.01.183.183 0 01-.12-.19v-.01a.182.182 0 01.18-.15.18.18 0 01.18.18zm.99-2.39a.076.076 0 01-.01.04v.01a.184.184 0 01-.02.07.399.399 0 01-.16.2.22.22 0 00-.05.03h-.01a.143.143 0 01-.06.02c-.01.01-.03.01-.05.02h-.08a.41.41 0 01-.26-.09l-.08.03a.133.133 0 01-.08.03.693.693 0 01-.2.03.853.853 0 01-.35-.08.218.218 0 01-.05-.03h-.01a.1.1 0 00-.05-.04.546.546 0 01-.22.05.148.148 0 01-.07-.01h-.01l-.05-.01h-.01a.141.141 0 01-.06-.02.377.377 0 01-.13-.06.519.519 0 01-.2-.24l-.01-.01c0-.01-.01-.02-.01-.03-.01-.01-.01-.01-.01-.02s-.01-.02-.01-.03 0-.02-.01-.02v-.03a.037.037 0 00-.01-.03v-.17a.09.09 0 00.01-.05.031.031 0 01.01-.02c0-.01.01-.03.01-.04.01-.01.01-.01.01-.02a.076.076 0 01.02-.05l.01-.01a.608.608 0 01.12-.16.558.558 0 01.37-.15h.13c.02-.01.03-.03.05-.05l.01-.01c.02-.02.04-.03.05-.04l.01-.01c.01-.01.04-.02.04-.03.01 0 .03-.02.04-.02s.02-.01.03-.01a.114.114 0 01.06-.03l.02-.01a.595.595 0 01.27-.06.34.34 0 01.1.01c.03 0 .05.01.07.01h.01c.02.01.04.01.06.02h.01l.06.03h.01l.06.03v.01c.02 0 .04.02.06.03.02.02.04.03.05.05h.01l.05.05a.897.897 0 01.17.26v.01c.01.02.01.04.02.05v.02c0 .02.01.03.01.05s.01.04.01.07a.424.424 0 01.3.42zm1.39 1.09a.183.183 0 01-.34-.1.18.18 0 01.18-.18.14.14 0 01.09.03.181.181 0 01.07.25z" fill="#f9fafb"/><path d="M5.665 4.85v.041a.078.078 0 01-.01.041v.01a.191.191 0 01-.02.071.405.405 0 01-.16.204.218.218 0 00-.05.03h-.01a.14.14 0 01-.06.02c-.01.01-.03.01-.05.02h-.08a.407.407 0 01-.26-.092l-.08.03a.132.132 0 01-.08.03.683.683 0 01-.2.03.84.84 0 01-.35-.081.214.214 0 01-.05-.03h-.01a.1.1 0 00-.05-.041.537.537 0 01-.22.05.146.146 0 01-.07-.01h-.01l-.05-.01h-.01a.14.14 0 01-.06-.02.376.376 0 01-.13-.06.527.527 0 01-.2-.244l-.01-.01c0-.01-.01-.02-.01-.03-.01-.01-.01-.01-.01-.02s-.01-.02-.01-.03 0-.02-.01-.02v-.03a.038.038 0 00-.01-.03v-.174a.093.093 0 00.01-.05.032.032 0 01.01-.02c0-.01.01-.03.01-.041.01-.01.01-.01.01-.02a.079.079 0 01.02-.051l.01-.01a.62.62 0 01.12-.163.553.553 0 01.37-.153h.13c.02-.01.03-.03.05-.05l.01-.01c.02-.02.04-.03.05-.041l.01-.01c.01-.01.04-.02.04-.03.01 0 .03-.02.04-.02s.02-.01.03-.01a.113.113 0 01.06-.03l.02-.01a.588.588 0 01.27-.061.334.334 0 01.1.01c.03 0 .05.01.07.01h.01c.02.01.04.01.06.02h.01l.06.03h.01l.06.03v.01c.02 0 .04.02.06.03.02.02.04.03.05.05h.01l.05.052a.915.915 0 01.17.264v.01c.01.02.01.04.02.05v.02c0 .02.01.03.01.052s.01.04.01.07a.43.43 0 01.3.428z" fill="#2683ff"/><path d="M4.5.35A4.15 4.15 0 11.35 4.5 4.155 4.155 0 014.5.35m0-.35A4.5 4.5 0 109 4.5 4.5 4.5 0 004.5 0z" fill="#2683ff"/></svg>