<svg xmlns="http://www.w3.org/2000/svg" viewBox="0 0 9.001 9.001"><defs><linearGradient id="707b817c-bd93-4460-a96a-a525e8acfd94" x1="-310.258" y1="-21.834" x2="-301.257" y2="-21.834" gradientTransform="scale(1 -1) rotate(45 -171.555 361.351)" gradientUnits="userSpaceOnUse"><stop offset="0" stop-color="#2488d1"/><stop offset="1" stop-color="#7ab8fc"/></linearGradient></defs><circle cx="4.501" cy="4.5" r="4.275" fill="#fff"/><path d="M1.568 1.562a4.157 4.157 0 11-.66.863 4.157 4.157 0 01.66-.863m-.247-.247A4.5 4.5 0 106.75.603a4.5 4.5 0 00-5.43.712z" fill="url(#707b817c-bd93-4460-a96a-a525e8acfd94)"/><path d="M7.215 4.5a.293.293 0 00-.29.01c-.017.01-2.322 1.293-2.412 1.348-.017.01-.025.015-.06-.004a1554.8 1554.8 0 01-2.398-1.34.088.088 0 01-.052-.08v-.386l2.305 1.293a.363.363 0 00.178.047.388.388 0 00.186-.05l2.509-1.392a.267.267 0 00.143-.232.24.24 0 00-.132-.21L4.635 2.085a.309.309 0 00-.15-.041.278.278 0 00-.137.035L1.8 3.51a.238.238 0 00-.122.21v.713a.41.41 0 00.22.367c.049.027 2.36 1.319 2.4 1.34a.367.367 0 00.385-.003c.054-.033 1.894-1.061 2.316-1.295V5.2c0 .004 0 .018-.063.057-.081.05-2.295 1.296-2.4 1.352-.045.025-.05.021-.068.01L1.866 5.158l-.16.284c.025.014 2.52 1.415 2.598 1.46a.363.363 0 00.183.052.426.426 0 00.203-.059c.018-.01 2.327-1.305 2.418-1.363a.398.398 0 00.216-.333v-.492a.233.233 0 00-.11-.206zM4.488 2.378l2.425 1.345-2.398 1.33a.044.044 0 01-.046.004l-2.38-1.334z" fill="#2488d1"/></svg>