<svg xmlns="http://www.w3.org/2000/svg" viewBox="0 0 9 9"><path id="aa792384-3725-4f1e-a676-165d15ba7fa4" d="M4.5 0A4.5 4.5 0 110 4.5 4.5 4.5 0 014.5 0z" fill="#6f12fd"/><path d="M6.006 2.99l-.025.028a.157.157 0 00-.066.054 4.052 4.052 0 01-.735.473l-.311.133.174.048a2.478 2.478 0 01.72.422c.036.03.045.003.06-.018a1.743 1.743 0 00.228-.428 1.333 1.333 0 00.08-.67.436.436 0 00-.026-.146zm-.946.677l-.002.005-.002-.001z" fill="#f9f7f9"/><path d="M5.844 4.447L5.82 4.43a.335.335 0 00-.12-.1 1.394 1.394 0 00-.278-.169 7.558 7.558 0 00-1.583-.535c-.005-.004-.015-.007-.015-.01-.002-.012.007-.003.01-.005.019-.007.04.002.057-.008.106-.014.211-.025.316-.042a3.56 3.56 0 00.77-.203 1.735 1.735 0 00.367-.164 1.237 1.237 0 00.26-.16 1.432 1.432 0 00.298-.259.365.365 0 00.096-.109.1.1 0 00.015-.013 1.651 1.651 0 00.31-1c0-.004-.006-.008-.01-.014a.8.8 0 01-.193.164 3.072 3.072 0 01-.672.303c-.379.13-.771.209-1.16.301a3.002 3.002 0 00-.738.267.054.054 0 01-.054.028c-.01.002-.022.002-.027.014a.565.565 0 00-.136.084 1.16 1.16 0 00-.468.512.77.77 0 00-.07.41 1.515 1.515 0 00.658 1.063c.024.006.048.013.058.04a.598.598 0 00.15.093c.033.019.066.039.1.056a3.51 3.51 0 001.243.327.424.424 0 00.086.011h.044-.042a.073.073 0 00-.05.012c-.123.014-.247.025-.37.043a4.835 4.835 0 00-1.147.286 1.653 1.653 0 00-.559.337.81.81 0 01-.112.122.591.591 0 00-.144.309 4.434 4.434 0 00-.02.873l.01.068c.05-.047.094-.09.14-.129a2.626 2.626 0 011.353-.56 3.349 3.349 0 001.198-.366 2.014 2.014 0 00.537-.407.686.686 0 00.202-.302c-.005-.033.025-.05.033-.078a1.016 1.016 0 00-.253-1.007.207.207 0 00-.066-.065z" fill="#f9f7f9"/></svg>