<svg xmlns="http://www.w3.org/2000/svg" viewBox="0 0 9 9"><defs><linearGradient id="e22320fd-eae4-45ce-af92-439a2f370428" x1="2.455" y1="2.455" x2="7.49" y2="7.49" gradientUnits="userSpaceOnUse"><stop offset="0" stop-color="#fe4736"/><stop offset="1" stop-color="#fe9814"/></linearGradient></defs><circle cx="4.5" cy="4.5" r="4.5" fill="url(#e22320fd-eae4-45ce-af92-439a2f370428)"/><path d="M7.054 5.32L5.327 7.047a1.143 1.143 0 01-1.518.087.095.095 0 01-.008-.142L5.803 4.99a.632.632 0 000-.894.067.067 0 00-.095 0L3.647 6.157a.584.584 0 01-.826 0l-.29-.29a.125.125 0 010-.177l2.843-2.844a.58.58 0 01.822 0l.858.858a1.143 1.143 0 010 1.616zM5.228 2.003L1.996 5.235a.074.074 0 01-.11-.005 1.184 1.184 0 01.072-1.596l1.669-1.669a1.184 1.184 0 011.596-.072.074.074 0 01.005.11z" fill="#fff"/></svg>