<svg xmlns="http://www.w3.org/2000/svg" viewBox="0 0 9 9"><defs><linearGradient id="a7133e30-e474-4bf6-b3ca-02ed44717045" x1="-59.765" y1="-246.713" x2="-52.187" y2="-251.57" gradientTransform="rotate(180 -25.932 -122.196)" gradientUnits="userSpaceOnUse"><stop offset="0" stop-color="#449bc1"/><stop offset=".345" stop-color="#3880b2"/><stop offset=".757" stop-color="#2d65a4"/><stop offset="1" stop-color="#295b9f"/></linearGradient></defs><circle cx="4.5" cy="4.5" r="4.275" fill="#f9fafb"/><path d="M4.5.35A4.15 4.15 0 11.35 4.5 4.155 4.155 0 014.5.35m0-.35A4.5 4.5 0 109 4.5 4.5 4.5 0 004.5 0z" fill="url(#a7133e30-e474-4bf6-b3ca-02ed44717045)"/><path d="M6.312 6.125a2.533 2.533 0 01-.438.304c.03-.024-.064-.123-.036-.148a1.816 1.816 0 00.588-2.121c-.039-.095.043-.133.044-.22a1.407 1.407 0 01-.158 2.185" fill="#449bc1"/><path d="M6.47 3.94a2.374 2.374 0 00-1.018-.536l-.006-.001.006.001c.144.038.155.205.255.29a.932.932 0 01.292.715 1.692 1.692 0 01-.301 1.302 1.794 1.794 0 01-.654.513l-.057.025-.009.003a2.197 2.197 0 01-.417.12 4.392 4.392 0 01-2.108-.215 3.117 3.117 0 001.083.543 3.148 3.148 0 001.205.088h.003c.058-.007.115-.015.17-.025a3.146 3.146 0 00.644-.184 2.942 2.942 0 00.316-.15c.03-.024.06-.049.088-.074A1.823 1.823 0 006.47 3.94" fill="#0670b0"/><path d="M4.987 6.249c1.005-.41 1.06-1.448-.11-2.033-.848-.424-.473-1.099.575-.812 1.171.308.825 2.347-.466 2.845" fill="#295b9f"/><path d="M6.547 2.843a3.823 3.823 0 00-2.525-.095l-.008.004a.96.96 0 00-.379 1.703 1.483 1.483 0 01-.441-.474 1.44 1.44 0 01-.095-.786 1.155 1.155 0 01.621-.828 1.835 1.835 0 01.54-.156 3.103 3.103 0 012.288.632" fill="#449bc1"/><path d="M3.822 5.652c-.072-.023-.154-.035-.221-.062a1.801 1.801 0 01-1.293-1.61 1.827 1.827 0 01.704-1.275 3.026 3.026 0 01.43-.283 3.143 3.143 0 01.644-.184q.086-.015.174-.025a1.644 1.644 0 00-.197.041 1.246 1.246 0 00-.427 2.203 2.092 2.092 0 00.487.328c.77.385.533.976-.3.868" fill="#0670b0"/><path d="M3.822 5.652a2.01 2.01 0 01-.274-.056c-1.636-.447-1.876-1.837-.86-2.72a2.695 2.695 0 01.753-.455 2.8 2.8 0 00-.405.291c-1.083.941-.867 2.405.786 2.94" fill="#295b9f"/></svg>