<svg xmlns="http://www.w3.org/2000/svg" viewBox="0 0 9 9"><circle cx="4.5" cy="4.5" r="4.5" fill="#242829"/><path d="M5.687 4.226l-.004.003-.003.004-.004.004-.004.004-.003.003-.004.004-.004.004-.003.004-.004.003-.004.004-.004.004-.004.003-.004.004-.003.003-.004.004-.004.004-.004.004-.003.004-.004.003-.004.004-.003.004-.004.003-.004.004-.004.004-.003.004-.004.004-.004.003-.004.004-.003.004-.004.004-.004.003-.004.004-.003.004-.004.003H3.717l-.024.001h-.908a.085.085 0 01-.024-.001V4.35a.05.05 0 01.015-.022l.897-.896c.006-.006.01-.015.02-.014h2.774c.007 0 .016-.004.022.004l-.003.004-.004.003-.004.004-.003.004-.004.003-.004.004-.004.004-.003.004-.004.004-.004.004-.003.003-.004.004-.004.004-.003.003-.004.004-.004.004-.004.004-.004.003-.003.004-.004.003-.004.004-.004.004-.003.004-.004.004-.004.004-.004.003-.003.004-.004.003-.004.004-.004.004-.003.004-.004.004-.004.003-.003.004-.004.004-.004.003-.004.004-.003.004-.004.004-.004.003-.004.004-.003.004-.004.004-.004.004-.004.003-.003.004-.004.004-.004.003-.004.004-.003.004-.004.004-.004.003-.003.004-.004.004-.004.004-.004.003-.004.004-.003.004-.004.004-.004.004-.003.003-.004.004-.004.004-.003.003-.004.004-.004.004-.004.004-.003.003-.004.004-.004.004-.004.004-.003.003-.004.004-.004.004-.003.003-.004.004-.004.004-.003.003-.004.004-.004.004-.003.003-.004.004-.004.004-.004.004-.004.003-.003.004-.004.004-.004.003-.004.004-.004.004-.003.004-.004.004-.004.003-.003.004-.004.003-.004.004-.004.004-.003.004-.004.004-.004.003-.003.004-.004.004-.004.004-.004.003-.004.004-.003.004-.004.003-.004.004-.003.004-.004.004-.004.003-.004.004-.003.004-.004.004-.004.003-.004.004-.003.004-.004.004-.004.003-.004.004-.003.004-.004.004-.004.003-.004.004-.003.004-.004.004-.004.004-.003.003-.004.004-.004.004L6 3.912l-.003.004-.004.004-.004.004-.003.003-.004.004-.004.004-.004.004-.003.003-.004.004-.004.004-.004.004-.003.003-.004.004-.004.004-.004.003-.003.004-.004.004-.004.004-.003.003-.004.004-.004.004-.003.003-.004.004-.004.004-.003.003-.004.004-.004.004-.004.004-.004.003-.004.004-.003.003-.004.004-.004.004-.003.004-.004.004-.004.003-.004.004-.003.004-.004.003-.004.004-.004.004-.003.004-.004.004-.004.003-.004.004-.003.004-.004.003-.004.004-.003.004-.004.004-.004.003-.004.004-.003.004-.004.004-.004.004-.004.003-.003.004-.004.004-.004.003-.004.004-.003.004-.004.004-.004.003-.003.004-.004.004-.004.004-.004.003-.004.004-.003.004-.004.004-.004.003-.003.004-.004.004-.004.004-.004.003-.003.004-.004.004-.004.004-.003.004-.004.003-.004.004-.004.004-.003.003z" fill="#00e8b5"/><path fill="#fff" d="M5.795 6.741zm.187-.172h-.001.001zm-.004.004zm.089-.101zm.03-.037zM5.56 5.287h.001v-.001l-.001.001z"/><path d="M6.493 5.343c-.002-.018 0-.037 0-.056-.005-.006-.012-.003-.018-.003h-.897c-.006 0-.012-.002-.017.003s-.002.01-.003.016a.397.397 0 01-.001.052v.01c-.005.01 0 .02-.004.03v.007c-.005.007 0 .016-.004.023v.003c-.004.006 0 .013-.003.02v.003c-.004.005 0 .011-.003.016v.001l-.001.001c-.004.005 0 .011-.004.016v.003c-.004.004 0 .01-.004.015s0 .01-.003.015l-.004.013v.002l-.004.012v.003l-.003.008v.002l-.005.012-.003.011-.004.012-.004.01-.003.01-.001.001-.003.008c-.004.003 0 .008-.004.011l-.003.008-.004.009v.001l-.001.001-.004.008-.003.007-.004.008-.003.008c-.005.002 0 .008-.005.01l-.003.007-.004.007-.004.008-.002.005-.004.007-.004.008-.004.007-.004.007-.003.005-.004.006-.004.007-.007.012-.005.007-.003.004-.004.007-.003.004-.004.007-.003.005-.005.007-.003.004-.008.011-.003.004-.005.007-.003.004-.004.004-.007.01-.004.005-.004.004-.005.007-.003.003-.003.004-.004.004-.004.005a.092.092 0 00-.012.014l-.003.003-.004.004-.003.004-.004.004-.004.005-.004.004-.004.004-.002.002-.004.004-.004.004-.004.004-.004.004-.004.004-.004.004-.004.004-.005.004-.004.003-.003.004-.002.001a.092.092 0 00-.014.012l-.004.004-.004.003-.004.004-.004.003-.006.005-.005.003-.004.004c-.004.003-.008.004-.01.008l-.005.003-.004.004-.006.004-.004.003-.01.008-.005.003-.007.005-.004.002-.007.005-.004.003-.007.004-.005.003-.007.004-.011.008-.008.004-.007.004-.004.003-.007.004-.008.004-.007.004-.007.004-.005.002-.007.004-.008.004-.007.003c-.002.004-.008 0-.01.005l-.008.004-.007.003L5 6.141l-.008.003v.001H4.99l-.009.004-.007.003c-.003.004-.009 0-.011.004l-.008.003-.001.001h-.001l-.01.004-.01.004-.012.004-.012.003-.011.004-.011.004h-.003l-.012.004c-.005.004-.011-.001-.015.004-.005.003-.011-.001-.015.003s-.011 0-.016.004h-.002c-.003.002-.01-.002-.014.002-.006.004-.013 0-.019.004h-.003c-.006.003-.013-.001-.02.003h-.002c-.008.004-.016 0-.024.003h-.006c-.008.005-.018 0-.027.004h-.01a1.336 1.336 0 01-.144 0h-.01c-.01-.004-.02 0-.028-.003h-.006c-.007-.005-.016 0-.023-.004h-.003c-.006-.004-.014 0-.02-.003h-.003c-.005-.004-.011 0-.016-.004l-.001.001-.001-.001c-.005-.004-.011 0-.016-.004h-.003c-.004-.003-.01 0-.015-.003s-.01 0-.015-.004l-.013-.003H4.38l-.012-.004h-.003l-.009-.004h-.002l-.011-.004-.011-.004-.012-.003-.01-.004-.01-.003h-.002l-.008-.004c-.002-.004-.008 0-.01-.004l-.008-.003-.009-.004h-.001l-.001-.001-.007-.004-.008-.003-.008-.003-.008-.004c-.002-.004-.007 0-.01-.005l-.007-.003-.007-.004-.006-.003-.007-.004-.007-.004-.008-.004-.007-.003-.007-.004-.005-.003-.007-.004-.007-.004-.004-.003-.007-.004-.007-.005-.005-.003-.007-.005-.005-.003-.006-.004-.004-.003-.007-.005-.004-.003-.011-.007-.004-.003-.011-.008-.004-.004c-.003-.004-.008-.005-.011-.008l-.004-.003-.004-.004c-.002-.004-.007-.005-.01-.008l-.004-.004-.004-.003-.005-.004-.004-.004c-.002-.004-.007-.005-.01-.008L4 5.976l-.004-.003-.004-.004-.004-.004-.004-.004-.004-.003-.004-.004-.004-.004-.004-.004-.004-.004-.004-.004-.004-.004-.004-.004-.004-.004-.001-.002-.004-.004-.003-.003-.004-.004a.057.057 0 00-.012-.014l-.004-.004-.003-.004-.004-.005-.003-.003c-.003-.003-.004-.008-.008-.01l-.004-.005-.003-.004c-.003-.003-.004-.008-.009-.01l-.002-.004-.008-.011-.003-.005-.008-.01-.003-.005-.005-.007-.003-.004L3.85 5.8l-.003-.004-.005-.007-.003-.005-.004-.006-.004-.007-.003-.005-.004-.007-.004-.007-.003-.005-.004-.007-.004-.007-.004-.007-.004-.007-.004-.007-.002-.005h-.001v-.002L3.79 5.7v-.002l-.004-.008-.003-.008-.004-.008-.004-.007-.003-.008-.003-.008-.001-.002-.004-.009-.003-.007H3.76V5.63l-.004-.01-.003-.007v-.002l-.003-.01-.004-.01-.004-.011-.003-.012-.004-.011v-.002c-.003-.004 0-.01-.005-.013l-.003-.011V5.53l-.004-.013c-.004-.004 0-.01-.004-.015V5.5c-.002-.004 0-.009-.004-.013v-.003c-.003-.005 0-.01-.003-.016v-.002c-.003-.005 0-.011-.003-.016v-.003c-.004-.006 0-.014-.003-.02l-.001-.005c-.003-.007 0-.014-.003-.02v-.007c-.005-.01 0-.02-.004-.03v-.01a.048.048 0 01-.002-.02v-.963a.043.043 0 00-.001-.02.039.039 0 00-.025-.005h-.884a.039.039 0 00-.025.005l-.001.02v.996l.003.035a1.748 1.748 0 00.043.3 1.871 1.871 0 001.327 1.382 1.905 1.905 0 00.39.064.147.147 0 01.03 0 .08.08 0 01.022 0h.131a.141.141 0 01.03 0l.08-.008a1.775 1.775 0 00.342-.067c.037-.01.073-.023.11-.034l.01-.004c.002-.003.008 0 .01-.004l.009-.003c.002-.004.008 0 .01-.004l.008-.004h.003l.008-.004.008-.003v-.001h.002l.007-.003.008-.003c.003-.004.008 0 .01-.005L5.37 7l.008-.004.008-.003v-.001h.002l.008-.004.008-.003.007-.004.008-.004.007-.003.008-.004.007-.003v-.001h.002l.008-.004.008-.004.007-.004.008-.003.005-.003h.002l.005-.004.008-.003.007-.005.007-.003.008-.004.007-.004.007-.004.005-.003.007-.004.007-.004.008-.004.004-.003.007-.004.007-.004.012-.007.007-.004.011-.007.007-.005.005-.003.007-.004.011-.007.007-.005.004-.003.007-.004.005-.003.006-.004.005-.003.007-.005.004-.003.007-.005.004-.003.011-.007.005-.004.007-.005.004-.003.01-.008.005-.002.01-.008.005-.003.01-.009.005-.003c.003-.003.008-.005.01-.009l.005-.003.003-.002.006-.005.005-.004.004-.003.004-.003c.003-.004.008-.005.01-.009l.005-.004.004-.003.004-.003c.003-.004.008-.005.01-.009l.004-.004.004-.002.004-.004c.003-.003.008-.004.01-.009l.004-.003.004-.004.004-.004.004-.002.004-.004a.101.101 0 00.018-.016l.004-.004.004-.004.004-.004.005-.004.002-.002.004-.004.004-.004.003-.003.004-.004.004-.003.004-.004.004-.004.003-.003.004-.004.004-.003.003-.004.004-.004.003-.004.004-.003.004-.004.004-.004.004-.004.003-.004.004-.004.004-.004.004-.004.003-.004.004-.004L6 6.55a.101.101 0 00.016-.018l.004-.004.004-.004.002-.004.004-.004.004-.004c.004-.002.005-.007.008-.01l.004-.004.003-.004.003-.004c.004-.002.005-.007.009-.01l.003-.004.003-.004.004-.004c.004-.003.005-.008.008-.01l.004-.005.003-.004.004-.005.005-.006.003-.004.003-.004.008-.01.004-.005.007-.01.003-.004.008-.01.004-.005.008-.011.003-.004.004-.007.003-.004.008-.011.003-.005.005-.007.003-.004.004-.006.003-.005.005-.007.003-.004.004-.007.003-.004.004-.007.007-.011.005-.007.003-.005.004-.006.007-.012.004-.007.008-.012.004-.007.004-.007.003-.005.004-.007.003-.007.004-.007.003-.005.004-.007.004-.007.004-.008.003-.007.004-.007.004-.008.002-.004.004-.008.004-.007.004-.008.004-.008v-.002l.004-.006V6.1l.004-.006v-.002h.001l.004-.007.003-.008.004-.008.003-.007.004-.008.004-.009v-.002l.004-.007.003-.008.003-.008c.004-.002 0-.008.005-.01l.003-.008.004-.009V5.99l.004-.007.003-.01.001-.001.004-.008.003-.01.001-.001.003-.008c.004-.003.001-.008.004-.011l.004-.01v-.001l.004-.009v-.002l.003-.008c.005-.003.001-.009.004-.012l.004-.011.003-.01.003-.012.004-.011c.004-.004.001-.01.004-.013v-.002l.004-.01v-.001l.004-.012.004-.012v-.003l.004-.011.003-.013V5.77l.003-.013v-.002l.004-.012V5.74l.003-.012v-.003l.003-.013.001-.002c.004-.004 0-.01.004-.015.004-.005 0-.011.004-.016v-.003c.003-.004 0-.01.003-.015v-.003c.004-.005 0-.011.004-.016V5.64c.003-.005 0-.011.003-.016v-.002c.005-.007 0-.014.004-.02v-.003c.004-.006 0-.014.003-.02v-.003c.004-.007 0-.014.004-.02V5.55c.004-.008-.001-.016.003-.023v-.003c.005-.01 0-.019.003-.028V5.49c.004-.01 0-.02.004-.028v-.01c.005-.012 0-.025.003-.038l.001-.01c.007-.02.001-.04.006-.06zm-.717 1.413zm-1.381-.567zM2.761 4.35l.014-.013.905-.905.013-.013v-1.84a.046.046 0 00-.003-.025l-.015.018-.9.9a.044.044 0 00-.015.035V4.33z" fill="#fff"/></svg>