<svg xmlns="http://www.w3.org/2000/svg" viewBox="0 0 9 9"><path id="b1b0726f-ff86-41e4-8b94-8025b0af82fb" d="M4.5 9A4.513 4.513 0 010 4.5 4.513 4.513 0 014.5 0 4.513 4.513 0 019 4.5 4.513 4.513 0 014.5 9z" fill="#002868"/><path id="ad6bd21c-ea95-4047-b495-69897a9cd5cd" d="M6.768 7.2H2.232a.433.433 0 01-.432-.432V2.232a.433.433 0 01.432-.432h4.536a.433.433 0 01.432.432v4.536a.433.433 0 01-.432.432z" fill="#fff"/><path d="M2.854 6.656a.027.027 0 01-.026-.027v-.725a.027.027 0 00-.026-.027h-.256a.027.027 0 01-.027-.026v-.14a.028.028 0 01.027-.028h.789a.028.028 0 01.027.028v.14a.027.027 0 01-.027.025H3.08a.028.028 0 00-.027.028v.725a.027.027 0 01-.026.027zm1.295-.946a.027.027 0 01.025-.027h.172a.028.028 0 01.027.028v.495a.43.43 0 11-.855 0V5.71a.027.027 0 01.025-.027h.172a.028.028 0 01.027.028v.502c0 .144.074.247.203.247s.204-.103.204-.247V5.71zm1.013.291a.037.037 0 01-.039-.026.196.196 0 00-.196-.114c-.09 0-.166.031-.166.091 0 .066.07.094.225.112.234.027.369.099.369.285 0 .209-.183.319-.418.319a.367.367 0 01-.405-.306c-.003-.02.007-.027.027-.027h.158a.035.035 0 01.037.024.196.196 0 00.2.122c.093 0 .175-.035.175-.108 0-.087-.086-.103-.258-.124-.197-.026-.335-.083-.335-.265s.156-.312.401-.312a.376.376 0 01.405.296c.004.02-.001.033-.023.033h-.157zm.388.655a.027.027 0 01-.026-.027v-.918a.027.027 0 01.026-.028h.39a.487.487 0 110 .973zm.39-.193a.294.294 0 00-.002-.587h-.162a.027.027 0 00-.026.027v.534a.026.026 0 00.026.026h.163z" fill="#002868"/><path id="b965d8b1-c360-4511-a2a5-01e502ff77dd" d="M7.056 5.148H1.944a.072.072 0 01-.072-.072V2.232a.361.361 0 01.36-.36h4.536a.361.361 0 01.36.36v2.844a.072.072 0 01-.072.072z" fill="#002868"/><path id="a1f47215-cbff-456a-9197-db2a33c670f0" d="M4.765 4.564h-.468a.054.054 0 01-.054-.054V2.53a.054.054 0 01.054-.054h.468a.054.054 0 01.054.054v1.98a.054.054 0 01-.054.054z" fill="#fff"/><path id="b3657566-75e6-487c-a344-e1a7d6cc2f92" d="M5.562 3.052H3.438a.054.054 0 01-.054-.054V2.53a.054.054 0 01.054-.054h2.124a.054.054 0 01.054.054v.468a.054.054 0 01-.054.054z" fill="#fff"/></svg>