<svg xmlns="http://www.w3.org/2000/svg" viewBox="0 0 9 9"><circle cx="4.5" cy="4.5" r="4.5" fill="#3375bb"/><path d="M4.499 2.072l.121-.157a.198.198 0 00-.243 0zm2.078.61l.198.004a.198.198 0 00-.198-.202zM4.5 6.928l-.11.165a.199.199 0 00.22 0zM2.423 2.682v-.198a.198.198 0 00-.198.202zm1.954-.454a3.444 3.444 0 002.2.653v-.397a3.055 3.055 0 01-1.957-.569zm2.002.451a15.774 15.774 0 01-.129 2.052 2.313 2.313 0 01-.315.962 1.567 1.567 0 01-.564.484c-.258.155-.583.32-.983.586l.22.33c.38-.253.698-.415.967-.576a2.11 2.11 0 00.69-.602 2.697 2.697 0 00.377-1.124 16.333 16.333 0 00.133-2.106zm-1.77 4.084c-.4-.265-.725-.431-.982-.586a1.563 1.563 0 01-.564-.484 2.317 2.317 0 01-.313-.962 15.845 15.845 0 01-.128-2.052l-.397.007a16.382 16.382 0 00.133 2.105 2.697 2.697 0 00.376 1.124 2.104 2.104 0 00.689.603c.269.16.586.322.966.575zM2.423 2.881a3.441 3.441 0 002.197-.653l-.243-.313a3.051 3.051 0 01-1.954.57z" fill="#f9fafb"/></svg>