<svg xmlns="http://www.w3.org/2000/svg" viewBox="0 0 9 9"><circle cx="4.5" cy="4.5" r="4.5" fill="#ff4a4a"/><path d="M5.402 5.302h-.271a.093.093 0 01-.093-.093v-.714l-.475.297a.123.123 0 01-.13 0l-.473-.297v.714a.093.093 0 01-.093.093h-.269a.093.093 0 01-.093-.093V3.83a.123.123 0 01.123-.123.11.11 0 01.068.023l.75.515a.087.087 0 00.102 0l.75-.515a.124.124 0 01.17.033.137.137 0 01.023.067v1.38a.089.089 0 01-.088.093zM3.1 5.3H1.416a.123.123 0 01-.123-.124V3.791a.095.095 0 01.095-.093h.272a.093.093 0 01.093.093v1.053h1.02V3.791a.093.093 0 01.093-.093h.264a.093.093 0 01.093.093v1.385A.123.123 0 013.1 5.3zm2.8-1.602h1.684a.123.123 0 01.123.123v1.385a.092.092 0 01-.09.093h-.271a.093.093 0 01-.094-.093v-.993a.061.061 0 00-.06-.06h-.897a.061.061 0 00-.06.06v.993a.093.093 0 01-.093.093H5.87a.093.093 0 01-.093-.093V3.821a.123.123 0 01.123-.123z" fill="#f9fafb"/><path d="M6.606 4.445h.27a.093.093 0 01.092.093v.274a.093.093 0 01-.093.093h-.269a.093.093 0 01-.093-.093v-.277a.092.092 0 01.093-.09z" fill="#f9fafb"/></svg>