<svg xmlns="http://www.w3.org/2000/svg" viewBox="0 0 9 9"><path d="M8.773 4.498a4.275 4.275 0 11-7.04-3.25c.01-.01.01-.01.02-.01a4.264 4.264 0 017.02 3.26z" fill="#fff"/><path d="M1.565 1.565a4.15 4.15 0 110 5.87 4.155 4.155 0 010-5.87m-.247-.247a4.5 4.5 0 106.364 0 4.5 4.5 0 00-6.364 0z" fill="#ff007a"/><path d="M3.646 2.159c-.075-.01-.079-.014-.043-.017a1.196 1.196 0 01.333.027 1.437 1.437 0 01.732.479l.063.072.093-.014a2.02 2.02 0 011.135.14 1.482 1.482 0 01.256.145.329.329 0 01.025.097.576.576 0 01-.04.378.1.1 0 00-.01.11.107.107 0 00.096.06c.085 0 .174-.132.216-.316l.018-.073.032.035a1.353 1.353 0 01.344.666L6.903 4l-.032-.045a.589.589 0 00-.17-.177 1.086 1.086 0 00-.585-.121 2.453 2.453 0 01-.65-.097c-.29-.094-.44-.215-.784-.662a3.207 3.207 0 00-.344-.396 1.214 1.214 0 00-.692-.343z" fill="#ff007a"/><path d="M6.29 2.599a.734.734 0 01.063-.298.236.236 0 01.032-.059c.004 0-.003.024-.014.052a.647.647 0 00-.014.305c.025.156.035.177.206.347.078.08.17.18.206.222l.06.076-.06-.056a2.16 2.16 0 00-.284-.218c-.025-.014-.029-.014-.047.003-.014.014-.017.035-.017.136a.73.73 0 01-.078.353c-.029.052-.032.042-.007-.017a.494.494 0 00.02-.215c0-.302-.035-.374-.251-.496a2.496 2.496 0 00-.199-.1.788.788 0 01-.096-.045 1.615 1.615 0 01.298.086c.124.049.146.052.16.049.01-.01.018-.038.021-.125zm-2.499.517a1.205 1.205 0 01-.224-.746l.007-.073.036.007a.844.844 0 01.227.083c.142.084.206.198.266.482.018.083.043.18.054.212a1.246 1.246 0 00.142.25c.039.055.014.083-.075.076a.728.728 0 01-.433-.291zm2.231 1.392c-.639-.246-.865-.458-.865-.819 0-.052.004-.095.004-.095l.054.04a1.333 1.333 0 00.678.197 2.923 2.923 0 01.494.098.916.916 0 01.69.718 1.19 1.19 0 01-.02.385.754.754 0 01-.102.221c-.004 0-.01-.015-.01-.04a.493.493 0 00-.188-.348 2.623 2.623 0 00-.735-.357zm-.53.148a.81.81 0 00-.036-.145l-.018-.052.032.038a.606.606 0 01.114.201.423.423 0 01.025.194.432.432 0 01-.025.187.626.626 0 01-.149.233.864.864 0 01-.532.228c-.043.004-.164.014-.27.021a2.127 2.127 0 00-.604.097c-.021.007-.042.014-.046.01a.809.809 0 01.192-.11 1.97 1.97 0 01.532-.14 2.475 2.475 0 00.316-.062.6.6 0 00.469-.7zm.318.56a.66.66 0 01-.058-.486c.007-.015.013-.03.02-.03a.142.142 0 01.044.021c.039.024.12.066.324.171a1.634 1.634 0 01.51.352.72.72 0 01.17.363 1.114 1.114 0 01-.016.357.895.895 0 01-.465.577.456.456 0 01-.067.03.228.228 0 01.029-.066.562.562 0 00.029-.466 1.877 1.877 0 00-.257-.432 2.837 2.837 0 01-.263-.39zM3.414 6.277a1.717 1.717 0 01.76-.338 1.217 1.217 0 01.393.014.685.685 0 01.384.228.802.802 0 01.14.384c.012.076.027.155.03.172a.374.374 0 00.134.223.497.497 0 00.42.011.224.224 0 01.053-.014.467.467 0 01-.132.082.46.46 0 01-.22.048.447.447 0 01-.372-.212 1.549 1.549 0 01-.1-.186.685.685 0 00-.287-.372.402.402 0 00-.356-.031.205.205 0 00-.08.33.32.32 0 00.175.084.181.181 0 00.21-.172.136.136 0 00-.1-.138c-.098-.04-.204.006-.201.093a.078.078 0 00.058.076c.024.012.024.012.006.009a.102.102 0 01-.04-.184.23.23 0 01.326.065.276.276 0 01.006.192.292.292 0 01-.347.152.502.502 0 01-.266-.166.834.834 0 00-.6-.285l-.058-.008z" fill="#ff007a"/><path d="M3.803 3.428c-.03-.03-.14-.16-.3-.33l-.12-.14c-.42-.45-1.04-1.14-1.45-1.6a.04.04 0 00-.02.04c.08.09.15.18.23.28.68.84 1.42 1.74 1.47 1.81s.03.13-.06.18a.406.406 0 01-.18.05.199.199 0 01-.16-.07c-.03-.03-.16-.22-.45-.67-.19-.3-.35-.55-.41-.62.03.06.12.22.38.69a5.445 5.445 0 01.34.64c0 .05-.01.07-.07.13a.808.808 0 00-.15.45 1.465 1.465 0 01-.38.76 1.497 1.497 0 00-.21.3.567.567 0 00-.07.27.892.892 0 00.05.32 1.053 1.053 0 00.16.32.975.975 0 01.12.24c0 .03.01.03.12 0a1.319 1.319 0 00.65-.32.299.299 0 00.1-.25.257.257 0 00-.02-.14c-.03-.08-.1-.14-.23-.23a.518.518 0 01-.28-.36.674.674 0 01.11-.39 1.308 1.308 0 00.14-.53c.01-.14.03-.2.07-.24.04-.05.08-.06.18-.08a.524.524 0 00.36-.15.288.288 0 00.11-.24l.01-.08zm-1.2 2.31a.088.088 0 01-.14.04c-.03-.02-.03-.05 0-.09.02-.04.02-.05-.01-.07-.02-.01-.03-.02-.03-.03 0-.05.09-.07.14-.03a.13.13 0 01.04.18zM3.95 3.885a.31.31 0 00-.19.205.292.292 0 00.017.187c.039.048.074.062.174.062.195 0 .362-.083.38-.184a.267.267 0 00-.16-.25.37.37 0 00-.22-.02zm.228.174a.077.077 0 00-.036-.118c-.096-.06-.241-.01-.241.08 0 .045.074.093.145.093a.198.198 0 00.132-.055z" fill="#ff007a" fill-rule="evenodd"/><path d="M4.003 3.408a.067.067 0 010 .1c-.02.01-.03.02-.05.02s-.03-.01-.05-.02L3.5 3.096l-.12-.14-1.247-1.285-.221-.231c-.01-.02-.02-.04-.01-.05a.04.04 0 01.02-.04v-.01a.067.067 0 01.1 0z" fill="#fff"/></svg>