<svg xmlns="http://www.w3.org/2000/svg" viewBox="0 0 9 9"><defs><linearGradient id="878e6303-9419-4ee7-8392-0ee50b09378e" x1="-246.342" y1="-363.334" x2="-237.342" y2="-363.334" gradientTransform="scale(-1 1) rotate(-45 320.847 -465.92)" gradientUnits="userSpaceOnUse"><stop offset="0" stop-color="#0293d6"/><stop offset="1" stop-color="#bad147"/></linearGradient></defs><circle cx="4.5" cy="4.5" r="4.275" fill="#fff"/><path d="M1.565 7.434a4.15 4.15 0 115.87 0 4.15 4.15 0 01-5.87 0m-.247.248a4.5 4.5 0 100-6.364 4.5 4.5 0 000 6.364z" fill="url(#878e6303-9419-4ee7-8392-0ee50b09378e)"/><path d="M2.864 6.648a2.038 2.038 0 001.411.69 1.283 1.283 0 00.85-.385 14.794 14.794 0 011.396-1.059l.273-.112a1.36 1.36 0 00.481-.369 1.118 1.118 0 00.225-.625 1.765 1.765 0 00-.289-.85 5.326 5.326 0 01-4.347 2.71z" fill="#0293d6"/><path d="M3.473 2.092a1.284 1.284 0 01.93-.4.834.834 0 01.61.208 2.792 2.792 0 001.572.513.907.907 0 01.626.305.833.833 0 01.16.497 2.228 2.228 0 01-.16.722z" fill="#ebe638"/><path d="M2.864 6.648a2.042 2.042 0 01-.562-.16 1.256 1.256 0 01-.674-.513 1.002 1.002 0 01-.128-.513 2.213 2.213 0 01.24-.979 4.525 4.525 0 00.305-1.171l.08-.32a1.517 1.517 0 01.193-.482l.176-.193a1.524 1.524 0 01.979-.224 5.005 5.005 0 00-.61 4.555z" fill="#bad147"/><path d="M3.473 2.092a6.511 6.511 0 011.412.24l.45.193a2.85 2.85 0 00-2.15.787 2.994 2.994 0 00-.707 2.663 1.637 1.637 0 01-.353-1.107 3.85 3.85 0 011.348-2.776z" fill="#78b650"/><path d="M5.623 6.055a3.209 3.209 0 00-.289-3.53 2.197 2.197 0 011.22.642 3.043 3.043 0 01.657.77 4.733 4.733 0 01-1.588 2.118z" fill="#2f8260"/><path d="M6.136 3.231a1.827 1.827 0 00-.786-.706A2.544 2.544 0 002.318 4.98a2.744 2.744 0 00.578 1.669 3.819 3.819 0 001.443 0 2.652 2.652 0 001.284-.562 2.719 2.719 0 00.818-1.765 1.914 1.914 0 00-.305-1.09zM5.56 5.557a1.588 1.588 0 01-1.171.514A1.615 1.615 0 013.2 5.525a1.591 1.591 0 01-.369-1.042 1.794 1.794 0 01.77-1.316 1.442 1.442 0 01.787-.273 1.27 1.27 0 01.77.16 1.74 1.74 0 01.77 1.428 1.562 1.562 0 01-.37 1.075z" fill="#085229"/></svg>