<svg xmlns="http://www.w3.org/2000/svg" xmlns:xlink="http://www.w3.org/1999/xlink" viewBox="0 0 9 9"><defs><linearGradient id="b869a9d0-48ec-48e6-8505-f141d323cc4c" x1="2.378" y1="2.459" x2="8.101" y2="7.964" gradientUnits="userSpaceOnUse"><stop offset="0" stop-color="#5020b2"/><stop offset="1" stop-color="#6932d5"/></linearGradient><linearGradient id="ee998782-8205-4dc7-a24f-dd68eea0213f" x1="2.291" y1="2.192" x2="8.514" y2="8.694" xlink:href="#b869a9d0-48ec-48e6-8505-f141d323cc4c"/></defs><circle cx="4.5" cy="4.5" r="3.971" fill="url(#b869a9d0-48ec-48e6-8505-f141d323cc4c)"/><path d="M4.5.645A3.855 3.855 0 11.645 4.5 3.859 3.859 0 014.5.645m0-.325A4.18 4.18 0 108.68 4.5 4.18 4.18 0 004.5.32z" fill="#fff"/><path d="M4.5.35A4.15 4.15 0 11.35 4.5 4.155 4.155 0 014.5.35m0-.35A4.5 4.5 0 109 4.5 4.5 4.5 0 004.5 0z" fill="url(#ee998782-8205-4dc7-a24f-dd68eea0213f)"/><path d="M5.889 2.914v2.904H3.112V2.914H5.89v-.861H4.253L2.25 3.563v1.006a2.224 2.224 0 00.166.849 2.25 2.25 0 004.168 0 2.224 2.224 0 00.166-.849V2.914z" fill="#f9fafb"/></svg>