<svg xmlns="http://www.w3.org/2000/svg" viewBox="0 0 9 9"><defs><linearGradient id="b8d2e7a4-0cd7-4b58-a4ea-6780f5b7c17b" x1=".225" y1="4.5" x2="8.775" y2="4.5" gradientUnits="userSpaceOnUse"><stop offset="0" stop-color="#302988"/><stop offset="1" stop-color="#4e48dc"/></linearGradient><linearGradient id="b6902eff-0dc3-4804-8df7-7f8723fe140e" x1=".221" y1="4.503" x2="6.181" y2="4.503" gradientUnits="userSpaceOnUse"><stop offset="0" stop-color="#403dbe"/><stop offset="1" stop-color="#5d62fe"/></linearGradient><linearGradient id="e027f23e-0d47-4938-bee1-5187c632b34d" x1="8.212" y1="1.799" x2=".934" y2="7.095" gradientUnits="userSpaceOnUse"><stop offset="0" stop-color="#090220"/><stop offset="1" stop-color="#170659"/></linearGradient></defs><circle cx="4.5" cy="4.5" r="4.275" fill="url(#b8d2e7a4-0cd7-4b58-a4ea-6780f5b7c17b)"/><path d="M6.18.578v7.85a4.075 4.075 0 01-1.68.35 4.275 4.275 0 110-8.55 4.075 4.075 0 011.68.35z" fill="url(#b6902eff-0dc3-4804-8df7-7f8723fe140e)"/><path d="M4.5 0A4.5 4.5 0 109 4.5 4.5 4.5 0 004.5 0zm0 8.39A3.89 3.89 0 118.39 4.5 3.895 3.895 0 014.5 8.39z" fill="url(#e027f23e-0d47-4938-bee1-5187c632b34d)"/><path d="M6.657 2.35l-.907-.004a.19.19 0 00-.175.115l-1.091 2.39-1.06-2.39a.19.19 0 00-.174-.115l-.907.005a.095.095 0 00-.084.135l2.086 4.631a.152.152 0 00.276 0l2.12-4.63a.095.095 0 00-.084-.136z" fill="#fff"/><path d="M5.75 2.346l.907.005a.095.095 0 01.084.135l-2.12 4.632a.152.152 0 01-.276-.001l-2.086-4.63a.095.095 0 01.084-.136l.907-.005h.001a.19.19 0 01.174.115l1.06 2.39 1.09-2.39a.19.19 0 01.175-.115m.001-.1H5.75a.29.29 0 00-.265.175l-.999 2.187-.969-2.187a.29.29 0 00-.265-.175l-.908.005a.193.193 0 00-.162.089.197.197 0 00-.013.188l2.085 4.63a.252.252 0 00.458.001l2.121-4.631a.197.197 0 00-.013-.188.193.193 0 00-.161-.09l-.907-.004z" fill="#2e318f"/></svg>