<svg xmlns="http://www.w3.org/2000/svg" viewBox="0 0 9 9"><path d="M1.952 6.349c0 .01 0 .01.01.02-.01-.01-.02-.01-.02-.02z" fill="#324664"/><circle cx="4.5" cy="4.5" r="4.5" fill="#00b9c8"/><path d="M7.574 4.113c-.884-.514-1.776-1.027-2.66-1.54a.432.432 0 00-.638.387v2.81a.073.073 0 01-.043.076c-.151.084-.302.176-.454.26-.1.06-.202.118-.311.177-.042.025-.076.009-.076-.05V1.95a.419.419 0 00-.42-.43.424.424 0 00-.421.43v5.1a.42.42 0 00.151.327.415.415 0 00.513.026c1.305-.75 2.609-1.506 3.913-2.255l.48-.278a.418.418 0 00.21-.438.45.45 0 00-.244-.32zm-1.086.42a43.04 43.04 0 01-.892.522c-.134.076-.26.152-.395.227-.059.034-.084.026-.084-.042V3.768c0-.068.025-.084.084-.05.362.202.715.404 1.069.606.075.042.143.084.218.126.026.008.042.016.042.042s-.025.033-.042.041z" fill="#fefefe"/></svg>