<svg xmlns="http://www.w3.org/2000/svg" viewBox="0 0 8.911 8.911"><circle cx="4.455" cy="4.455" r="4.355" fill="#f7f7f7"/><path id="a290518a-d77b-42be-93d8-192c682265a9" d="M7.266 1.87l-.245.245a3.464 3.464 0 010 4.675l.245.244a3.813 3.813 0 000-5.17z" fill="#5a5564"/><path id="af0f4eed-409f-44b3-9a4b-c72ec8166a62" d="M2.12 1.891a3.464 3.464 0 014.675 0l.245-.244a3.813 3.813 0 00-5.17 0z" fill="#5a5564"/><path id="b6b92e90-eca1-4537-b0db-51f8470d876f" d="M1.891 6.792a3.464 3.464 0 010-4.672l-.244-.245a3.813 3.813 0 000 5.17z" fill="#5a5564"/><path id="ab8dcf26-5e45-491e-81a4-53362068cb61" d="M6.792 7.018a3.464 3.464 0 01-4.675 0l-.245.245a3.814 3.814 0 005.17 0z" fill="#5a5564"/><path id="f92f26e1-b5f3-4f6b-a752-21f1ea1261e1" d="M6 3.639c-.049-.51-.49-.682-1.046-.734v-.703h-.43v.69h-.345v-.69h-.427v.708h-.874v.46s.318-.005.313 0a.223.223 0 01.245.19v1.938a.15.15 0 01-.052.105.149.149 0 01-.111.037c.006.005-.313 0-.313 0l-.082.515h.865v.72h.431v-.71h.344v.706h.432V6.16c.728-.044 1.235-.223 1.298-.904a.733.733 0 00-.618-.892A.666.666 0 006 3.64zm-.603 1.532c0 .535-.917.473-1.21.473v-.949c.293.001 1.21-.083 1.21.476zm-.2-1.338c0 .49-.765.43-1.008.43V3.4c.243 0 1.008-.077 1.008.433z" fill="#f09242"/><path id="ede8e3e4-a78d-4219-aa55-1dd34aa11af4" d="M4.455 8.91a4.455 4.455 0 11.001 0zm0-8.563a4.106 4.106 0 10.005 0z" fill="#282138"/></svg>