<svg xmlns="http://www.w3.org/2000/svg" viewBox="0 0 9 9"><path id="a052f96f-a820-4b71-89e4-2c56c19b93ef" d="M4.5 0A4.5 4.5 0 110 4.5 4.5 4.5 0 014.5 0z" fill="#101b3b"/><path d="M6.315 1.873a.163.163 0 00-.068.017s-.363.21-.52.294c-.127.07-.135.154-.135.183s.01.113.135.183c.155.085.52.294.52.294a.128.128 0 00.068.017.132.132 0 00.132-.132.165.165 0 00-.017-.068.153.153 0 00-.048-.048l-.448-.246.448-.246a.153.153 0 00.049-.048.128.128 0 00.016-.067.132.132 0 00-.132-.133zm-3.305.07a.485.485 0 00-.176.034.475.475 0 00-.15.099.457.457 0 00-.132.325.485.485 0 00.034.176.518.518 0 00.099.15.457.457 0 00.325.132.485.485 0 00.176-.034.519.519 0 00.15-.099.414.414 0 00.098-.15.44.44 0 00.034-.175.457.457 0 00-.458-.458zm3 4.339a.174.174 0 00-.104.033l-.016.01a2.645 2.645 0 01-1.36.421h-.066a2.646 2.646 0 01-1.36-.424l-.009-.003a.173.173 0 00-.106-.037.192.192 0 00-.085.36 2.988 2.988 0 001.535.485.864.864 0 00.059-.002 2.9 2.9 0 001.596-.482.194.194 0 00.102-.17.188.188 0 00-.185-.191z" fill="#fff"/><path d="M3.022 3.156a.454.454 0 00-.306.118.385.385 0 00-.128.281.309.309 0 00.012.089l.614 2.302a.408.408 0 00.154.212.458.458 0 00.518.005.422.422 0 00.157-.2v.002L4.5 4.763l.457 1.202v-.003a.405.405 0 00.157.2.458.458 0 00.518-.004.393.393 0 00.154-.212L6.4 3.644a.462.462 0 00.012-.089.385.385 0 00-.128-.28.454.454 0 00-.585-.022.384.384 0 00-.146.24l-.253.95-.39-1.022V3.42a.139.139 0 00-.015-.03l-.002-.008a.245.245 0 00-.018-.027l-.003-.008a.16.16 0 00-.02-.027l-.006-.008c-.005-.008-.014-.016-.02-.024L4.82 3.28l-.023-.021-.009-.009a.171.171 0 01-.023-.019l-.009-.008-.026-.016-.012-.005-.026-.013-.014-.006-.027-.008-.014-.005a.091.091 0 00-.026-.005.04.04 0 00-.018-.003c-.009-.003-.017-.003-.026-.005l-.017-.003a.069.069 0 01-.023-.003h-.053a.07.07 0 00-.024.003l-.02.002c-.008 0-.014.003-.023.003a.044.044 0 00-.017.005.09.09 0 01-.026.006l-.015.005-.026.008-.015.006a.128.128 0 00-.026.013l-.012.008a.162.162 0 00-.023.016l-.009.008a.077.077 0 00-.023.019l-.009.008a.174.174 0 00-.023.021l-.006.008a.15.15 0 00-.02.024l-.006.008a.235.235 0 00-.017.027l-.006.008-.018.027-.003.008-.015.03v.002H4.09L3.7 4.447l-.253-.95a.396.396 0 00-.146-.241.435.435 0 00-.279-.1z" fill="#fbc506"/></svg>