<svg xmlns="http://www.w3.org/2000/svg" viewBox="0 0 9 9"><circle cx="4.5" cy="4.5" r="4.275" fill="#fff"/><path d="M1.565 7.434a4.15 4.15 0 115.87 0 4.155 4.155 0 01-5.87 0m-.247.248a4.5 4.5 0 100-6.364 4.5 4.5 0 000 6.364z" fill="#3067ef"/><path d="M4.475 2.373c0 .019.014.03.024.043l.914 1.364c.02.03.02.045-.01.068q-1.062.813-2.12 1.629a.11.11 0 01-.073.023h-.554c-.002-.02.011-.032.019-.045l1.77-3.041c.009-.013.015-.027.022-.04zm-.763 3.143l2.994-2.302-.018.23-.056.64-.064.724-.053.624c-.007.084-.005.084-.088.084zm.78.259h1.964c.037 0 .05.007.049.047a8.365 8.365 0 000 .388c0 .038-.01.046-.047.046H2.517c-.038 0-.05-.009-.049-.048q.004-.194 0-.388c0-.038.01-.046.047-.046q.989.002 1.977.001" fill="#3067ef"/><path d="M2.294 3.162l.034.022.928.655c.02.015.032.024.016.052q-.39.667-.778 1.335l-.019.028-.181-2.092" fill="#3167ef"/></svg>