<svg xmlns="http://www.w3.org/2000/svg" viewBox="0 0 9 9"><defs><linearGradient id="ee5955d7-774c-4754-be8a-dd8b24183721" x1="-3.207" y1="1670.013" x2="12.052" y2="1651.702" gradientTransform="matrix(1 0 0 -1 0 1665.265)" gradientUnits="userSpaceOnUse"><stop offset="0" stop-color="#273498"/><stop offset=".53" stop-color="#0074c2"/><stop offset="1" stop-color="#00abe7"/></linearGradient></defs><path d="M5.101 3.51l-1.115.641a.092.092 0 00-.046.08v.539a.087.087 0 00.046.078l.467.269a.083.083 0 00.09 0l1.926-1.11a.557.557 0 000-.923l-1.732-.997a.463.463 0 00-.478 0l-1.732.998a.472.472 0 00-.242.416c0 .668.003 1.333 0 1.997a.472.472 0 00.241.416l1.731 1a.476.476 0 00.479 0l1.733-1a.468.468 0 00.238-.416V4.63L4.646 5.823a.292.292 0 01-.298 0l-.92-.534a.292.292 0 01-.15-.258V3.968a.294.294 0 01.147-.255l.923-.533a.294.294 0 01.298 0l.457.26a.04.04 0 01.013.056.04.04 0 01-.015.013z" fill="#fff"/><path d="M4.5 1.312A3.188 3.188 0 107.688 4.5 3.188 3.188 0 004.5 1.312zm.601 2.128l-.457-.26a.294.294 0 00-.298 0l-.923.533a.294.294 0 00-.146.256V5.03a.292.292 0 00.149.258l.92.534a.292.292 0 00.298 0L6.705 4.63v.868a.468.468 0 01-.236.416l-1.731 1a.476.476 0 01-.48 0l-1.73-1a.472.472 0 01-.243-.416c.003-.665 0-1.33 0-1.997a.472.472 0 01.241-.416l1.731-.997a.463.463 0 01.479 0l1.733.997a.557.557 0 010 .923l-1.927 1.11a.083.083 0 01-.089 0l-.467-.27a.087.087 0 01-.046-.078v-.538a.092.092 0 01.046-.08l1.115-.642a.04.04 0 000-.07z" fill="#fff"/><path d="M4.5 0A4.5 4.5 0 109 4.5 4.5 4.5 0 004.5 0zm.601 3.44l-.457-.26a.294.294 0 00-.298 0l-.923.533a.294.294 0 00-.146.256V5.03a.292.292 0 00.149.258l.92.534a.292.292 0 00.298 0L6.705 4.63v.868a.468.468 0 01-.236.416l-1.731 1a.476.476 0 01-.48 0l-1.73-1a.472.472 0 01-.243-.416c.003-.665 0-1.33 0-1.997a.472.472 0 01.241-.416l1.731-.997a.463.463 0 01.479 0l1.733.997a.557.557 0 010 .923l-1.927 1.11a.083.083 0 01-.089 0l-.467-.27a.087.087 0 01-.046-.078v-.538a.092.092 0 01.046-.08l1.115-.642a.04.04 0 000-.07z" fill="url(#ee5955d7-774c-4754-be8a-dd8b24183721)"/></svg>