<svg xmlns="http://www.w3.org/2000/svg" viewBox="0 0 9 9"><path d="M0 4.5A4.5 4.5 0 114.5 9 4.5 4.5 0 010 4.5z" fill="#006ae3"/><path d="M4.31 6.293V2.755h.416v3.538z" fill="#fff"/><path d="M6.426 3.934l-1.283.315-.287-1.235.382-.08.15.585a.907.907 0 00-.115-1.073.938.938 0 00-.708-.337.98.98 0 00-1.08.725c-.078.435.01.758.616 1.18l-.034.47a3.522 3.522 0 01-.85-.751 1.266 1.266 0 01.051-1.403 1.547 1.547 0 011.449-.626A1.332 1.332 0 015.92 3.203a2.206 2.206 0 01-.135.454l.527-.109zm-.733 2.768a1.557 1.557 0 01-1.466.59 1.325 1.325 0 01-1.16-1.528 2.202 2.202 0 01.148-.45l-.53.095-.104-.387 1.293-.284.252 1.242-.385.07-.133-.589a.907.907 0 00.084 1.076.932.932 0 00.698.354.986.986 0 001.1-.699c.091-.432.011-.757-.582-1.194l.048-.47a3.49 3.49 0 01.829.772 1.272 1.272 0 01-.092 1.402z" fill="#fff"/></svg>