<svg xmlns="http://www.w3.org/2000/svg" xmlns:xlink="http://www.w3.org/1999/xlink" viewBox="0 0 9 9"><defs><linearGradient id="a059209c-ff81-4f41-92b3-cf7e7c9ac682" x1="2.971" y1="5.468" x2="6.571" y2="2.654" gradientUnits="userSpaceOnUse"><stop offset="0" stop-color="#cfa35b"/><stop offset="1" stop-color="#d6c063"/></linearGradient><linearGradient id="ad4734d6-2674-45cc-85e5-bc074b088022" x1="4.941" y1="4.664" x2="1.983" y2="2.326" gradientUnits="userSpaceOnUse"><stop offset="0" stop-color="#bf9c4f"/><stop offset="1" stop-color="#f2e69c"/></linearGradient><linearGradient id="f1b059e6-6fda-4f4f-a44a-a7e7f8bb8e24" x1="5.861" y1="5.405" x2="2.944" y2="3.1" gradientUnits="userSpaceOnUse"><stop offset="0" stop-color="#0131a5"/><stop offset=".995" stop-color="#027"/></linearGradient><linearGradient id="b9ce076b-c5bd-4565-a619-6feebedbc4db" x1="3.712" y1="3.919" x2="5.717" y2="5.268" gradientUnits="userSpaceOnUse"><stop offset="0" stop-color="#4580e2"/><stop offset=".995" stop-color="#027"/></linearGradient><linearGradient id="fa271ee6-b3a8-4cd5-a1da-5f4d76105dd7" x1="3.097" y1="4.595" x2="5.779" y2="4.595" xlink:href="#ad4734d6-2674-45cc-85e5-bc074b088022"/></defs><circle cx="4.5" cy="4.5" r="4.5" fill="#020e23"/><path d="M1.565 7.434a4.15 4.15 0 115.87 0 4.155 4.155 0 01-5.87 0m-.247.248a4.5 4.5 0 100-6.364 4.5 4.5 0 000 6.364z" fill="#bf9c4f"/><path d="M6.78 2.936c0-.14-.02-.26-.16-.3-.08-.05-1.72-.84-2.05-1 0 0-.06-.02-.07-.01-.01-.01-.07.01-.07.01-.33.16-1.97.95-2.05 1-.14.04-.16.16-.16.3a7.119 7.119 0 00.04 1.13 4.33 4.33 0 001.47 2.92.328.328 0 01.08.06 4.365 4.365 0 00.61.31.31.31 0 00.08.02.31.31 0 00.08-.02 4.365 4.365 0 00.61-.31.328.328 0 01.08-.06 4.33 4.33 0 001.47-2.92 7.119 7.119 0 00.04-1.13zm-3.82.2c.04-.03.94-.46 1.35-.65.06.05.11.1.14.13 0 0 .04.04.05.02.01.02.05-.02.05-.02.03-.03.08-.08.14-.13.4.18 1.31.62 1.35.65.11.03.13.12.13.22a5.563 5.563 0 01-.04.82 3.144 3.144 0 01-1.07 2.14c-.02 0-.03.02-.06.04a3.68 3.68 0 01-.44.23c-.02 0-.03.01-.06.01-.02 0-.03-.01-.05-.01a3.168 3.168 0 01-.45-.23c-.03-.02-.04-.04-.06-.04a3.144 3.144 0 01-1.07-2.14 5.563 5.563 0 01-.04-.82c0-.1.02-.19.13-.22z" fill="url(#a059209c-ff81-4f41-92b3-cf7e7c9ac682)"/><path d="M6.39 2.826c-.07-.04-1.53-.75-1.83-.89 0 0-.05-.01-.06-.01s-.06.01-.06.01c-.3.14-1.76.85-1.83.89-.13.04-.15.15-.15.27a6.826 6.826 0 00.04 1.01 3.821 3.821 0 001.31 2.62c.02.01.04.03.07.05a3.552 3.552 0 00.55.28.133.133 0 00.14 0 3.552 3.552 0 00.55-.28c.03-.02.05-.04.07-.05a3.821 3.821 0 001.31-2.62 6.826 6.826 0 00.04-1.01c0-.12-.02-.23-.15-.27zM5 6.356a3.68 3.68 0 01-.44.23c-.02 0-.03.01-.06.01-.02 0-.03-.01-.05-.01a3.168 3.168 0 01-.45-.23c-.03-.02-.04-.04-.06-.04a3.144 3.144 0 01-1.07-2.14 5.563 5.563 0 01-.04-.82c0-.1.02-.19.13-.22.04-.03.94-.46 1.35-.65.06.05.11.1.14.13 0 0 .04.04.05.02.01.02.05-.02.05-.02.03-.03.08-.08.14-.13.4.18 1.31.62 1.35.65.11.03.13.12.13.22a5.563 5.563 0 01-.04.82 3.144 3.144 0 01-1.07 2.14c-.02 0-.03.02-.06.04z" fill="#050203"/><path d="M6.22 2.986c-.05-.03-.87-.43-1.36-.67-.14-.07-.25-.12-.31-.15a.433.433 0 00-.05-.01.433.433 0 00-.05.01c-.06.03-.17.08-.31.15-.49.24-1.31.64-1.36.67-.12.03-.14.13-.14.24a5.668 5.668 0 00.04.92 3.444 3.444 0 001.2 2.38.225.225 0 01.05.05 3.437 3.437 0 00.51.25.1.1 0 00.12 0 3.015 3.015 0 00.51-.25.225.225 0 01.05-.05 3.495 3.495 0 001.21-2.38 7.072 7.072 0 00.03-.92c0-.11-.02-.21-.14-.24zm-.09 1.19a3.144 3.144 0 01-1.07 2.14c-.02 0-.03.02-.06.04a3.68 3.68 0 01-.44.23c-.02 0-.03.01-.06.01-.02 0-.03-.01-.05-.01a3.168 3.168 0 01-.45-.23c-.03-.02-.04-.04-.06-.04a3.144 3.144 0 01-1.07-2.14 5.563 5.563 0 01-.04-.82c0-.1.02-.19.13-.22.04-.03.94-.46 1.35-.65.06.05.11.1.14.13 0 0 .04.04.05.02.01.02.05-.02.05-.02.03-.03.08-.08.14-.13.4.18 1.31.62 1.35.65.11.03.13.12.13.22a5.563 5.563 0 01-.04.82z" fill="url(#ad4734d6-2674-45cc-85e5-bc074b088022)"/><path d="M6.17 3.356a5.563 5.563 0 01-.04.82 3.144 3.144 0 01-1.07 2.14c-.02 0-.03.02-.06.04a3.68 3.68 0 01-.44.23c-.02 0-.03.01-.06.01-.02 0-.03-.01-.05-.01a3.168 3.168 0 01-.45-.23c-.03-.02-.04-.04-.06-.04a3.144 3.144 0 01-1.07-2.14 5.563 5.563 0 01-.04-.82c0-.1.02-.19.13-.22.04-.03.94-.46 1.35-.65.06.05.11.1.14.13 0 0 .04.04.05.02.01.02.05-.02.05-.02.03-.03.08-.08.14-.13.4.18 1.31.62 1.35.65.11.03.13.12.13.22z" fill="url(#f1b059e6-6fda-4f4f-a44a-a7e7f8bb8e24)"/><circle cx="4.5" cy="2.361" r=".087" fill="#adceba"/><circle cx="4.5" cy="2.361" r=".062" fill="#aeedfa"/><path fill="url(#b9ce076b-c5bd-4565-a619-6feebedbc4db)" d="M4.99 4.691l.684-1.277-.146-.228h-.693l.107.215-.308.596-.428-.811h-.949l.775 1.313v1.275l-.127.23h1.203L4.99 5.79V4.691z"/><path d="M5.528 3.186l.146.228L4.99 4.69v1.1l.119.213H3.905l.127-.23V4.5l-.775-1.313h.949l.428.811.308-.596-.107-.215h.693m.05-.091h-.89l.065.132.087.173-.207.4-.347-.657-.026-.049H3.097l.082.138.762 1.292V5.75l-.116.21-.075.135h1.513l-.075-.135-.107-.193V4.713l.673-1.256.026-.047-.029-.045-.146-.228-.027-.042z" opacity=".8" fill="url(#fa271ee6-b3a8-4cd5-a1da-5f4d76105dd7)"/></svg>