<svg xmlns="http://www.w3.org/2000/svg" xmlns:xlink="http://www.w3.org/1999/xlink" viewBox="0 0 9 9"><defs><linearGradient id="f3ce3ab1-195c-4183-acee-a2c7d36f0e6e" x1="2.672" y1="5.16" x2="7.649" y2="5.16" gradientUnits="userSpaceOnUse"><stop offset="0" stop-color="#0f9de5"/><stop offset=".195" stop-color="#10a0e0"/><stop offset=".419" stop-color="#14aad2"/><stop offset=".658" stop-color="#1ababb"/><stop offset=".904" stop-color="#22d19c"/><stop offset="1" stop-color="#26db8d"/></linearGradient><linearGradient id="aa4dcea0-d534-4288-9693-cc24ca087f82" x1="3.197" y1="5.4" x2="6.066" y2="5.4" xlink:href="#f3ce3ab1-195c-4183-acee-a2c7d36f0e6e"/></defs><circle cx="4.5" cy="4.5" r="4.5" fill="#041742"/><path d="M2.217 4.5a2.209 2.209 0 00.131.761 3.458 3.458 0 01.595-.542 1.83 1.83 0 01-.017-.219 1.583 1.583 0 013.166 0 3.793 3.793 0 00-4.12 1.88A3.151 3.151 0 014.5 1.351a3.094 3.094 0 011.837.595l-.814.516A2.236 2.236 0 004.5 2.217 2.285 2.285 0 002.217 4.5z" fill="#fff"/><path d="M7.063 2.672l-.516.813A2.308 2.308 0 016.783 4.5 2.284 2.284 0 014.5 6.783a2.308 2.308 0 01-1.015-.236l-.813.516a3.148 3.148 0 004.39-4.391z" fill="url(#f3ce3ab1-195c-4183-acee-a2c7d36f0e6e)"/><path d="M4.509 6.083a1.579 1.579 0 001.557-1.286 4.09 4.09 0 00-.831-.078 3.065 3.065 0 00-.884.105 3.343 3.343 0 00-1.154.568 1.577 1.577 0 001.312.691z" fill="url(#aa4dcea0-d534-4288-9693-cc24ca087f82)"/></svg>