<svg xmlns="http://www.w3.org/2000/svg" viewBox="0 0 9 9"><circle cx="4.5" cy="4.5" r="4.493" fill="#fff"/><path d="M8.65 4.559A4.15 4.15 0 114.559.35 4.155 4.155 0 018.65 4.559m.35.005A4.5 4.5 0 104.436 9 4.5 4.5 0 009 4.564z" fill="#1d2227"/><path d="M4.403 1.66h.17c.107.006.214.013.32.028a2.799 2.799 0 011.033.358c-.073.058-.15.109-.225.164-.504.36-1.006.723-1.51 1.083-.041-.034-.076-.074-.115-.11-.115-.11-.227-.224-.343-.333a.913.913 0 00-.12.06 1.856 1.856 0 00-.651.615 25.014 25.014 0 01-.618-.82l-.017-.029a2.735 2.735 0 01.244-.256 2.843 2.843 0 011.591-.739c.08-.011.16-.013.24-.022zm1.38 1.062c.178-.135.357-.269.54-.398a2.833 2.833 0 01.9 2.98 2.807 2.807 0 01-.252.593.3.3 0 01-.041-.05L5.898 4.484c-.067-.089-.135-.177-.201-.267.15-.161.308-.317.459-.479a1.831 1.831 0 00-.443-.598 2.13 2.13 0 00-.237-.18c.1-.082.204-.159.307-.238M1.86 3.46a2.548 2.548 0 01.179-.369c.1.126.195.256.294.384l.934 1.224a.952.952 0 01.06.082c-.157.164-.318.324-.475.489a1.578 1.578 0 00.142.253 1.832 1.832 0 00.283.325 2.172 2.172 0 00.248.192c-.075.063-.154.121-.232.181q-.206.159-.417.312c-.066.047-.13.098-.198.142a2.852 2.852 0 01-.917-1.43 2.995 2.995 0 01-.101-.674v-.142l.01-.148a2.818 2.818 0 01.19-.822zm3.993 2.26a2.182 2.182 0 00.189-.245c.063.078.124.158.185.238.152.2.303.401.45.606a1.62 1.62 0 01-.143.16 2.848 2.848 0 01-1.526.814 3.333 3.333 0 01-.414.047H4.39c-.061-.008-.123-.01-.184-.016a2.799 2.799 0 01-1.13-.37c.118-.09.237-.177.355-.266l1.354-1.011c.076.07.149.146.224.218.088.084.173.172.262.255a1.812 1.812 0 00.582-.43" fill="#1d2227"/></svg>